<svg width="208" height="48" viewBox="0 0 208 48" fill="none" xmlns="http://www.w3.org/2000/svg">
<g clip-path="url(#clip0_101_304)">
<path d="M26.8026 20.1032L44.8541 0H62.5393V48H0L26.8026 20.1032Z" fill="#6FB1E3"/>
<path d="M44.6709 0H62.5393L17.8684 48H0L44.6709 0Z" fill="#1A1229"/>
<path d="M49.1605 21.818L62.5618 7.03918V47.9998H49.1605V21.818Z" fill="#1A1229"/>
<path d="M34.4921 37.4143L43.6254 27.6373V48.0002H25.1616L34.4921 37.4143Z" fill="#1A1229"/>
<path d="M80.8437 23.3715C80.7073 22.9356 80.5555 22.4876 80.3882 22.0275C80.2208 21.5674 80.0566 21.1072 79.8956 20.6471H74.8754C74.7143 21.1072 74.55 21.5674 74.3827 22.0275C74.2154 22.4876 74.0635 22.9356 73.9272 23.3715H70.9151C71.3985 22.0153 71.8572 20.7621 72.291 19.6119C72.7248 18.4616 73.1494 17.3779 73.5646 16.3609C73.9799 15.3438 74.3889 14.3781 74.7917 13.464C75.1946 12.5498 75.6129 11.6568 76.0467 10.785H78.8171C79.2385 11.6568 79.6537 12.5498 80.0628 13.4639C80.4719 14.3781 80.884 15.3437 81.2992 16.3609C81.7145 17.3779 82.139 18.4616 82.5728 19.6119C83.0067 20.7622 83.4653 22.0154 83.9487 23.3715L80.8437 23.3715ZM77.3668 13.6365C77.3049 13.8181 77.2119 14.0663 77.0879 14.3812C76.964 14.696 76.8214 15.0592 76.6603 15.4709C76.4992 15.8825 76.3225 16.3366 76.1304 16.8331C75.9383 17.3295 75.7431 17.8502 75.5447 18.395H79.2076C79.0093 17.8501 78.8172 17.3295 78.6313 16.8331C78.4453 16.3366 78.2687 15.8826 78.1013 15.4709C77.9339 15.0593 77.7883 14.696 77.6643 14.3812C77.5404 14.0663 77.4412 13.8181 77.3668 13.6365ZM93.4682 13.8181C92.9104 15.6586 92.3279 17.384 91.7205 18.9944C91.1131 20.6047 90.45 22.1667 89.7311 23.6802C89.4708 24.2251 89.2105 24.6882 88.9502 25.0696C88.6899 25.451 88.4048 25.7659 88.0949 26.0141C87.7853 26.2622 87.4282 26.4474 87.0444 26.559C86.6539 26.674 86.1984 26.7315 85.6778 26.7315C85.2749 26.7346 84.8728 26.695 84.4786 26.6134C84.1129 26.5347 83.8123 26.447 83.5768 26.3501L84.0602 24.1888C84.3082 24.276 84.5632 24.3429 84.8226 24.3886C85.0561 24.4257 85.2924 24.444 85.5291 24.4431C86.0249 24.4431 86.4061 24.3129 86.6726 24.0526C86.939 23.7922 87.1652 23.432 87.3511 22.9719C86.719 21.7611 86.0868 20.4019 85.4547 18.8945C84.8225 17.387 84.2276 15.6949 83.6698 13.8181H86.6075C86.7314 14.2904 86.8771 14.8019 87.0444 15.3529C87.2117 15.9038 87.3884 16.4608 87.5743 17.0238C87.7602 17.5868 87.9492 18.1347 88.1414 18.6675C88.3335 19.2002 88.5163 19.6845 88.6899 20.1204C88.851 19.6845 89.0183 19.2002 89.1919 18.6675C89.3654 18.1347 89.5358 17.5868 89.7032 17.0238C89.8705 16.4608 90.0316 15.9038 90.1866 15.3529C90.3415 14.8019 90.481 14.2904 90.6049 13.8181L93.4682 13.8181ZM103.843 18.5767C103.843 19.3274 103.732 20.0145 103.508 20.6381C103.285 21.2616 102.963 21.7944 102.541 22.2363C102.117 22.6802 101.601 23.0301 101.026 23.2625C100.437 23.5047 99.7773 23.6257 99.046 23.6257C98.3271 23.6257 97.6733 23.5047 97.0845 23.2625C96.5101 23.0301 95.9934 22.6802 95.5692 22.2363C95.1478 21.7944 94.8193 21.2616 94.5838 20.638C94.3482 20.0145 94.2304 19.3274 94.2305 18.5766C94.2305 17.8259 94.3513 17.1418 94.593 16.5243C94.8347 15.9068 95.1694 15.3801 95.5971 14.9442C96.028 14.5061 96.5471 14.1598 97.1217 13.9271C97.7104 13.685 98.3519 13.5639 99.046 13.5639C99.7526 13.5639 100.4 13.685 100.989 13.9271C101.562 14.1584 102.078 14.505 102.504 14.9442C102.926 15.3801 103.254 15.9068 103.49 16.5243C103.725 17.1418 103.843 17.8259 103.843 18.5766L103.843 18.5767ZM101.017 18.5767C101.017 17.7412 100.847 17.0843 100.506 16.6061C100.165 16.1278 99.6782 15.8887 99.046 15.8886C98.4138 15.8886 97.9242 16.1278 97.5772 16.606C97.2301 17.0843 97.0566 17.7412 97.0566 18.5766C97.0566 19.4121 97.2301 20.075 97.5772 20.5654C97.9242 21.0558 98.4138 21.301 99.046 21.301C99.6781 21.301 100.165 21.0558 100.506 20.5654C100.846 20.075 101.017 19.4121 101.017 18.5766L101.017 18.5767ZM109.793 20.0296C109.793 19.5695 109.861 19.1488 109.997 18.7674C110.127 18.3979 110.312 18.0491 110.546 17.7321C110.773 17.4255 111.042 17.1505 111.345 16.9148C111.646 16.6805 111.966 16.4709 112.303 16.2882C112.003 15.9335 111.735 15.5536 111.503 15.1531C111.267 14.7462 111.146 14.2857 111.15 13.8182C111.15 12.7527 111.479 11.9323 112.135 11.3572C112.792 10.782 113.697 10.4945 114.85 10.4945C115.433 10.4945 115.941 10.5701 116.375 10.7215C116.808 10.8729 117.171 11.0787 117.462 11.339C117.748 11.591 117.973 11.9009 118.122 12.2471C118.273 12.601 118.349 12.9809 118.346 13.3641C118.346 14.1027 118.132 14.7595 117.704 15.3347C117.276 15.9098 116.734 16.3911 116.077 16.7786L118.16 18.8127C118.271 18.5706 118.38 18.2648 118.485 17.8955C118.59 17.5263 118.655 17.2024 118.68 16.9239L120.986 17.2145C120.957 17.4679 120.913 17.7196 120.856 17.9682C120.794 18.2406 120.716 18.5161 120.623 18.7946C120.53 19.0731 120.425 19.3516 120.307 19.6301C120.197 19.8923 120.07 20.1472 119.926 20.3929C120.338 20.8481 120.726 21.324 121.088 21.8186C121.452 22.3117 121.779 22.8308 122.064 23.3715H119.219C119.12 23.2141 118.984 23.0173 118.81 22.7812C118.654 22.565 118.48 22.3615 118.29 22.1728C117.794 22.5602 117.218 22.8841 116.561 23.1445C115.904 23.4048 115.166 23.535 114.348 23.535C113.48 23.535 112.755 23.4291 112.173 23.2172C111.59 23.0053 111.122 22.7328 110.769 22.3998C110.416 22.0669 110.165 21.6915 110.016 21.2738C109.87 20.8743 109.795 20.4536 109.793 20.0296L109.793 20.0296ZM112.377 19.7572C112.379 19.9499 112.417 20.1406 112.489 20.3202C112.569 20.5222 112.692 20.705 112.851 20.856C113.019 21.0195 113.232 21.1527 113.493 21.2556C113.753 21.3585 114.069 21.41 114.441 21.41C114.962 21.41 115.417 21.3434 115.808 21.2102C116.198 21.077 116.523 20.9014 116.784 20.6835L113.809 17.7594C113.629 17.8476 113.458 17.9509 113.297 18.0681C113.128 18.1912 112.975 18.3346 112.842 18.4949C112.703 18.6625 112.59 18.8491 112.507 19.0489C112.421 19.2547 112.377 19.4908 112.377 19.7572L112.377 19.7572ZM115.984 13.4912C115.986 13.2183 115.887 12.9538 115.705 12.7466C115.519 12.5286 115.209 12.4197 114.776 12.4197C114.379 12.4197 114.072 12.5377 113.855 12.7738C113.638 13.0099 113.53 13.3156 113.53 13.691C113.53 14.0058 113.623 14.3115 113.809 14.6082C114.009 14.9214 114.253 15.2057 114.534 15.4527C114.915 15.2468 115.26 14.9832 115.557 14.6718C115.842 14.3691 115.984 13.9755 115.984 13.4912L115.984 13.4912ZM134.075 23.6258C131.98 23.6258 130.384 23.0567 129.287 21.9185C128.19 20.7804 127.642 19.1639 127.642 17.0692C127.642 16.0279 127.809 15.0986 128.144 14.2813C128.479 13.464 128.937 12.7738 129.52 12.2108C130.102 11.6477 130.796 11.2209 131.602 10.9303C132.408 10.6397 133.282 10.4944 134.224 10.4944C134.769 10.4944 135.265 10.5338 135.711 10.6125C136.107 10.6794 136.498 10.7704 136.882 10.8849C137.217 10.9879 137.496 11.0938 137.719 11.2028C137.942 11.3118 138.103 11.3965 138.203 11.4571L137.366 13.7455C136.969 13.5397 136.508 13.3641 135.981 13.2188C135.454 13.0735 134.856 13.0008 134.187 13.0009C133.74 13.0009 133.297 13.0746 132.876 13.2188C132.448 13.3642 132.06 13.6034 131.742 13.918C131.413 14.2389 131.15 14.6536 130.951 15.1622C130.753 15.6707 130.654 16.2882 130.654 17.0147C130.654 17.5959 130.719 18.1377 130.849 18.6402C130.979 19.1426 131.19 19.5755 131.481 19.9388C131.773 20.302 132.154 20.5896 132.625 20.8015C133.096 21.0134 133.666 21.1193 134.335 21.1193C134.715 21.1221 135.094 21.0978 135.469 21.0467C135.77 21.0049 136.068 20.9473 136.362 20.8741C136.597 20.8159 136.827 20.74 137.05 20.6471C137.248 20.5623 137.428 20.4836 137.589 20.411L138.388 22.6813C137.979 22.9234 137.403 23.1414 136.659 23.3351C135.916 23.5288 135.054 23.6257 134.075 23.6257L134.075 23.6258ZM148.986 18.5767C148.986 19.3274 148.875 20.0145 148.652 20.6381C148.429 21.2617 148.106 21.7944 147.685 22.2364C147.261 22.6802 146.744 23.0302 146.17 23.2625C145.581 23.5047 144.921 23.6258 144.189 23.6258C143.471 23.6258 142.817 23.5047 142.228 23.2625C141.654 23.0301 141.137 22.6802 140.713 22.2364C140.291 21.7944 139.963 21.2617 139.727 20.6381C139.492 20.0145 139.374 19.3274 139.374 18.5767C139.374 17.826 139.495 17.1419 139.736 16.5244C139.978 15.9068 140.313 15.3801 140.741 14.9442C141.171 14.5061 141.691 14.1598 142.265 13.9272C142.854 13.685 143.495 13.5639 144.189 13.5639C144.896 13.5639 145.544 13.685 146.132 13.9272C146.705 14.1585 147.221 14.505 147.648 14.9442C148.069 15.3801 148.398 15.9068 148.633 16.5244C148.869 17.1419 148.986 17.826 148.986 18.5766L148.986 18.5767ZM146.16 18.5767C146.16 17.7412 145.99 17.0844 145.649 16.6061C145.308 16.1278 144.822 15.8887 144.189 15.8887C143.557 15.8887 143.068 16.1278 142.721 16.6061C142.374 17.0844 142.2 17.7412 142.2 18.5767C142.2 19.4121 142.374 20.0751 142.721 20.5655C143.068 21.0558 143.557 21.301 144.189 21.301C144.822 21.301 145.308 21.0558 145.649 20.5655C145.99 20.0751 146.16 19.4121 146.16 18.5766L146.16 18.5767ZM156.498 18.3042C156.498 17.4325 156.383 16.8149 156.154 16.4517C155.925 16.0885 155.531 15.9068 154.973 15.9068C154.8 15.9068 154.62 15.9159 154.434 15.9341C154.248 15.9523 154.068 15.9735 153.895 15.9977V23.3715H151.125V14.145C151.36 14.0845 151.636 14.0209 151.952 13.9543C152.268 13.8877 152.603 13.8271 152.956 13.7727C153.309 13.7182 153.672 13.6758 154.044 13.6455C154.416 13.6153 154.781 13.6001 155.141 13.6001C155.847 13.6001 156.421 13.6879 156.861 13.8635C157.301 14.039 157.663 14.2479 157.948 14.4901C158.345 14.2116 158.8 13.9936 159.315 13.8362C159.829 13.6788 160.303 13.6001 160.737 13.6001C161.518 13.6001 162.16 13.7061 162.662 13.918C163.164 14.1299 163.563 14.4295 163.861 14.817C164.158 15.2045 164.363 15.6646 164.474 16.1973C164.586 16.7301 164.642 17.3234 164.642 17.9772V23.3715H161.871V18.3042C161.871 17.4324 161.757 16.8149 161.527 16.4517C161.298 16.0884 160.904 15.9068 160.347 15.9068C160.198 15.9068 159.99 15.9431 159.724 16.0158C159.457 16.0884 159.237 16.1792 159.064 16.2882C159.152 16.575 159.208 16.8703 159.231 17.169C159.256 17.4778 159.268 17.8077 159.268 18.1588V23.3715H156.498L156.498 18.3042ZM173.417 18.6675C173.417 17.832 173.225 17.1631 172.841 16.6606C172.457 16.1581 171.887 15.9068 171.131 15.9068C170.883 15.9068 170.653 15.9159 170.443 15.9341C170.232 15.9523 170.058 15.9735 169.922 15.9977V20.8833C170.096 20.9923 170.322 21.0831 170.601 21.1558C170.877 21.228 171.161 21.2647 171.447 21.2647C172.76 21.2647 173.417 20.3989 173.417 18.6675L173.417 18.6675ZM176.244 18.5948C176.244 19.3334 176.151 20.0054 175.965 20.6108C175.779 21.2162 175.506 21.7369 175.147 22.1728C174.787 22.6087 174.329 22.9569 173.808 23.1899C173.275 23.432 172.661 23.553 171.967 23.553C171.605 23.5552 171.243 23.5187 170.889 23.444C170.557 23.3723 170.233 23.2689 169.922 23.1353V26.7315H167.152V14.145C167.4 14.0723 167.685 14.0027 168.007 13.9361C168.329 13.8695 168.667 13.812 169.02 13.7636C169.373 13.7152 169.733 13.6758 170.099 13.6455C170.464 13.6153 170.814 13.6001 171.149 13.6001C171.955 13.6001 172.674 13.7182 173.306 13.9543C173.938 14.1904 174.471 14.5234 174.905 14.9532C175.339 15.3831 175.67 15.9067 175.9 16.5243C176.129 17.1418 176.243 17.832 176.244 18.5948L176.244 18.5948ZM182.119 21.4826C182.392 21.4826 182.652 21.4766 182.9 21.4645C183.099 21.457 183.298 21.4388 183.495 21.4099V19.3576C183.383 19.3334 183.216 19.3092 182.993 19.285C182.789 19.2619 182.584 19.2497 182.379 19.2486C182.134 19.2477 181.888 19.2629 181.645 19.2941C181.435 19.3187 181.231 19.377 181.041 19.4666C180.875 19.5443 180.734 19.6634 180.631 19.8117C180.532 19.957 180.483 20.1386 180.483 20.3566C180.483 20.7804 180.628 21.074 180.92 21.2374C181.211 21.4009 181.611 21.4826 182.119 21.4826L182.119 21.4826ZM181.896 13.5639C182.714 13.5639 183.396 13.6547 183.941 13.8363C184.486 14.018 184.923 14.2783 185.252 14.6173C185.58 14.9563 185.813 15.368 185.949 15.8524C186.085 16.3367 186.153 16.8755 186.154 17.4688V23.099C185.757 23.1838 185.205 23.2837 184.499 23.3987C183.792 23.5137 182.937 23.5712 181.933 23.5712C181.301 23.5712 180.727 23.5168 180.213 23.4078C179.699 23.2988 179.256 23.1202 178.884 22.872C178.515 22.6279 178.22 22.2925 178.028 21.9003C177.83 21.5008 177.731 21.0104 177.731 20.4292C177.731 19.8722 177.846 19.4 178.075 19.0125C178.297 18.6327 178.613 18.314 178.995 18.0863C179.379 17.8562 179.819 17.6897 180.315 17.5868C180.823 17.4827 181.34 17.431 181.858 17.4324C182.178 17.4305 182.498 17.4456 182.816 17.4778C183.095 17.5081 183.321 17.5474 183.495 17.5959V17.3416C183.495 16.8815 183.352 16.5122 183.067 16.2337C182.782 15.9552 182.286 15.816 181.579 15.816C181.113 15.8157 180.647 15.849 180.185 15.9159C179.726 15.9824 179.33 16.0763 178.995 16.1973L178.642 14.0178C178.803 13.9694 179.004 13.9179 179.246 13.8635C179.488 13.809 179.751 13.7605 180.036 13.7182C180.321 13.6758 180.622 13.6395 180.938 13.6092C181.254 13.5789 181.573 13.5638 181.896 13.5639L181.896 13.5639ZM188.664 14.145C189.135 14.0118 189.742 13.8877 190.486 13.7727C191.261 13.6553 192.044 13.5976 192.828 13.6001C193.659 13.6001 194.35 13.7061 194.901 13.918C195.453 14.1299 195.89 14.4296 196.212 14.817C196.534 15.2045 196.764 15.6646 196.9 16.1973C197.036 16.7301 197.105 17.3234 197.105 17.9773V23.3715H194.334V18.3042C194.334 17.4324 194.217 16.8149 193.981 16.4517C193.746 16.0884 193.306 15.9068 192.661 15.9068C192.463 15.9068 192.252 15.9159 192.029 15.934C191.806 15.9522 191.608 15.9734 191.434 15.9976V23.3715H188.664V14.145ZM208 13.8181C207.442 15.6585 206.86 17.3839 206.252 18.9943C205.645 20.6047 204.982 22.1667 204.263 23.6802C204.003 24.2251 203.742 24.6882 203.482 25.0696C203.222 25.451 202.937 25.7658 202.627 26.0141C202.317 26.2622 201.96 26.4474 201.576 26.559C201.186 26.674 200.73 26.7315 200.21 26.7315C199.807 26.7346 199.405 26.695 199.01 26.6134C198.645 26.5347 198.344 26.447 198.109 26.3501L198.592 24.1888C198.84 24.276 199.095 24.3429 199.354 24.3886C199.588 24.4257 199.824 24.444 200.061 24.4431C200.557 24.4431 200.938 24.3129 201.204 24.0526C201.471 23.7922 201.697 23.432 201.883 22.9719C201.251 21.7611 200.619 20.402 199.987 18.8945C199.354 17.387 198.759 15.6949 198.202 13.8181H201.139C201.263 14.2904 201.409 14.8019 201.576 15.3529C201.743 15.9038 201.92 16.4608 202.106 17.0238C202.292 17.5868 202.481 18.1347 202.673 18.6675C202.865 19.2002 203.048 19.6845 203.222 20.1204C203.383 19.6845 203.55 19.2002 203.724 18.6675C203.897 18.1347 204.068 17.5868 204.235 17.0238C204.402 16.4608 204.563 15.9038 204.718 15.3529C204.873 14.8019 205.013 14.2904 205.137 13.8181L208 13.8181Z" fill="#1A1229"/>
<path d="M73.7395 37.517C73.2997 37.517 72.9051 37.436 72.5555 37.2742C72.2043 37.111 71.8994 36.8662 71.6675 36.5612C71.4251 36.2476 71.2391 35.865 71.1094 35.4132C70.9797 34.9614 70.9149 34.4422 70.9148 33.8556C70.9148 33.2689 70.9895 32.7497 71.1389 32.2979C71.2883 31.8462 71.4927 31.4635 71.752 31.15C71.9971 30.8476 72.3094 30.6037 72.6654 30.4369C73.0169 30.2746 73.4013 30.1917 73.7901 30.1941C74.0118 30.192 74.2331 30.2141 74.4498 30.2599C74.6249 30.2974 74.7973 30.3464 74.9657 30.4065C75.0928 30.4512 75.2147 30.5088 75.3294 30.5785C75.4252 30.6392 75.4929 30.683 75.5323 30.71L75.2194 31.7518C75.0841 31.6506 74.891 31.5545 74.6401 31.4635C74.3787 31.3707 74.1023 31.3244 73.8241 31.327C73.5781 31.3253 73.3351 31.3789 73.1138 31.4837C72.8876 31.5934 72.6918 31.7547 72.543 31.954C72.3822 32.1631 72.2567 32.4261 72.1665 32.743C72.0763 33.0599 72.0312 33.4274 72.0312 33.8454C72.0283 34.1887 72.0637 34.5312 72.1369 34.867C72.2074 35.1772 72.3159 35.4452 72.4625 35.6711C72.6007 35.8891 72.7926 36.0699 73.0206 36.197C73.2462 36.3218 73.5168 36.3841 73.8325 36.3841C74.2102 36.3841 74.5175 36.3386 74.7543 36.2476C74.9911 36.1566 75.1743 36.0706 75.304 35.9897L75.5915 37.0315C75.5066 37.0957 75.4144 37.15 75.3167 37.1933C75.1835 37.254 75.0465 37.3064 74.9065 37.3501C74.7325 37.4044 74.5543 37.445 74.3737 37.4715C74.1638 37.5027 73.9518 37.5179 73.7395 37.517ZM76.4795 37.3652V29.7188L77.5027 29.5165V32.1361C77.6299 32.0844 77.7615 32.0438 77.896 32.0147C78.0415 31.9814 78.1905 31.9645 78.34 31.9642C78.6951 31.9642 78.9897 32.0232 79.2237 32.1412C79.4527 32.2548 79.6468 32.4259 79.7861 32.6368C79.927 32.8491 80.0271 33.1037 80.0863 33.4004C80.1483 33.7273 80.178 34.0592 80.1751 34.3916V37.3653H79.1518V34.5838C79.1546 34.3419 79.139 34.1002 79.1052 33.8606C79.0742 33.6616 79.0235 33.4998 78.953 33.3751C78.89 33.2575 78.7909 33.162 78.6697 33.102C78.5513 33.0447 78.4047 33.0161 78.2299 33.0161C78.0902 33.0166 77.9511 33.0336 77.8155 33.0666C77.7093 33.0901 77.6047 33.1205 77.5027 33.1577V37.3653L76.4795 37.3652ZM82.9574 36.5056C83.2731 36.5056 83.5127 36.4854 83.6762 36.4449V35.0895C83.5961 35.0633 83.5141 35.043 83.431 35.0288C83.3138 35.0077 83.1949 34.9976 83.0758 34.9985C82.961 34.9987 82.8463 35.0088 82.7333 35.0288C82.623 35.0472 82.517 35.0849 82.4204 35.1401C82.3263 35.1951 82.249 35.2737 82.1963 35.3677C82.1398 35.4655 82.1116 35.5886 82.1116 35.7369C82.1116 36.0269 82.1877 36.2275 82.3399 36.3387C82.4922 36.45 82.698 36.5057 82.9574 36.5056ZM82.8728 31.944C83.2111 31.944 83.4958 31.9946 83.7269 32.0957C83.9463 32.1878 84.1372 32.3342 84.2809 32.5205C84.419 32.7026 84.5176 32.9234 84.5769 33.183C84.6383 33.4639 84.6681 33.7505 84.6657 34.0377V37.2439C84.5078 37.2843 84.2696 37.3332 83.9511 37.3906C83.595 37.4509 83.2341 37.4797 82.8728 37.4765C82.6273 37.479 82.3825 37.4484 82.1455 37.3855C81.9376 37.331 81.7452 37.2307 81.5831 37.0922C81.4281 36.9573 81.3069 36.782 81.2195 36.5662C81.1321 36.3504 81.0884 36.0841 81.0884 35.7672C81.0884 35.4638 81.1378 35.2075 81.2364 34.9985C81.3271 34.7996 81.4647 34.6245 81.6381 34.4877C81.8115 34.3541 82.0118 34.2576 82.2258 34.2045C82.4536 34.1466 82.6882 34.1177 82.9235 34.1185C83.0424 34.119 83.161 34.1274 83.2787 34.1438C83.4132 34.1629 83.5461 34.1917 83.6762 34.2298V34.0275C83.6768 33.8916 83.6627 33.7559 83.634 33.6229C83.6086 33.5013 83.5583 33.3861 83.486 33.2841C83.4148 33.1858 83.3186 33.1073 83.2069 33.0565C83.0913 33.0026 82.9461 32.9756 82.7713 32.9756C82.5527 32.9739 82.3345 32.9942 82.1202 33.0363C81.9549 33.0671 81.7934 33.1146 81.6381 33.1779L81.5113 32.1867C81.641 32.1327 81.8298 32.0788 82.0779 32.0248C82.339 31.9695 82.6056 31.9425 82.8728 31.944ZM88.4374 33.178C88.3229 33.1351 88.2057 33.0996 88.0864 33.0718C87.9161 33.0323 87.7414 33.0137 87.5663 33.0161C87.4454 33.017 87.3249 33.0306 87.2069 33.0566C87.1164 33.0736 87.0274 33.0972 86.9405 33.1274V37.3653H85.9173V32.3283C86.1567 32.2264 86.4042 32.1435 86.6572 32.0805C86.979 31.9998 87.3103 31.9607 87.6425 31.9642C87.7216 31.9649 87.8007 31.97 87.8792 31.9794C87.9694 31.9896 88.0596 32.0031 88.1498 32.0199C88.24 32.0367 88.3274 32.0569 88.412 32.0806C88.4808 32.099 88.5485 32.1209 88.615 32.1463L88.4374 33.178ZM89.2746 30.6798L90.2979 30.4775V32.0756H91.8709V33.0969H90.2979V35.2513C90.2979 35.6761 90.3543 35.9795 90.467 36.1616C90.5798 36.3437 90.7715 36.4347 91.0421 36.4347C91.2098 36.4374 91.3769 36.4135 91.5368 36.3639C91.6537 36.3271 91.7681 36.2832 91.8793 36.2324L92.0485 37.2033C91.8984 37.2769 91.7429 37.3394 91.5834 37.3904C91.3917 37.4544 91.1662 37.4864 90.9068 37.4864C90.5911 37.4864 90.3276 37.4358 90.1161 37.3347C89.9092 37.2375 89.7347 37.0849 89.613 36.8947C89.4889 36.7025 89.4015 36.4699 89.3508 36.1968C89.297 35.8879 89.2715 35.5748 89.2746 35.2615L89.2746 30.6798ZM92.5389 34.7456C92.5389 34.2804 92.5967 33.8724 92.7123 33.5218C92.8279 33.1711 92.9815 32.8795 93.1732 32.6469C93.3503 32.4258 93.5756 32.2461 93.8328 32.1209C94.0693 32.0056 94.3297 31.945 94.5939 31.9439C95.2028 31.9439 95.6778 32.1698 96.0189 32.6216C96.36 33.0734 96.5306 33.7476 96.5306 34.6444C96.5306 34.7119 96.5292 34.7877 96.5264 34.872C96.5235 34.9563 96.5193 35.0321 96.5137 35.0996H93.5961C93.6242 35.5244 93.7497 35.8531 93.9724 36.0858C94.1951 36.3184 94.5179 36.4347 94.9407 36.4347C95.1703 36.4369 95.3991 36.4097 95.6215 36.3538C95.8272 36.2998 95.9893 36.2425 96.1077 36.1818L96.243 37.1831C96.1688 37.2251 96.091 37.2607 96.0105 37.2894C95.9 37.33 95.787 37.3638 95.6722 37.3905C95.5454 37.4208 95.4086 37.4461 95.2621 37.4664C95.1136 37.4867 94.9638 37.4969 94.8139 37.4967C94.4248 37.4967 94.0866 37.4276 93.799 37.2894C93.5179 37.1564 93.2742 36.9585 93.0888 36.7129C92.9026 36.4668 92.7645 36.1768 92.6742 35.843C92.5809 35.4845 92.5354 35.1156 92.5389 34.7456ZM95.5073 34.1994C95.5082 34.0375 95.4883 33.8761 95.4481 33.719C95.4138 33.5788 95.3551 33.4454 95.2748 33.3245C95.2032 33.2175 95.1078 33.1276 94.9957 33.0616C94.876 32.9951 94.74 32.9619 94.6024 32.9656C94.4569 32.9624 94.3133 32.9992 94.1881 33.0718C94.0692 33.143 93.9669 33.2377 93.8878 33.3499C93.8032 33.4706 93.7389 33.6038 93.6976 33.7444C93.6524 33.893 93.6213 34.0454 93.6045 34.1995L95.5073 34.1994ZM100.133 33.1779C100.019 33.135 99.9015 33.0995 99.7822 33.0717C99.6119 33.0323 99.4372 33.0136 99.2621 33.016C99.1412 33.017 99.0207 33.0305 98.9027 33.0565C98.8122 33.0735 98.7232 33.0972 98.6363 33.1273V37.3653H97.613V32.3283C97.8525 32.2264 98.0999 32.1435 98.353 32.0805C98.6748 31.9998 99.006 31.9607 99.3382 31.9642C99.4174 31.9649 99.4964 31.97 99.575 31.9794C99.6652 31.9896 99.7554 32.0031 99.8456 32.0199C99.9358 32.0367 100.023 32.0569 100.108 32.0806C100.177 32.099 100.244 32.1209 100.311 32.1463L100.133 33.1779ZM100.776 34.7456C100.776 34.2804 100.834 33.8724 100.949 33.5218C101.065 33.1711 101.219 32.8795 101.41 32.6469C101.587 32.4258 101.813 32.2461 102.07 32.1209C102.306 32.0056 102.567 31.945 102.831 31.9439C103.44 31.9439 103.915 32.1698 104.256 32.6216C104.597 33.0734 104.768 33.7476 104.768 34.6444C104.768 34.7119 104.766 34.7877 104.763 34.872C104.761 34.9563 104.756 35.0321 104.751 35.0996H101.833C101.861 35.5244 101.987 35.8531 102.209 36.0858C102.432 36.3184 102.755 36.4347 103.178 36.4347C103.407 36.4369 103.636 36.4097 103.858 36.3538C104.064 36.2998 104.226 36.2425 104.345 36.1818L104.48 37.1831C104.406 37.2251 104.328 37.2607 104.247 37.2894C104.137 37.33 104.024 37.3638 103.909 37.3905C103.782 37.4208 103.646 37.4461 103.499 37.4664C103.35 37.4867 103.201 37.4969 103.051 37.4967C102.662 37.4967 102.323 37.4276 102.036 37.2894C101.755 37.1564 101.511 36.9585 101.326 36.7129C101.14 36.4668 101.001 36.1768 100.911 35.843C100.818 35.4845 100.772 35.1156 100.776 34.7456ZM103.744 34.1994C103.745 34.0375 103.725 33.8761 103.685 33.719C103.651 33.5788 103.592 33.4454 103.512 33.3245C103.44 33.2175 103.345 33.1276 103.233 33.0616C103.113 32.9951 102.977 32.9619 102.839 32.9656C102.694 32.9624 102.55 32.9992 102.425 33.0718C102.306 33.143 102.204 33.2377 102.125 33.3499C102.04 33.4706 101.976 33.6038 101.935 33.7444C101.889 33.893 101.858 34.0454 101.842 34.1995L103.744 34.1994ZM106.653 34.7052C106.653 35.2446 106.761 35.6677 106.975 35.9745C107.189 36.2813 107.485 36.4347 107.863 36.4347C108.003 36.4362 108.143 36.4278 108.281 36.4095C108.377 36.3966 108.472 36.378 108.565 36.3538V33.3195C108.455 33.2342 108.334 33.1644 108.205 33.1122C108.055 33.0479 107.892 33.0152 107.727 33.0162C107.355 33.0162 107.083 33.1679 106.911 33.4714C106.739 33.7748 106.654 34.1861 106.653 34.7052ZM109.588 37.2034C109.339 37.29 109.083 37.3576 108.823 37.4056C108.504 37.4674 108.179 37.4979 107.854 37.4967C107.505 37.4967 107.192 37.4326 106.916 37.3045C106.64 37.1767 106.398 36.988 106.209 36.7533C106.015 36.514 105.865 36.224 105.761 35.8835C105.657 35.543 105.605 35.1603 105.605 34.7355C105.605 34.3174 105.648 33.9381 105.736 33.5976C105.823 33.2571 105.952 32.9655 106.121 32.7227C106.278 32.4906 106.49 32.2982 106.738 32.1614C106.98 32.0299 107.26 31.9641 107.575 31.9641C107.768 31.9606 107.96 31.9915 108.142 32.0552C108.29 32.1082 108.431 32.176 108.565 32.2575V29.7188L109.588 29.5165L109.588 37.2034ZM114.569 30.2851C115.42 30.2851 116.073 30.4705 116.527 30.8415C116.981 31.2124 117.208 31.7923 117.208 32.5811C117.208 32.9924 117.147 33.3448 117.026 33.6381C116.905 33.9314 116.728 34.1708 116.497 34.3562C116.266 34.5417 115.984 34.6782 115.651 34.7659C115.319 34.8535 114.938 34.8974 114.51 34.8974H113.977V37.3653H112.911V30.4571C113.181 30.3861 113.457 30.3403 113.736 30.3206C114.038 30.297 114.315 30.2851 114.569 30.2851ZM114.645 31.3876C114.422 31.3853 114.199 31.3954 113.977 31.4179V33.8048H114.493C115.006 33.8048 115.401 33.7188 115.677 33.5469C115.953 33.375 116.091 33.0496 116.091 32.5709C116.091 32.3416 116.055 32.1494 115.981 31.9943C115.916 31.8482 115.81 31.7223 115.677 31.6302C115.538 31.5386 115.381 31.475 115.216 31.4431C115.028 31.4051 114.837 31.3864 114.645 31.3876ZM120.649 33.1778C120.535 33.1349 120.418 33.0994 120.299 33.0716C120.128 33.0322 119.953 33.0135 119.778 33.016C119.657 33.0169 119.537 33.0304 119.419 33.0564C119.328 33.0734 119.239 33.0971 119.153 33.1272V37.3653H118.129V32.3283C118.369 32.2264 118.616 32.1435 118.869 32.0805C119.191 31.9998 119.522 31.9607 119.855 31.9642C119.934 31.9649 120.013 31.97 120.091 31.9794C120.181 31.9896 120.272 32.0031 120.362 32.0199C120.452 32.0367 120.539 32.0569 120.624 32.0806C120.693 32.099 120.761 32.1209 120.827 32.1463L120.649 33.1778ZM125.537 34.7152C125.537 35.1333 125.487 35.5142 125.385 35.8581C125.284 36.202 125.14 36.4953 124.954 36.7381C124.776 36.9738 124.546 37.1674 124.282 37.3045C124.014 37.4406 123.716 37.5101 123.415 37.5068C123.115 37.5104 122.818 37.4409 122.552 37.3045C122.289 37.1665 122.061 36.973 121.884 36.7381C121.698 36.4953 121.553 36.202 121.449 35.8581C121.344 35.5142 121.292 35.1333 121.292 34.7152C121.292 34.2971 121.344 33.9179 121.449 33.5773C121.553 33.2368 121.699 32.9452 121.888 32.7024C122.067 32.4685 122.296 32.2767 122.561 32.1411C122.825 32.0085 123.118 31.9408 123.415 31.9438C123.713 31.9411 124.007 32.0088 124.273 32.1411C124.538 32.2752 124.769 32.4673 124.945 32.7024C125.132 32.9452 125.277 33.2368 125.381 33.5773C125.485 33.9179 125.538 34.2971 125.537 34.7152ZM124.489 34.7152C124.489 34.1893 124.394 33.7729 124.206 33.4661C124.017 33.1593 123.753 33.0059 123.415 33.0059C123.077 33.0059 122.813 33.1593 122.624 33.4661C122.435 33.7729 122.341 34.1893 122.341 34.7152C122.341 35.2479 122.435 35.6693 122.624 35.9795C122.813 36.2897 123.077 36.4448 123.415 36.4448C123.753 36.4448 124.017 36.2897 124.206 35.9795C124.394 35.6693 124.489 35.2478 124.489 34.7152ZM128.396 29.5166C128.607 29.5134 128.818 29.5389 129.022 29.5924C129.16 29.6286 129.296 29.6742 129.428 29.729L129.233 30.7404C129.128 30.6828 129.016 30.6386 128.899 30.6089C128.765 30.5743 128.627 30.5573 128.489 30.5584C128.325 30.5584 128.187 30.587 128.074 30.6443C127.965 30.6991 127.871 30.7811 127.804 30.882C127.732 30.9947 127.683 31.1201 127.66 31.2512C127.631 31.4063 127.617 31.5638 127.618 31.7215V32.0755H129.225V33.0969H127.618V37.3653H126.595V31.7013C126.595 31.0202 126.744 30.4859 127.043 30.0981C127.342 29.7104 127.793 29.5165 128.396 29.5166ZM129.647 34.7457C129.647 34.2804 129.705 33.8725 129.821 33.5219C129.936 33.1712 130.09 32.8796 130.282 32.647C130.459 32.4259 130.684 32.2462 130.941 32.121C131.178 32.0057 131.438 31.9451 131.702 31.944C132.311 31.944 132.786 32.1699 133.127 32.6217C133.469 33.0734 133.639 33.7477 133.639 34.6445C133.639 34.712 133.638 34.7878 133.635 34.8721C133.632 34.9564 133.628 35.0322 133.622 35.0997H130.704C130.733 35.5245 130.858 35.8532 131.081 36.0858C131.304 36.3185 131.626 36.4348 132.049 36.4347C132.279 36.437 132.508 36.4098 132.73 36.3538C132.936 36.2999 133.098 36.2426 133.216 36.1819L133.351 37.1832C133.277 37.2252 133.199 37.2607 133.119 37.2894C133.008 37.33 132.895 37.3638 132.781 37.3906C132.654 37.4209 132.517 37.4462 132.37 37.4664C132.222 37.4868 132.072 37.4969 131.922 37.4968C131.533 37.4968 131.195 37.4277 130.907 37.2895C130.626 37.1564 130.383 36.9586 130.197 36.713C130.011 36.4668 129.873 36.1769 129.783 35.8431C129.689 35.4845 129.644 35.1157 129.647 34.7457ZM132.616 34.1995C132.617 34.0376 132.597 33.8762 132.557 33.7191C132.522 33.5789 132.464 33.4455 132.383 33.3246C132.312 33.2176 132.216 33.1277 132.104 33.0616C131.985 32.9952 131.849 32.962 131.711 32.9656C131.565 32.9624 131.422 32.9991 131.297 33.0717C131.178 33.1429 131.075 33.2377 130.996 33.3498C130.912 33.4705 130.847 33.6037 130.806 33.7443C130.761 33.8929 130.73 34.0453 130.713 34.1994L132.616 34.1995ZM135.829 36.4853C136.1 36.4853 136.297 36.4465 136.421 36.369C136.545 36.2914 136.607 36.1583 136.607 35.9695C136.609 35.8871 136.592 35.8054 136.558 35.7302C136.524 35.6549 136.473 35.5881 136.408 35.5345C136.276 35.4199 136.057 35.2952 135.753 35.1603C135.577 35.0846 135.406 34.9985 135.241 34.9024C135.092 34.8161 134.957 34.7087 134.84 34.5839C134.723 34.4554 134.632 34.306 134.573 34.1439C134.509 33.9719 134.476 33.7612 134.476 33.5117C134.476 33.0262 134.625 32.6436 134.924 32.3637C135.223 32.0839 135.629 31.944 136.142 31.944C136.393 31.943 136.643 31.9719 136.886 32.03C137.123 32.0873 137.301 32.1429 137.419 32.1968L137.233 33.1881C137.096 33.1177 136.951 33.0618 136.802 33.0212C136.604 32.9676 136.398 32.942 136.193 32.9453C135.984 32.9453 135.815 32.9875 135.685 33.0718C135.556 33.156 135.491 33.2858 135.491 33.4612C135.489 33.5403 135.502 33.619 135.529 33.6938C135.557 33.7653 135.602 33.8294 135.66 33.8809C135.735 33.9472 135.817 34.0049 135.905 34.0528C136.025 34.1191 136.15 34.1783 136.277 34.2299C136.49 34.3224 136.696 34.4288 136.895 34.5484C137.053 34.6436 137.194 34.7631 137.313 34.9024C137.424 35.035 137.506 35.1881 137.554 35.3525C137.605 35.5211 137.63 35.7234 137.63 35.9594C137.63 36.4651 137.474 36.8477 137.161 37.1074C136.848 37.367 136.401 37.4968 135.821 37.4968C135.432 37.4968 135.119 37.458 134.882 37.3804C134.645 37.3029 134.479 37.2405 134.383 37.1933L134.561 36.1718C134.737 36.2554 134.92 36.3264 135.106 36.3842C135.318 36.4516 135.559 36.4853 135.829 36.4853ZM139.694 36.4853C139.965 36.4853 140.162 36.4465 140.286 36.369C140.41 36.2914 140.472 36.1583 140.472 35.9695C140.474 35.8871 140.457 35.8054 140.423 35.7302C140.388 35.6549 140.337 35.5881 140.273 35.5345C140.141 35.4199 139.922 35.2952 139.618 35.1603C139.442 35.0846 139.271 34.9985 139.106 34.9024C138.957 34.8161 138.822 34.7087 138.705 34.5839C138.587 34.4554 138.497 34.306 138.438 34.1439C138.373 33.9719 138.341 33.7612 138.341 33.5117C138.341 33.0262 138.49 32.6436 138.789 32.3637C139.088 32.0839 139.494 31.944 140.007 31.944C140.258 31.943 140.507 31.9719 140.751 32.03C140.988 32.0873 141.165 32.1429 141.284 32.1968L141.098 33.1881C140.96 33.1177 140.816 33.0618 140.666 33.0212C140.468 32.9676 140.263 32.942 140.058 32.9453C139.849 32.9453 139.68 32.9875 139.55 33.0718C139.42 33.156 139.356 33.2858 139.356 33.4612C139.354 33.5403 139.367 33.619 139.394 33.6938C139.422 33.7653 139.467 33.8294 139.525 33.8809C139.599 33.9472 139.682 34.0049 139.77 34.0528C139.89 34.1191 140.014 34.1783 140.142 34.2299C140.355 34.3224 140.561 34.4288 140.759 34.5484C140.918 34.6436 141.059 34.7631 141.178 34.9024C141.289 35.035 141.371 35.1881 141.419 35.3525C141.47 35.5211 141.495 35.7234 141.495 35.9594C141.495 36.4651 141.339 36.8477 141.026 37.1074C140.713 37.367 140.266 37.4968 139.685 37.4968C139.296 37.4968 138.984 37.458 138.747 37.3804C138.51 37.3029 138.344 37.2405 138.248 37.1933L138.425 36.1718C138.602 36.2554 138.784 36.3264 138.971 36.3842C139.182 36.4516 139.423 36.4853 139.694 36.4853ZM143.483 37.3653H142.459V32.0754H143.483V37.3653ZM143.593 30.5279C143.593 30.7572 143.531 30.9392 143.407 31.0741C143.283 31.209 143.136 31.2764 142.967 31.2764C142.792 31.2764 142.643 31.209 142.519 31.0741C142.395 30.9392 142.333 30.7572 142.333 30.5279C142.333 30.2919 142.395 30.1065 142.519 29.9716C142.643 29.8367 142.792 29.7692 142.967 29.7693C143.136 29.7693 143.283 29.8367 143.407 29.9716C143.531 30.1064 143.593 30.2919 143.593 30.5279ZM148.785 34.7153C148.785 35.1334 148.734 35.5143 148.633 35.8582C148.532 36.2021 148.388 36.4954 148.202 36.7382C148.024 36.9739 147.794 37.1675 147.529 37.3046C147.262 37.4407 146.964 37.5102 146.663 37.5069C146.362 37.5105 146.066 37.441 145.8 37.3046C145.537 37.1666 145.309 36.9731 145.132 36.7382C144.946 36.4954 144.801 36.2021 144.696 35.8582C144.592 35.5143 144.54 35.1334 144.54 34.7153C144.54 34.2972 144.592 33.9179 144.696 33.5774C144.801 33.2369 144.947 32.9453 145.136 32.7025C145.314 32.4686 145.544 32.2768 145.808 32.1412C146.072 32.0086 146.366 31.9409 146.663 31.9439C146.961 31.9412 147.255 32.0089 147.521 32.1412C147.786 32.2753 148.016 32.4674 148.193 32.7025C148.379 32.9453 148.524 33.2369 148.629 33.5774C148.733 33.918 148.785 34.2972 148.785 34.7153ZM147.737 34.7153C147.737 34.1893 147.642 33.773 147.453 33.4662C147.264 33.1594 147.001 33.0059 146.663 33.0059C146.324 33.0059 146.061 33.1594 145.872 33.4662C145.683 33.773 145.589 34.1893 145.589 34.7153C145.589 35.248 145.683 35.6694 145.872 35.9796C146.061 36.2898 146.324 36.4448 146.663 36.4449C147.001 36.4449 147.264 36.2898 147.453 35.9796C147.642 35.6694 147.737 35.248 147.737 34.7153ZM149.842 32.2474C150.04 32.1799 150.296 32.1159 150.612 32.0552C150.958 31.9918 151.309 31.9614 151.661 31.9642C152.021 31.9642 152.323 32.0232 152.565 32.1412C152.8 32.2528 153 32.424 153.145 32.6368C153.288 32.8491 153.39 33.1054 153.449 33.4055C153.511 33.7307 153.54 34.0609 153.538 34.3917V37.3653H152.515V34.5838C152.517 34.3419 152.502 34.1002 152.468 33.8606C152.437 33.6616 152.386 33.4998 152.316 33.3751C152.252 33.2566 152.151 33.161 152.028 33.102C151.907 33.0447 151.759 33.016 151.584 33.016C151.448 33.0165 151.313 33.0266 151.178 33.0464C151.037 33.0666 150.933 33.0834 150.866 33.0969V37.3653H149.842L149.842 32.2474ZM156.346 36.5055C156.661 36.5055 156.901 36.4853 157.064 36.4449V35.0895C156.984 35.0633 156.902 35.043 156.819 35.0288C156.702 35.0077 156.583 34.9976 156.464 34.9985C156.349 34.9987 156.235 35.0088 156.121 35.0288C156.011 35.0472 155.905 35.0849 155.809 35.1401C155.714 35.1951 155.637 35.2737 155.584 35.3677C155.528 35.4655 155.5 35.5886 155.5 35.7369C155.5 36.0269 155.576 36.2275 155.728 36.3387C155.88 36.45 156.086 36.5056 156.346 36.5055ZM156.261 31.9439C156.599 31.9439 156.884 31.9945 157.115 32.0956C157.334 32.1877 157.525 32.3341 157.669 32.5204C157.807 32.7025 157.906 32.9233 157.965 33.1829C158.026 33.4638 158.056 33.7504 158.054 34.0376V37.2439C157.896 37.2843 157.658 37.3332 157.339 37.3906C156.983 37.4509 156.622 37.4797 156.261 37.4765C156.015 37.479 155.771 37.4484 155.534 37.3855C155.326 37.331 155.133 37.2307 154.971 37.0922C154.816 36.9573 154.695 36.782 154.608 36.5662C154.52 36.3504 154.477 36.0841 154.477 35.7672C154.477 35.4637 154.526 35.2075 154.624 34.9985C154.715 34.7996 154.853 34.6245 155.026 34.4877C155.2 34.3541 155.4 34.2576 155.614 34.2045C155.842 34.1465 156.076 34.1176 156.312 34.1185C156.43 34.119 156.549 34.1274 156.667 34.1438C156.801 34.1629 156.934 34.1916 157.064 34.2298V34.0275C157.065 33.8915 157.051 33.7559 157.022 33.6229C156.997 33.5013 156.946 33.386 156.874 33.2841C156.803 33.1858 156.707 33.1073 156.595 33.0565C156.479 33.0026 156.334 32.9756 156.159 32.9756C155.941 32.9738 155.723 32.9942 155.508 33.0363C155.343 33.0671 155.182 33.1146 155.026 33.1779L154.899 32.1866C155.029 32.1327 155.218 32.0787 155.466 32.0248C155.727 31.9695 155.994 31.9424 156.261 31.9439ZM160.845 37.4664C160.54 37.4597 160.288 37.4192 160.088 37.345C159.888 37.2709 159.728 37.1647 159.61 37.0265C159.491 36.8883 159.408 36.7164 159.36 36.5107C159.31 36.2797 159.286 36.0439 159.289 35.8077V29.7188L160.312 29.5165V35.575C160.31 35.7004 160.32 35.8257 160.341 35.9492C160.357 36.0416 160.394 36.1295 160.447 36.2072C160.499 36.279 160.571 36.3351 160.654 36.369C160.761 36.4113 160.874 36.4402 160.988 36.4549L160.845 37.4664ZM167.728 37.3653C167.649 37.0888 167.568 36.8157 167.483 36.546C167.399 36.2763 167.317 35.9998 167.238 35.7166H164.768C164.69 35.9998 164.609 36.278 164.527 36.5511C164.446 36.8241 164.365 37.0955 164.286 37.3653H163.179C163.399 36.6168 163.607 35.9256 163.804 35.2918C164.002 34.658 164.195 34.0579 164.384 33.4914C164.573 32.925 164.76 32.3856 164.946 31.8731C165.132 31.3607 165.324 30.855 165.521 30.356H166.528C166.725 30.8549 166.917 31.3606 167.103 31.8731C167.289 32.3857 167.476 32.9251 167.665 33.4914C167.854 34.0578 168.048 34.658 168.249 35.2918C168.449 35.9257 168.659 36.6168 168.879 37.3653H167.728ZM166.003 31.7113C165.874 32.0687 165.726 32.5036 165.559 33.016C165.393 33.5285 165.219 34.0848 165.039 34.6849H166.967C166.787 34.0848 166.612 33.5251 166.443 33.0059C166.274 32.4867 166.127 32.0552 166.003 31.7113ZM169.208 34.7254C169.205 34.3544 169.257 33.9848 169.361 33.6279C169.462 33.2874 169.607 32.9924 169.796 32.7429C169.978 32.4994 170.213 32.2989 170.485 32.1563C170.756 32.0147 171.06 31.9439 171.399 31.9439C171.81 31.9425 172.216 32.0361 172.583 32.217L172.363 33.2183C172.235 33.154 172.1 33.1031 171.961 33.0666C171.805 33.0253 171.645 33.0049 171.483 33.0059C171.083 33.0059 170.778 33.156 170.57 33.456C170.361 33.7561 170.257 34.1792 170.257 34.7254C170.257 35.2513 170.356 35.6677 170.553 35.9745C170.75 36.2813 171.083 36.4347 171.551 36.4347C171.725 36.4348 171.898 36.4145 172.067 36.374C172.219 36.3396 172.366 36.2887 172.507 36.2223L172.65 37.2338C172.538 37.3012 172.367 37.3619 172.139 37.4158C171.907 37.4701 171.67 37.4973 171.433 37.4967C171.055 37.4967 170.726 37.4276 170.447 37.2895C170.172 37.1545 169.934 36.9567 169.754 36.7129C169.571 36.4668 169.434 36.1734 169.344 35.8329C169.251 35.4708 169.205 35.0987 169.208 34.7254ZM173.2 34.7254C173.197 34.3544 173.248 33.9848 173.352 33.6279C173.454 33.2874 173.599 32.9924 173.788 32.7429C173.97 32.4994 174.205 32.2989 174.477 32.1563C174.748 32.0147 175.052 31.9439 175.39 31.9439C175.801 31.9425 176.207 32.0361 176.574 32.217L176.354 33.2183C176.226 33.154 176.092 33.1031 175.953 33.0666C175.797 33.0253 175.636 33.0049 175.475 33.0059C175.074 33.0059 174.77 33.156 174.561 33.456C174.353 33.7561 174.249 34.1792 174.249 34.7254C174.249 35.2513 174.347 35.6677 174.545 35.9745C174.742 36.2813 175.075 36.4347 175.542 36.4347C175.716 36.4348 175.89 36.4145 176.058 36.374C176.21 36.3396 176.358 36.2887 176.498 36.2223L176.642 37.2338C176.529 37.3012 176.359 37.3619 176.13 37.4158C175.899 37.4701 175.662 37.4973 175.424 37.4967C175.046 37.4967 174.718 37.4276 174.439 37.2895C174.164 37.1545 173.926 36.9567 173.745 36.7129C173.562 36.4668 173.425 36.1734 173.335 35.8329C173.242 35.4708 173.197 35.0987 173.2 34.7254ZM181.344 34.7153C181.344 35.1333 181.293 35.5143 181.192 35.8582C181.09 36.2021 180.946 36.4954 180.76 36.7381C180.583 36.9739 180.353 37.1675 180.088 37.3045C179.821 37.4407 179.523 37.5102 179.221 37.5068C178.921 37.5105 178.624 37.441 178.359 37.3045C178.096 37.1666 177.867 36.9731 177.69 36.7381C177.504 36.4954 177.359 36.2021 177.255 35.8582C177.151 35.5143 177.099 35.1333 177.099 34.7153C177.099 34.2972 177.151 33.9179 177.255 33.5774C177.359 33.2369 177.506 32.9453 177.695 32.7025C177.873 32.4686 178.103 32.2767 178.367 32.1411C178.631 32.0085 178.924 31.9408 179.221 31.9439C179.519 31.9412 179.814 32.0088 180.079 32.1411C180.345 32.2753 180.575 32.4674 180.752 32.7025C180.938 32.9452 181.083 33.2369 181.187 33.5774C181.292 33.9179 181.344 34.2972 181.344 34.7153ZM180.295 34.7153C180.295 34.1893 180.201 33.7729 180.012 33.4661C179.823 33.1593 179.559 33.0059 179.221 33.0059C178.883 33.0059 178.619 33.1593 178.431 33.4661C178.242 33.7729 178.147 34.1893 178.147 34.7153C178.147 35.248 178.242 35.6694 178.431 35.9796C178.619 36.2897 178.883 36.4448 179.221 36.4448C179.559 36.4448 179.823 36.2898 180.012 35.9796C180.201 35.6694 180.295 35.2479 180.295 34.7153ZM186.029 37.2034C185.832 37.2641 185.575 37.3265 185.259 37.3905C184.917 37.4571 184.568 37.4893 184.219 37.4865C183.864 37.4865 183.567 37.4258 183.327 37.3045C183.093 37.1882 182.895 37.0138 182.752 36.7988C182.608 36.583 182.505 36.3251 182.443 36.025C182.379 35.7001 182.348 35.3697 182.35 35.0388V32.0754H183.373V34.8467C183.373 35.4131 183.442 35.8177 183.581 36.0605C183.719 36.3032 183.96 36.4246 184.304 36.4246C184.428 36.4246 184.559 36.4179 184.697 36.4044C184.801 36.3967 184.904 36.3798 185.006 36.3538V32.0754H186.029L186.029 37.2034ZM187.331 32.2474C187.529 32.1799 187.785 32.1159 188.101 32.0552C188.447 31.9918 188.798 31.9613 189.149 31.9642C189.51 31.9642 189.812 32.0232 190.054 32.1412C190.289 32.2528 190.489 32.4239 190.634 32.6368C190.777 32.8491 190.879 33.1054 190.938 33.4055C191 33.7307 191.029 34.0609 191.027 34.3916V37.3653H190.004V34.5838C190.006 34.3419 189.991 34.1002 189.957 33.8606C189.926 33.6616 189.875 33.4998 189.805 33.3751C189.741 33.2566 189.64 33.161 189.517 33.102C189.396 33.0447 189.248 33.016 189.073 33.016C188.937 33.0165 188.802 33.0266 188.667 33.0464C188.526 33.0666 188.422 33.0834 188.355 33.0969V37.3653H187.331L187.331 32.2474ZM192.228 30.6796L193.251 30.4773V32.0754H194.824V33.0969H193.251V35.2513C193.251 35.6761 193.307 35.9795 193.42 36.1616C193.533 36.3437 193.725 36.4347 193.995 36.4347C194.163 36.4374 194.33 36.4135 194.49 36.3639C194.607 36.3271 194.721 36.2832 194.832 36.2324L195.002 37.2033C194.851 37.2769 194.696 37.3394 194.536 37.3904C194.345 37.4544 194.119 37.4864 193.86 37.4864C193.544 37.4864 193.281 37.4358 193.069 37.3347C192.862 37.2375 192.688 37.0849 192.566 36.8947C192.442 36.7025 192.355 36.4699 192.304 36.1968C192.25 35.8879 192.225 35.5748 192.228 35.2615V30.6796ZM197.369 36.5055C197.685 36.5055 197.925 36.4853 198.088 36.4448V35.0895C198.008 35.0633 197.926 35.043 197.843 35.0288C197.726 35.0077 197.607 34.9976 197.488 34.9985C197.373 34.9987 197.258 35.0088 197.145 35.0288C197.035 35.0472 196.929 35.0849 196.832 35.1401C196.738 35.1951 196.661 35.2737 196.608 35.3677C196.552 35.4655 196.524 35.5886 196.524 35.7369C196.524 36.0269 196.6 36.2275 196.752 36.3387C196.904 36.45 197.11 36.5056 197.369 36.5055ZM197.285 31.9439C197.623 31.9439 197.908 31.9945 198.139 32.0956C198.358 32.1877 198.549 32.3341 198.693 32.5204C198.831 32.7025 198.93 32.9233 198.989 33.1829C199.05 33.4638 199.08 33.7504 199.078 34.0376V37.2439C198.92 37.2843 198.682 37.3332 198.363 37.3906C198.007 37.4509 197.646 37.4797 197.285 37.4765C197.039 37.479 196.794 37.4484 196.557 37.3855C196.35 37.331 196.157 37.2307 195.995 37.0922C195.84 36.9573 195.719 36.782 195.631 36.5662C195.544 36.3504 195.5 36.0841 195.5 35.7672C195.5 35.4637 195.55 35.2075 195.648 34.9985C195.739 34.7996 195.877 34.6245 196.05 34.4877C196.223 34.3541 196.424 34.2576 196.638 34.2045C196.866 34.1465 197.1 34.1176 197.335 34.1185C197.454 34.119 197.573 34.1274 197.691 34.1438C197.825 34.1629 197.958 34.1916 198.088 34.2298V34.0275C198.089 33.8915 198.075 33.7559 198.046 33.6229C198.021 33.5013 197.97 33.386 197.898 33.2841C197.827 33.1857 197.731 33.1073 197.619 33.0565C197.503 33.0026 197.358 32.9756 197.183 32.9756C196.965 32.9738 196.746 32.9942 196.532 33.0363C196.367 33.0671 196.205 33.1146 196.05 33.1779L195.923 32.1866C196.053 32.1327 196.242 32.0787 196.49 32.0248C196.751 31.9695 197.018 31.9424 197.285 31.9439ZM200.329 32.2474C200.527 32.1799 200.783 32.1159 201.099 32.0552C201.445 31.9918 201.796 31.9613 202.147 31.9642C202.508 31.9642 202.81 32.0232 203.052 32.1412C203.287 32.2528 203.487 32.4239 203.632 32.6368C203.775 32.8491 203.877 33.1054 203.936 33.4055C203.998 33.7307 204.027 34.0609 204.025 34.3916V37.3653H203.002V34.5838C203.004 34.3419 202.989 34.1002 202.955 33.8606C202.924 33.6616 202.874 33.4998 202.803 33.3751C202.739 33.2566 202.639 33.161 202.515 33.102C202.394 33.0447 202.246 33.016 202.072 33.016C201.936 33.0165 201.8 33.0266 201.666 33.0464C201.525 33.0666 201.42 33.0834 201.353 33.0969V37.3653H200.329L200.329 32.2474ZM205.226 30.6796L206.249 30.4773V32.0754H207.822V33.0969H206.249V35.2513C206.249 35.6761 206.305 35.9795 206.418 36.1616C206.531 36.3437 206.723 36.4347 206.993 36.4347C207.161 36.4374 207.328 36.4135 207.488 36.3639C207.605 36.3271 207.719 36.2832 207.83 36.2324L208 37.2033C207.849 37.2769 207.694 37.3394 207.534 37.3904C207.343 37.4544 207.117 37.4864 206.858 37.4864C206.542 37.4864 206.279 37.4358 206.067 37.3347C205.86 37.2375 205.686 37.085 205.564 36.8949C205.44 36.7028 205.353 36.4701 205.302 36.197C205.248 35.888 205.223 35.5749 205.226 35.2614L205.226 30.6796Z" fill="#1A1229"/>
</g>
<defs>
<clipPath id="clip0_101_304">
<rect width="208" height="48" fill="white"/>
</clipPath>
</defs>
</svg>
