<svg width="237" height="55" viewBox="0 0 237 55" fill="none" xmlns="http://www.w3.org/2000/svg">
<g clip-path="url(#clip0_881_5452)">
<path d="M30.5395 22.906L51.1078 0H71.2587V54.6923H0L30.5395 22.906Z" fill="#1A1229"/>
<path d="M50.8991 0H71.2587L20.3596 54.6923H0L50.8991 0Z" fill="white"/>
<path d="M56.0146 24.8598L71.2843 8.02051V54.692H56.0146V24.8598Z" fill="white"/>
<path d="M39.3012 42.6307L49.7079 31.4905V54.6924H28.6698L39.3012 42.6307Z" fill="white"/>
<path d="M92.1152 26.6299C91.9598 26.1332 91.7868 25.6227 91.5962 25.0985C91.4055 24.5742 91.2184 24.05 91.0349 23.5257H85.3148C85.1312 24.05 84.9441 24.5742 84.7534 25.0985C84.5627 25.6227 84.3897 26.1332 84.2343 26.6299H80.8024C81.3532 25.0847 81.8757 23.6568 82.3701 22.3461C82.8644 21.0355 83.3481 19.8007 83.8212 18.6418C84.2944 17.4829 84.7605 16.3827 85.2195 15.3411C85.6785 14.2995 86.1551 13.282 86.6495 12.2886H89.806C90.2862 13.2819 90.7593 14.2994 91.2254 15.341C91.6916 16.3826 92.1612 17.4829 92.6342 18.6418C93.1074 19.8007 93.5911 21.0355 94.0854 22.3462C94.5797 23.6568 95.1023 25.0847 95.6531 26.6299L92.1152 26.6299ZM88.1536 15.5377C88.083 15.7446 87.9771 16.0274 87.8358 16.3861C87.6946 16.7448 87.5321 17.1587 87.3486 17.6278C87.1649 18.0968 86.9637 18.6142 86.7448 19.1799C86.5259 19.7456 86.3034 20.3388 86.0774 20.9596H90.251C90.025 20.3388 89.8061 19.7455 89.5943 19.1799C89.3825 18.6143 89.1812 18.0969 88.9904 17.6278C88.7997 17.1588 88.6338 16.7449 88.4926 16.3861C88.3513 16.0274 88.2383 15.7446 88.1536 15.5377ZM106.5 15.7446C105.864 17.8416 105.201 19.8076 104.508 21.6425C103.816 23.4774 103.061 25.2572 102.242 26.9817C101.945 27.6025 101.649 28.1302 101.352 28.5648C101.055 28.9994 100.73 29.3581 100.377 29.641C100.025 29.9236 99.6177 30.1347 99.1804 30.2618C98.7355 30.3929 98.2165 30.4584 97.6233 30.4584C97.1642 30.4619 96.7061 30.4168 96.2569 30.3239C95.8402 30.2342 95.4978 30.1342 95.2294 30.0238L95.7802 27.5612C96.0627 27.6606 96.3533 27.7367 96.6488 27.7888C96.9149 27.8312 97.1842 27.8519 97.4539 27.851C98.0188 27.851 98.4531 27.7026 98.7567 27.406C99.0604 27.1093 99.3181 26.6988 99.5299 26.1746C98.8096 24.795 98.0893 23.2464 97.3691 21.5287C96.6488 19.811 95.9709 17.883 95.3353 15.7446H98.6826C98.8238 16.2827 98.9898 16.8656 99.1804 17.4933C99.3711 18.121 99.5724 18.7557 99.7842 19.3972C99.9961 20.0387 100.211 20.663 100.43 21.27C100.649 21.8771 100.858 22.4289 101.055 22.9256C101.239 22.4289 101.43 21.8771 101.627 21.27C101.825 20.663 102.019 20.0387 102.21 19.3972C102.401 18.7557 102.584 18.121 102.761 17.4933C102.937 16.8656 103.096 16.2827 103.237 15.7446L106.5 15.7446ZM118.321 21.1666C118.321 22.022 118.194 22.8049 117.94 23.5154C117.686 24.2259 117.318 24.8329 116.838 25.3365C116.355 25.8422 115.766 26.2409 115.112 26.5057C114.441 26.7817 113.689 26.9196 112.855 26.9196C112.036 26.9196 111.291 26.7817 110.62 26.5057C109.966 26.2409 109.377 25.8422 108.894 25.3365C108.414 24.8329 108.039 24.2259 107.771 23.5154C107.503 22.8049 107.368 22.0219 107.368 21.1666C107.368 20.3112 107.506 19.5317 107.782 18.8281C108.057 18.1245 108.438 17.5243 108.926 17.0277C109.417 16.5285 110.008 16.1339 110.663 15.8688C111.334 15.5929 112.064 15.4549 112.855 15.4549C113.66 15.4549 114.398 15.5929 115.069 15.8688C115.722 16.1323 116.31 16.5272 116.796 17.0277C117.276 17.5243 117.65 18.1245 117.919 18.8281C118.187 19.5317 118.321 20.3112 118.321 21.1666L118.321 21.1666ZM115.101 21.1666C115.101 20.2146 114.907 19.4662 114.518 18.9212C114.13 18.3763 113.576 18.1038 112.855 18.1038C112.135 18.1038 111.577 18.3762 111.182 18.9212C110.786 19.4661 110.589 20.2146 110.589 21.1665C110.589 22.1185 110.786 22.8738 111.182 23.4326C111.577 23.9913 112.135 24.2707 112.855 24.2707C113.576 24.2707 114.13 23.9913 114.518 23.4326C114.907 22.8738 115.101 22.1185 115.101 21.1666L115.101 21.1666ZM125.1 22.8222C125.1 22.2979 125.178 21.8185 125.333 21.3839C125.482 20.9629 125.692 20.5655 125.958 20.2043C126.217 19.8549 126.524 19.5416 126.869 19.273C127.212 19.0061 127.577 18.7673 127.96 18.5591C127.619 18.1549 127.314 17.7221 127.049 17.2657C126.781 16.8021 126.642 16.2774 126.647 15.7446C126.647 14.5306 127.021 13.5959 127.77 12.9405C128.518 12.2852 129.549 11.9575 130.863 11.9575C131.527 11.9575 132.106 12.0438 132.6 12.2162C133.094 12.3887 133.507 12.6232 133.839 12.9198C134.164 13.2069 134.421 13.5601 134.591 13.9545C134.763 14.3577 134.849 14.7906 134.846 15.2272C134.846 16.0688 134.602 16.8173 134.115 17.4726C133.627 18.1279 133.01 18.6763 132.261 19.1178L134.634 21.4356C134.761 21.1596 134.884 20.8113 135.005 20.3905C135.125 19.9697 135.199 19.6007 135.227 19.2834L137.854 19.6145C137.821 19.9032 137.772 20.19 137.706 20.4733C137.635 20.7837 137.547 21.0976 137.441 21.4149C137.335 21.7322 137.215 22.0495 137.081 22.3669C136.956 22.6657 136.811 22.956 136.646 23.236C137.116 23.7547 137.558 24.297 137.97 24.8606C138.386 25.4224 138.757 26.0139 139.083 26.6299H135.841C135.728 26.4506 135.573 26.2264 135.375 25.9574C135.197 25.711 134.999 25.4792 134.782 25.2641C134.217 25.7056 133.56 26.0746 132.812 26.3712C132.063 26.6678 131.223 26.8162 130.291 26.8162C129.302 26.8162 128.476 26.6955 127.812 26.4541C127.148 26.2126 126.615 25.9022 126.213 25.5228C125.81 25.1434 125.524 24.7157 125.355 24.2397C125.189 23.7845 125.103 23.3053 125.1 22.8221L125.1 22.8222ZM128.045 22.5117C128.048 22.7313 128.091 22.9486 128.172 23.1532C128.263 23.3834 128.404 23.5917 128.585 23.7637C128.776 23.95 129.02 24.1017 129.316 24.219C129.613 24.3363 129.973 24.3949 130.397 24.3949C130.99 24.3949 131.509 24.319 131.954 24.1673C132.399 24.0155 132.769 23.8155 133.066 23.5671L129.676 20.2353C129.472 20.3359 129.277 20.4536 129.094 20.5871C128.901 20.7274 128.726 20.8908 128.575 21.0734C128.417 21.2644 128.288 21.477 128.193 21.7046C128.095 21.9391 128.045 22.2082 128.045 22.5117L128.045 22.5117ZM132.155 15.3721C132.157 15.0611 132.045 14.7598 131.837 14.5237C131.625 14.2753 131.272 14.1512 130.778 14.1512C130.326 14.1512 129.977 14.2857 129.729 14.5547C129.482 14.8237 129.359 15.1721 129.359 15.5998C129.359 15.9585 129.465 16.3068 129.676 16.6448C129.904 17.0017 130.183 17.3257 130.503 17.6071C130.937 17.3725 131.33 17.0721 131.668 16.7172C131.993 16.3723 132.155 15.924 132.155 15.3721L132.155 15.3721ZM152.768 26.9197C150.381 26.9197 148.563 26.2712 147.313 24.9744C146.063 23.6775 145.438 21.8357 145.438 19.449C145.438 18.2625 145.629 17.2036 146.01 16.2724C146.391 15.3411 146.914 14.5547 147.578 13.9131C148.242 13.2716 149.033 12.7853 149.951 12.4542C150.869 12.1231 151.864 11.9575 152.938 11.9575C153.559 11.9575 154.124 12.0024 154.632 12.092C155.084 12.1683 155.529 12.2719 155.967 12.4025C156.348 12.5197 156.666 12.6405 156.92 12.7646C157.175 12.8888 157.358 12.9854 157.471 13.0543L156.518 15.6619C156.066 15.4273 155.54 15.2273 154.94 15.0617C154.339 14.8961 153.658 14.8134 152.895 14.8134C152.387 14.8134 151.882 14.8974 151.402 15.0617C150.914 15.2274 150.472 15.4999 150.109 15.8584C149.735 16.2241 149.435 16.6966 149.209 17.276C148.983 17.8555 148.87 18.5591 148.87 19.3869C148.87 20.0491 148.944 20.6664 149.093 21.2389C149.241 21.8114 149.481 22.3046 149.813 22.7186C150.145 23.1325 150.579 23.4601 151.116 23.7016C151.652 23.943 152.302 24.0637 153.065 24.0637C153.497 24.0669 153.929 24.0392 154.357 23.981C154.699 23.9334 155.039 23.8677 155.374 23.7844C155.642 23.7181 155.904 23.6316 156.158 23.5257C156.384 23.4291 156.588 23.3394 156.772 23.2567L157.683 25.8435C157.217 26.1194 156.56 26.3677 155.713 26.5885C154.865 26.8092 153.884 26.9196 152.768 26.9196L152.768 26.9197ZM169.759 21.1666C169.759 22.022 169.632 22.8049 169.377 23.5154C169.123 24.2259 168.756 24.833 168.276 25.3365C167.792 25.8423 167.203 26.241 166.549 26.5058C165.878 26.7817 165.126 26.9197 164.293 26.9197C163.474 26.9197 162.729 26.7817 162.058 26.5058C161.403 26.241 160.815 25.8423 160.331 25.3365C159.851 24.833 159.477 24.2259 159.208 23.5154C158.94 22.8049 158.806 22.022 158.806 21.1666C158.806 20.3112 158.944 19.5318 159.219 18.8281C159.494 18.1245 159.876 17.5244 160.363 17.0277C160.854 16.5285 161.446 16.134 162.1 15.8688C162.771 15.5929 163.502 15.4549 164.293 15.4549C165.098 15.4549 165.836 15.5929 166.507 15.8688C167.159 16.1324 167.747 16.5273 168.233 17.0277C168.713 17.5244 169.088 18.1245 169.356 18.8281C169.625 19.5318 169.759 20.3112 169.759 21.1666L169.759 21.1666ZM166.538 21.1666C166.538 20.2147 166.344 19.4662 165.956 18.9213C165.568 18.3763 165.013 18.1038 164.293 18.1038C163.573 18.1038 163.015 18.3763 162.619 18.9213C162.224 19.4662 162.026 20.2147 162.026 21.1666C162.026 22.1186 162.224 22.8739 162.619 23.4327C163.015 23.9914 163.573 24.2708 164.293 24.2708C165.013 24.2708 165.568 23.9914 165.956 23.4327C166.344 22.8739 166.538 22.1185 166.538 21.1666L166.538 21.1666ZM178.317 20.8562C178.317 19.8629 178.187 19.1592 177.925 18.7454C177.664 18.3315 177.216 18.1245 176.58 18.1245C176.382 18.1245 176.178 18.1349 175.966 18.1556C175.754 18.1763 175.549 18.2004 175.351 18.228V26.6299H172.195V16.117C172.463 16.0481 172.777 15.9756 173.138 15.8997C173.498 15.8239 173.879 15.7549 174.282 15.6928C174.684 15.6307 175.097 15.5824 175.521 15.5479C175.945 15.5135 176.361 15.4962 176.771 15.4962C177.576 15.4962 178.229 15.5962 178.731 15.7963C179.232 15.9963 179.645 16.2343 179.97 16.5102C180.422 16.1929 180.941 15.9446 181.527 15.7652C182.113 15.5859 182.653 15.4962 183.148 15.4962C184.037 15.4962 184.768 15.6169 185.34 15.8584C185.912 16.0998 186.368 16.4413 186.707 16.8827C187.046 17.3242 187.279 17.8485 187.406 18.4555C187.533 19.0626 187.597 19.7386 187.597 20.4836V26.6299H184.44V20.8561C184.44 19.8628 184.309 19.1592 184.048 18.7453C183.787 18.3314 183.338 18.1245 182.703 18.1245C182.533 18.1245 182.297 18.1659 181.993 18.2487C181.689 18.3314 181.439 18.4349 181.241 18.5591C181.342 18.8858 181.406 19.2223 181.432 19.5627C181.46 19.9145 181.474 20.2904 181.474 20.6905V26.6299H178.317L178.317 20.8562ZM197.596 21.2701C197.596 20.3181 197.377 19.5559 196.939 18.9833C196.501 18.4108 195.852 18.1245 194.99 18.1245C194.708 18.1245 194.446 18.1349 194.206 18.1556C193.966 18.1763 193.768 18.2004 193.613 18.228V23.7948C193.811 23.919 194.069 24.0225 194.386 24.1053C194.701 24.1876 195.025 24.2293 195.35 24.2294C196.847 24.2294 197.596 23.2429 197.596 21.27L197.596 21.2701ZM200.816 21.1873C200.816 22.0289 200.71 22.7946 200.498 23.4844C200.286 24.1742 199.976 24.7674 199.566 25.2641C199.157 25.7607 198.634 26.1575 198.041 26.423C197.433 26.6988 196.734 26.8367 195.943 26.8367C195.53 26.8393 195.118 26.7976 194.715 26.7126C194.337 26.6308 193.968 26.513 193.613 26.3608V30.4584H190.456V16.117C190.739 16.0343 191.064 15.9549 191.431 15.8791C191.798 15.8032 192.183 15.7377 192.586 15.6825C192.988 15.6273 193.398 15.5824 193.814 15.5479C194.231 15.5135 194.63 15.4962 195.011 15.4962C195.929 15.4962 196.748 15.6307 197.469 15.8998C198.189 16.1688 198.796 16.5482 199.291 17.038C199.785 17.5277 200.163 18.1244 200.424 18.828C200.685 19.5317 200.816 20.3181 200.816 21.1872L200.816 21.1873ZM207.51 24.4777C207.821 24.4777 208.118 24.4708 208.4 24.457C208.627 24.4485 208.854 24.4277 209.078 24.3949V22.0564C208.951 22.0288 208.76 22.0012 208.506 21.9736C208.274 21.9473 208.041 21.9335 207.807 21.9322C207.527 21.9312 207.248 21.9485 206.97 21.984C206.731 22.0121 206.499 22.0785 206.282 22.1806C206.094 22.2691 205.933 22.4048 205.816 22.5738C205.703 22.7394 205.646 22.9463 205.646 23.1947C205.646 23.6775 205.812 24.0121 206.144 24.1983C206.476 24.3846 206.931 24.4777 207.51 24.4777L207.51 24.4777ZM207.256 15.4549C208.188 15.4549 208.965 15.5584 209.587 15.7653C210.208 15.9723 210.706 16.2689 211.08 16.6552C211.454 17.0415 211.719 17.5106 211.875 18.0625C212.03 18.6143 212.108 19.2283 212.108 19.9043V26.3195C211.656 26.416 211.027 26.5299 210.222 26.6609C209.417 26.792 208.443 26.8575 207.299 26.8575C206.578 26.8575 205.925 26.7954 205.339 26.6713C204.753 26.5471 204.248 26.3436 203.824 26.0608C203.405 25.7826 203.068 25.4005 202.85 24.9536C202.624 24.4984 202.511 23.9396 202.511 23.2774C202.511 22.6428 202.641 22.1047 202.903 21.6632C203.155 21.2305 203.516 20.8674 203.951 20.6078C204.389 20.3457 204.891 20.156 205.455 20.0387C206.034 19.9201 206.623 19.8611 207.214 19.8628C207.578 19.8606 207.942 19.8779 208.305 19.9145C208.623 19.949 208.88 19.9939 209.078 20.0491V19.7593C209.078 19.2351 208.916 18.8143 208.591 18.497C208.266 18.1796 207.701 18.021 206.896 18.021C206.364 18.0206 205.833 18.0587 205.307 18.1348C204.784 18.2107 204.332 18.3176 203.951 18.4555L203.549 15.9722C203.732 15.917 203.962 15.8583 204.237 15.7963C204.513 15.7342 204.813 15.679 205.138 15.6307C205.462 15.5824 205.805 15.541 206.165 15.5065C206.525 15.472 206.889 15.4548 207.256 15.4549L207.256 15.4549ZM214.968 16.117C215.504 15.9653 216.196 15.8239 217.044 15.6928C217.927 15.5591 218.819 15.4933 219.713 15.4962C220.659 15.4962 221.447 15.6169 222.075 15.8584C222.704 16.0998 223.202 16.4413 223.569 16.8828C223.936 17.3242 224.197 17.8485 224.353 18.4555C224.508 19.0626 224.586 19.7386 224.586 20.4836V26.6299H221.429V20.8561C221.429 19.8628 221.295 19.1592 221.027 18.7453C220.758 18.3314 220.257 18.1245 219.522 18.1245C219.296 18.1245 219.056 18.1348 218.802 18.1555C218.548 18.1762 218.322 18.2004 218.124 18.228V26.6299H214.968V16.117ZM237 15.7445C236.365 17.8416 235.701 19.8076 235.009 21.6425C234.317 23.4774 233.561 25.2571 232.742 26.9817C232.445 27.6025 232.149 28.1302 231.852 28.5648C231.556 28.9994 231.231 29.3581 230.878 29.641C230.525 29.9236 230.118 30.1347 229.681 30.2618C229.236 30.3929 228.717 30.4584 228.124 30.4584C227.664 30.4619 227.206 30.4168 226.757 30.3239C226.34 30.2342 225.998 30.1342 225.73 30.0238L226.28 27.5612C226.563 27.6606 226.854 27.7367 227.149 27.7888C227.415 27.8312 227.684 27.8519 227.954 27.851C228.519 27.851 228.953 27.7026 229.257 27.406C229.561 27.1093 229.818 26.6989 230.03 26.1746C229.31 24.795 228.59 23.2464 227.869 21.5287C227.149 19.8111 226.471 17.883 225.836 15.7446H229.183C229.324 16.2827 229.49 16.8656 229.681 17.4933C229.871 18.121 230.072 18.7557 230.284 19.3972C230.496 20.0387 230.712 20.663 230.93 21.27C231.149 21.8771 231.358 22.4289 231.555 22.9256C231.739 22.4289 231.93 21.8771 232.127 21.27C232.325 20.663 232.519 20.0387 232.71 19.3972C232.901 18.7557 233.084 18.121 233.261 17.4933C233.437 16.8656 233.596 16.2827 233.738 15.7446L237 15.7445Z" fill="white"/>
<path d="M84.0205 42.7475C83.5194 42.7475 83.0698 42.6553 82.6715 42.4709C82.2713 42.285 81.9239 42.006 81.6597 41.6584C81.3835 41.3012 81.1715 40.8652 81.0238 40.3504C80.876 39.8356 80.8021 39.244 80.8021 38.5756C80.8021 37.9072 80.8872 37.3156 81.0574 36.8008C81.2277 36.2861 81.4605 35.85 81.756 35.4928C82.0352 35.1482 82.3911 34.8704 82.7967 34.6803C83.1973 34.4954 83.6352 34.4009 84.0783 34.4037C84.3309 34.4013 84.583 34.4264 84.8299 34.4786C85.0295 34.5213 85.2259 34.5771 85.4177 34.6457C85.5625 34.6966 85.7014 34.7622 85.8321 34.8416C85.9413 34.9108 86.0184 34.9607 86.0634 34.9915L85.7068 36.1785C85.5527 36.0632 85.3326 35.9537 85.0468 35.85C84.7488 35.7443 84.4339 35.6916 84.1169 35.6944C83.8367 35.6925 83.5598 35.7536 83.3076 35.8731C83.0499 35.998 82.8268 36.1819 82.6572 36.409C82.4741 36.6471 82.3311 36.9468 82.2283 37.3079C82.1254 37.669 82.074 38.0877 82.0741 38.5641C82.0708 38.9552 82.1112 39.3455 82.1945 39.7281C82.2748 40.0815 82.3985 40.3869 82.5655 40.6443C82.723 40.8927 82.9416 41.0987 83.2015 41.2435C83.4584 41.3857 83.7668 41.4567 84.1265 41.4567C84.5569 41.4567 84.907 41.4049 85.1768 41.3012C85.4466 41.1974 85.6554 41.0995 85.8032 41.0073L86.1308 42.1943C86.0341 42.2675 85.929 42.3293 85.8176 42.3787C85.6659 42.4479 85.5098 42.5075 85.3503 42.5573C85.152 42.6192 84.949 42.6654 84.7432 42.6957C84.5041 42.7313 84.2624 42.7486 84.0205 42.7475ZM87.1425 42.5746V33.8621L88.3085 33.6316V36.6164C88.4534 36.5575 88.6033 36.5112 88.7566 36.4781C88.9224 36.4402 89.0921 36.4209 89.2624 36.4205C89.6671 36.4205 90.0028 36.4877 90.2694 36.6222C90.5304 36.7517 90.7515 36.9466 90.9102 37.1869C91.0708 37.4288 91.1848 37.7189 91.2522 38.057C91.3229 38.4294 91.3568 38.8076 91.3534 39.1864V42.5746H90.1875V39.4054C90.1906 39.1298 90.1729 38.8543 90.1344 38.5813C90.0991 38.3546 90.0413 38.1703 89.961 38.0281C89.8891 37.8941 89.7763 37.7854 89.6381 37.717C89.5032 37.6517 89.3362 37.6191 89.1371 37.6191C88.9779 37.6197 88.8194 37.639 88.6649 37.6767C88.5438 37.7034 88.4247 37.738 88.3084 37.7804V42.5746L87.1425 42.5746ZM94.5236 41.5951C94.8833 41.5951 95.1563 41.5721 95.3427 41.526V39.9816C95.2514 39.9517 95.158 39.9286 95.0632 39.9125C94.9298 39.8884 94.7943 39.8768 94.6586 39.8779C94.5277 39.8781 94.3971 39.8897 94.2683 39.9125C94.1426 39.9334 94.0219 39.9763 93.9118 40.0393C93.8046 40.102 93.7164 40.1915 93.6565 40.2985C93.5921 40.41 93.5599 40.5502 93.5599 40.7193C93.5599 41.0497 93.6466 41.2782 93.8201 41.405C93.9935 41.5318 94.2281 41.5952 94.5236 41.5951ZM94.4273 36.3975C94.8127 36.3975 95.1371 36.4552 95.4005 36.5704C95.6504 36.6753 95.868 36.8422 96.0316 37.0544C96.189 37.2619 96.3014 37.5135 96.3689 37.8093C96.4389 38.1293 96.4729 38.4559 96.4701 38.7831V42.4363C96.2902 42.4824 96.0188 42.5381 95.6558 42.6035C95.2502 42.6723 94.839 42.7051 94.4273 42.7014C94.1475 42.7042 93.8686 42.6693 93.5986 42.5977C93.3616 42.5357 93.1424 42.4213 92.9578 42.2635C92.7811 42.1098 92.643 41.91 92.5434 41.6642C92.4439 41.4183 92.3941 41.1149 92.3941 40.7538C92.3941 40.408 92.4503 40.1161 92.5627 39.8779C92.666 39.6513 92.8229 39.4518 93.0204 39.2959C93.218 39.1437 93.4462 39.0338 93.6901 38.9732C93.9497 38.9072 94.2169 38.8743 94.4851 38.8753C94.6205 38.8757 94.7557 38.8854 94.8897 38.9041C95.043 38.9258 95.1944 38.9586 95.3427 39.002V38.7715C95.3434 38.6166 95.3272 38.4621 95.2945 38.3105C95.2657 38.172 95.2083 38.0407 95.1259 37.9245C95.0449 37.8124 94.9352 37.723 94.8079 37.6652C94.6762 37.6037 94.5108 37.573 94.3117 37.573C94.0626 37.571 93.8139 37.5941 93.5697 37.6421C93.3814 37.6773 93.1974 37.7313 93.0204 37.8034L92.8759 36.674C93.0237 36.6125 93.2389 36.5511 93.5215 36.4896C93.8191 36.4266 94.1228 36.3958 94.4273 36.3975ZM100.768 37.8035C100.637 37.7547 100.504 37.7142 100.368 37.6825C100.174 37.6376 99.9746 37.6163 99.7752 37.6191C99.6374 37.6201 99.5001 37.6356 99.3657 37.6652C99.2625 37.6846 99.1611 37.7116 99.0621 37.7459V42.5746H97.8962V36.8354C98.169 36.7192 98.451 36.6248 98.7393 36.553C99.106 36.4611 99.4834 36.4166 99.8619 36.4205C99.9521 36.4213 100.042 36.4272 100.132 36.4379C100.234 36.4495 100.337 36.4649 100.44 36.484C100.543 36.5031 100.642 36.5262 100.739 36.5531C100.817 36.5741 100.894 36.5991 100.97 36.628L100.768 37.8035ZM101.722 34.957L102.888 34.7265V36.5474H104.68V37.7112H102.888V40.1659C102.888 40.65 102.952 40.9957 103.08 41.2032C103.209 41.4106 103.427 41.5143 103.736 41.5143C103.927 41.5174 104.117 41.4902 104.299 41.4337C104.432 41.3918 104.563 41.3417 104.689 41.2838L104.882 42.3901C104.711 42.4739 104.534 42.5452 104.352 42.6033C104.134 42.6762 103.877 42.7127 103.581 42.7127C103.222 42.7127 102.921 42.6551 102.68 42.5398C102.445 42.429 102.246 42.2552 102.107 42.0385C101.966 41.8195 101.866 41.5544 101.808 41.2433C101.747 40.8913 101.718 40.5346 101.722 40.1775L101.722 34.957ZM105.441 39.5898C105.441 39.0596 105.507 38.5948 105.639 38.1953C105.77 37.7958 105.945 37.4635 106.164 37.1984C106.366 36.9465 106.622 36.7418 106.915 36.5991C107.185 36.4677 107.481 36.3987 107.783 36.3974C108.476 36.3974 109.018 36.6548 109.406 37.1696C109.795 37.6843 109.989 38.4526 109.989 39.4745C109.989 39.5513 109.988 39.6377 109.984 39.7338C109.981 39.8298 109.976 39.9162 109.97 39.9931H106.646C106.678 40.4771 106.821 40.8517 107.074 41.1167C107.328 41.3818 107.696 41.5144 108.178 41.5143C108.439 41.5169 108.7 41.4859 108.953 41.4221C109.188 41.3607 109.373 41.2953 109.507 41.2262L109.662 42.3671C109.577 42.415 109.488 42.4554 109.397 42.4882C109.271 42.5345 109.142 42.573 109.011 42.6034C108.867 42.638 108.711 42.6668 108.544 42.6898C108.375 42.713 108.204 42.7246 108.033 42.7244C107.59 42.7244 107.204 42.6457 106.877 42.4883C106.557 42.3366 106.279 42.1112 106.068 41.8313C105.855 41.5509 105.698 41.2205 105.595 40.8402C105.489 40.4316 105.437 40.0113 105.441 39.5898ZM108.823 38.9674C108.824 38.7829 108.802 38.599 108.756 38.42C108.717 38.2603 108.65 38.1083 108.558 37.9705C108.477 37.8486 108.368 37.7462 108.24 37.6709C108.104 37.5952 107.949 37.5573 107.792 37.5615C107.626 37.5579 107.463 37.5998 107.32 37.6825C107.185 37.7637 107.068 37.8716 106.978 37.9995C106.882 38.1369 106.808 38.2887 106.761 38.4489C106.71 38.6183 106.674 38.7919 106.655 38.9675L108.823 38.9674ZM114.094 37.8035C113.964 37.7546 113.83 37.7141 113.694 37.6824C113.5 37.6375 113.301 37.6162 113.102 37.619C112.964 37.6201 112.827 37.6355 112.692 37.6651C112.589 37.6845 112.488 37.7115 112.389 37.7458V42.5746H111.223V36.8354C111.495 36.7192 111.777 36.6248 112.066 36.553C112.432 36.4611 112.81 36.4166 113.188 36.4205C113.279 36.4213 113.369 36.4272 113.458 36.4379C113.561 36.4495 113.664 36.4649 113.766 36.484C113.869 36.5031 113.969 36.5262 114.065 36.5531C114.144 36.5741 114.221 36.5991 114.296 36.628L114.094 37.8035ZM114.826 39.5898C114.826 39.0596 114.892 38.5948 115.024 38.1953C115.156 37.7958 115.331 37.4635 115.549 37.1984C115.751 36.9465 116.008 36.7418 116.301 36.5991C116.57 36.4677 116.867 36.3987 117.168 36.3974C117.862 36.3974 118.403 36.6548 118.792 37.1696C119.18 37.6843 119.375 38.4526 119.375 39.4745C119.375 39.5513 119.373 39.6377 119.37 39.7338C119.367 39.8298 119.362 39.9162 119.355 39.9931H116.031C116.063 40.4771 116.206 40.8517 116.46 41.1167C116.713 41.3818 117.081 41.5144 117.563 41.5143C117.825 41.5169 118.085 41.4859 118.339 41.4221C118.573 41.3607 118.758 41.2953 118.893 41.2262L119.047 42.3671C118.962 42.415 118.874 42.4554 118.782 42.4882C118.656 42.5345 118.527 42.573 118.397 42.6034C118.252 42.638 118.096 42.6668 117.929 42.6898C117.76 42.713 117.589 42.7246 117.419 42.7244C116.975 42.7244 116.59 42.6457 116.262 42.4883C115.942 42.3366 115.664 42.1112 115.453 41.8313C115.241 41.5509 115.083 41.2205 114.981 40.8402C114.874 40.4316 114.823 40.0113 114.826 39.5898ZM118.209 38.9674C118.21 38.7829 118.187 38.599 118.141 38.42C118.102 38.2603 118.035 38.1083 117.944 37.9705C117.862 37.8486 117.753 37.7462 117.626 37.6709C117.489 37.5952 117.334 37.5573 117.178 37.5615C117.012 37.5579 116.848 37.5998 116.706 37.6825C116.57 37.7637 116.454 37.8716 116.363 37.9995C116.267 38.1369 116.194 38.2887 116.147 38.4489C116.095 38.6183 116.06 38.7919 116.041 38.9675L118.209 38.9674ZM121.523 39.5437C121.523 40.1583 121.646 40.6404 121.89 40.99C122.134 41.3396 122.471 41.5144 122.901 41.5144C123.061 41.5161 123.22 41.5065 123.378 41.4856C123.487 41.4709 123.595 41.4498 123.701 41.4222V37.9648C123.577 37.8676 123.439 37.7881 123.292 37.7286C123.12 37.6554 122.935 37.6181 122.747 37.6192C122.323 37.6192 122.013 37.7921 121.817 38.1378C121.621 38.4836 121.524 38.9522 121.523 39.5437ZM124.867 42.3902C124.583 42.4889 124.291 42.5659 123.995 42.6207C123.632 42.6911 123.262 42.7258 122.892 42.7244C122.493 42.7244 122.137 42.6514 121.822 42.5054C121.508 42.3598 121.232 42.1448 121.017 41.8774C120.796 41.6046 120.626 41.2743 120.507 40.8863C120.388 40.4983 120.329 40.0623 120.329 39.5782C120.329 39.1019 120.378 38.6697 120.478 38.2817C120.578 37.8937 120.724 37.5614 120.916 37.2848C121.096 37.0203 121.337 36.8011 121.62 36.6452C121.896 36.4954 122.214 36.4205 122.574 36.4205C122.794 36.4165 123.012 36.4516 123.219 36.5242C123.388 36.5847 123.549 36.6619 123.701 36.7547V33.8621L124.867 33.6316L124.867 42.3902ZM130.543 34.5073C131.513 34.5073 132.256 34.7186 132.773 35.1413C133.29 35.5639 133.549 36.2246 133.549 37.1235C133.549 37.5921 133.48 37.9936 133.342 38.3278C133.204 38.662 133.003 38.9348 132.74 39.1461C132.476 39.3574 132.155 39.5129 131.776 39.6128C131.397 39.7127 130.963 39.7627 130.475 39.7627H129.868V42.5746H128.654V34.7033C128.961 34.6224 129.276 34.5703 129.593 34.5478C129.937 34.5209 130.254 34.5073 130.543 34.5073ZM130.629 35.7635C130.375 35.7609 130.121 35.7724 129.868 35.7981V38.5178H130.456C131.041 38.5178 131.49 38.4198 131.805 38.2239C132.12 38.028 132.277 37.6573 132.277 37.1118C132.277 36.8506 132.235 36.6316 132.152 36.4549C132.077 36.2884 131.957 36.145 131.805 36.04C131.646 35.9356 131.468 35.8631 131.28 35.8268C131.066 35.7834 130.848 35.7622 130.629 35.7635ZM137.471 37.8034C137.34 37.7545 137.207 37.714 137.071 37.6823C136.877 37.6374 136.678 37.6161 136.478 37.6189C136.341 37.62 136.203 37.6354 136.069 37.665C135.966 37.6844 135.864 37.7114 135.765 37.7457V42.5746H134.599V36.8354C134.872 36.7192 135.154 36.6248 135.442 36.553C135.809 36.4611 136.187 36.4166 136.565 36.4205C136.655 36.4213 136.745 36.4272 136.835 36.4379C136.938 36.4495 137.04 36.4649 137.143 36.484C137.246 36.5031 137.346 36.5262 137.442 36.5531C137.52 36.5741 137.597 36.5991 137.673 36.628L137.471 37.8034ZM143.04 39.5551C143.04 40.0315 142.983 40.4655 142.867 40.8574C142.751 41.2492 142.588 41.5834 142.376 41.86C142.173 42.1286 141.911 42.3492 141.609 42.5054C141.305 42.6605 140.965 42.7397 140.622 42.7359C140.28 42.74 139.942 42.6608 139.639 42.5054C139.339 42.3482 139.079 42.1277 138.878 41.86C138.666 41.5834 138.5 41.2492 138.381 40.8574C138.263 40.4655 138.203 40.0315 138.203 39.5551C138.203 39.0788 138.263 38.6466 138.381 38.2586C138.5 37.8706 138.667 37.5383 138.883 37.2617C139.086 36.9952 139.347 36.7766 139.649 36.6221C139.949 36.471 140.283 36.3939 140.622 36.3973C140.962 36.3942 141.297 36.4713 141.6 36.6221C141.902 36.7749 142.164 36.9938 142.366 37.2617C142.578 37.5383 142.743 37.8706 142.862 38.2586C142.981 38.6466 143.04 39.0787 143.04 39.5551ZM141.846 39.5551C141.846 38.9558 141.738 38.4814 141.523 38.1318C141.308 37.7822 141.007 37.6074 140.622 37.6074C140.236 37.6074 139.936 37.7822 139.721 38.1318C139.506 38.4814 139.398 38.9558 139.398 39.5551C139.398 40.1621 139.506 40.6423 139.721 40.9957C139.936 41.3491 140.236 41.5258 140.622 41.5258C141.007 41.5258 141.308 41.3491 141.523 40.9957C141.738 40.6422 141.846 40.162 141.846 39.5551ZM146.297 33.6317C146.538 33.628 146.778 33.6571 147.01 33.7181C147.168 33.7593 147.323 33.8113 147.473 33.8737L147.251 35.0261C147.131 34.9605 147.003 34.9101 146.871 34.8763C146.718 34.8369 146.561 34.8175 146.403 34.8187C146.217 34.8187 146.06 34.8513 145.931 34.9166C145.806 34.9791 145.7 35.0725 145.623 35.1875C145.54 35.3159 145.485 35.4588 145.459 35.6081C145.426 35.7849 145.41 35.9643 145.411 36.144V36.5474H147.242V37.7112H145.411V42.5746H144.245V36.1209C144.245 35.345 144.415 34.7361 144.755 34.2943C145.096 33.8525 145.61 33.6316 146.297 33.6317ZM147.723 39.5899C147.723 39.0597 147.789 38.5949 147.921 38.1954C148.053 37.7959 148.228 37.4636 148.446 37.1985C148.648 36.9466 148.905 36.7419 149.198 36.5992C149.467 36.4678 149.764 36.3988 150.065 36.3975C150.759 36.3975 151.3 36.6549 151.689 37.1697C152.077 37.6844 152.272 38.4527 152.271 39.4746C152.271 39.5514 152.27 39.6378 152.267 39.7339C152.263 39.8299 152.259 39.9163 152.252 39.9932H148.928C148.96 40.4772 149.103 40.8518 149.357 41.1168C149.61 41.3819 149.978 41.5144 150.46 41.5144C150.722 41.5169 150.982 41.4859 151.236 41.4222C151.47 41.3607 151.655 41.2954 151.79 41.2263L151.944 42.3672C151.859 42.415 151.771 42.4555 151.679 42.4882C151.553 42.5345 151.424 42.573 151.293 42.6035C151.149 42.638 150.993 42.6668 150.826 42.6899C150.657 42.7131 150.486 42.7246 150.315 42.7245C149.872 42.7245 149.487 42.6458 149.159 42.4883C148.839 42.3367 148.561 42.1112 148.35 41.8314C148.138 41.551 147.98 41.2206 147.878 40.8403C147.771 40.4317 147.719 40.0114 147.723 39.5899ZM151.106 38.9675C151.107 38.783 151.084 38.5991 151.038 38.4201C150.999 38.2604 150.932 38.1084 150.841 37.9706C150.759 37.8487 150.65 37.7463 150.523 37.671C150.386 37.5953 150.231 37.5574 150.075 37.5616C149.909 37.5579 149.745 37.5998 149.602 37.6824C149.467 37.7636 149.35 37.8715 149.26 37.9994C149.164 38.1368 149.091 38.2886 149.044 38.4488C148.992 38.6182 148.957 38.7918 148.938 38.9674L151.106 38.9675ZM154.767 41.572C155.075 41.572 155.3 41.5278 155.442 41.4395C155.583 41.3511 155.653 41.1994 155.654 40.9842C155.656 40.8904 155.637 40.7973 155.597 40.7116C155.558 40.6259 155.5 40.5497 155.427 40.4887C155.276 40.3581 155.027 40.2159 154.68 40.0623C154.48 39.976 154.285 39.8779 154.097 39.7684C153.927 39.67 153.773 39.5477 153.64 39.4054C153.506 39.2591 153.403 39.0888 153.336 38.9041C153.262 38.7082 153.225 38.4681 153.225 38.1838C153.225 37.6306 153.395 37.1946 153.736 36.8758C154.076 36.5569 154.539 36.3975 155.123 36.3975C155.409 36.3964 155.694 36.4293 155.971 36.4955C156.241 36.5608 156.444 36.6242 156.579 36.6856L156.367 37.815C156.21 37.7349 156.045 37.6712 155.875 37.6249C155.649 37.5638 155.416 37.5347 155.181 37.5384C154.944 37.5384 154.751 37.5865 154.603 37.6825C154.455 37.7786 154.382 37.9265 154.382 38.1262C154.38 38.2164 154.395 38.3061 154.425 38.3913C154.457 38.4727 154.508 38.5457 154.574 38.6045C154.659 38.68 154.753 38.7458 154.854 38.8004C154.991 38.8759 155.132 38.9433 155.278 39.0021C155.52 39.1075 155.755 39.2288 155.981 39.365C156.161 39.4735 156.322 39.6097 156.458 39.7684C156.584 39.9195 156.677 40.094 156.733 40.2812C156.79 40.4733 156.819 40.7038 156.819 40.9727C156.819 41.549 156.641 41.985 156.285 42.2808C155.928 42.5766 155.419 42.7245 154.757 42.7245C154.314 42.7245 153.957 42.6803 153.688 42.5919C153.418 42.5036 153.228 42.4325 153.12 42.3787L153.322 41.2147C153.523 41.31 153.73 41.3909 153.943 41.4568C154.184 41.5336 154.459 41.572 154.767 41.572ZM159.171 41.572C159.479 41.572 159.704 41.5278 159.845 41.4395C159.986 41.3511 160.057 41.1994 160.057 40.9842C160.059 40.8904 160.04 40.7973 160.001 40.7116C159.962 40.6259 159.904 40.5497 159.831 40.4887C159.68 40.3581 159.431 40.2159 159.084 40.0623C158.884 39.976 158.689 39.8779 158.501 39.7684C158.331 39.67 158.177 39.5477 158.043 39.4054C157.91 39.2591 157.807 39.0888 157.74 38.9041C157.666 38.7082 157.629 38.4681 157.629 38.1838C157.629 37.6306 157.799 37.1946 158.14 36.8758C158.48 36.5569 158.943 36.3975 159.527 36.3975C159.813 36.3964 160.098 36.4293 160.375 36.4955C160.645 36.5608 160.847 36.6242 160.982 36.6856L160.77 37.815C160.614 37.7349 160.449 37.6712 160.279 37.6249C160.053 37.5638 159.819 37.5347 159.585 37.5384C159.347 37.5384 159.154 37.5865 159.007 37.6825C158.859 37.7786 158.785 37.9265 158.785 38.1262C158.783 38.2164 158.798 38.3061 158.828 38.3913C158.861 38.4727 158.912 38.5457 158.978 38.6045C159.063 38.68 159.157 38.7458 159.257 38.8004C159.394 38.8759 159.536 38.9433 159.681 39.0021C159.924 39.1075 160.159 39.2288 160.385 39.365C160.565 39.4735 160.726 39.6097 160.862 39.7684C160.988 39.9195 161.081 40.094 161.136 40.2812C161.194 40.4733 161.223 40.7038 161.223 40.9727C161.223 41.549 161.045 41.985 160.688 42.2808C160.332 42.5766 159.823 42.7245 159.161 42.7245C158.718 42.7245 158.361 42.6803 158.091 42.5919C157.821 42.5036 157.632 42.4325 157.523 42.3787L157.725 41.2148C157.926 41.31 158.134 41.3909 158.347 41.4568C158.588 41.5336 158.862 41.572 159.171 41.572ZM163.488 42.5746H162.322V36.5473H163.488V42.5746ZM163.613 34.784C163.613 35.0453 163.542 35.2527 163.401 35.4063C163.26 35.56 163.093 35.6368 162.9 35.6368C162.701 35.6368 162.531 35.56 162.389 35.4063C162.248 35.2527 162.177 35.0452 162.177 34.784C162.177 34.5151 162.248 34.3038 162.389 34.1501C162.531 33.9964 162.701 33.9195 162.9 33.9196C163.093 33.9196 163.26 33.9964 163.401 34.1501C163.542 34.3038 163.613 34.5151 163.613 34.784ZM169.529 39.5552C169.529 40.0316 169.472 40.4657 169.356 40.8575C169.24 41.2493 169.077 41.5835 168.865 41.8601C168.662 42.1287 168.4 42.3493 168.098 42.5055C167.794 42.6606 167.454 42.7398 167.111 42.736C166.769 42.7401 166.431 42.6609 166.128 42.5055C165.828 42.3483 165.568 42.1278 165.367 41.8601C165.155 41.5835 164.989 41.2493 164.87 40.8575C164.752 40.4657 164.692 40.0316 164.692 39.5552C164.692 39.0789 164.752 38.6467 164.87 38.2587C164.989 37.8707 165.156 37.5384 165.371 37.2618C165.575 36.9953 165.836 36.7767 166.138 36.6222C166.438 36.4711 166.772 36.394 167.111 36.3974C167.451 36.3943 167.786 36.4714 168.089 36.6222C168.391 36.775 168.653 36.9939 168.855 37.2618C169.067 37.5384 169.232 37.8707 169.351 38.2587C169.47 38.6467 169.529 39.0789 169.529 39.5552ZM168.335 39.5552C168.335 38.9559 168.227 38.4815 168.012 38.1319C167.797 37.7823 167.496 37.6075 167.111 37.6075C166.725 37.6075 166.425 37.7823 166.21 38.1319C165.995 38.4815 165.887 38.9559 165.887 39.5552C165.887 40.1622 165.995 40.6424 166.21 40.9958C166.425 41.3492 166.725 41.5259 167.111 41.5259C167.496 41.5259 167.797 41.3492 168.012 40.9958C168.227 40.6423 168.335 40.1622 168.335 39.5552ZM170.734 36.7432C170.959 36.6664 171.251 36.5934 171.611 36.5242C172.005 36.452 172.405 36.4173 172.806 36.4205C173.217 36.4205 173.56 36.4877 173.837 36.6222C174.104 36.7494 174.332 36.9444 174.497 37.1869C174.66 37.4289 174.776 37.7208 174.844 38.0628C174.914 38.4334 174.948 38.8096 174.945 39.1865V42.5746H173.779V39.4054C173.782 39.1298 173.764 38.8543 173.726 38.5813C173.69 38.3546 173.633 38.1703 173.552 38.0281C173.48 37.8931 173.365 37.7842 173.225 37.7169C173.087 37.6516 172.918 37.619 172.719 37.619C172.564 37.6195 172.409 37.6311 172.256 37.6536C172.096 37.6766 171.977 37.6958 171.9 37.7112V42.5746H170.734L170.734 36.7432ZM178.144 41.5951C178.503 41.5951 178.776 41.572 178.963 41.5259V39.9816C178.872 39.9517 178.778 39.9286 178.683 39.9125C178.55 39.8884 178.414 39.8768 178.279 39.8779C178.148 39.8781 178.017 39.8897 177.888 39.9125C177.763 39.9334 177.642 39.9763 177.532 40.0393C177.425 40.102 177.337 40.1915 177.277 40.2985C177.212 40.41 177.18 40.5502 177.18 40.7193C177.18 41.0497 177.267 41.2782 177.44 41.405C177.614 41.5318 177.848 41.5951 178.144 41.5951ZM178.047 36.3974C178.433 36.3974 178.757 36.4551 179.021 36.5703C179.271 36.6752 179.488 36.8421 179.652 37.0543C179.809 37.2618 179.922 37.5134 179.989 37.8092C180.059 38.1292 180.093 38.4558 180.09 38.783V42.4363C179.91 42.4824 179.639 42.5381 179.276 42.6035C178.87 42.6723 178.459 42.7051 178.047 42.7014C177.768 42.7042 177.489 42.6693 177.219 42.5977C176.982 42.5357 176.762 42.4213 176.578 42.2635C176.401 42.1098 176.263 41.91 176.164 41.6642C176.064 41.4183 176.014 41.1149 176.014 40.7537C176.014 40.408 176.07 40.116 176.183 39.8779C176.286 39.6512 176.443 39.4518 176.641 39.2959C176.838 39.1437 177.066 39.0337 177.31 38.9732C177.57 38.9072 177.837 38.8742 178.105 38.8752C178.241 38.8757 178.376 38.8853 178.51 38.904C178.663 38.9258 178.814 38.9585 178.963 39.002V38.7715C178.964 38.6166 178.947 38.4621 178.915 38.3105C178.886 38.172 178.828 38.0406 178.746 37.9244C178.665 37.8124 178.555 37.723 178.428 37.6651C178.296 37.6037 178.131 37.5729 177.932 37.5729C177.683 37.571 177.434 37.5941 177.19 37.6421C177.002 37.6772 176.817 37.7313 176.641 37.8034L176.496 36.674C176.644 36.6125 176.859 36.5511 177.142 36.4896C177.439 36.4266 177.743 36.3957 178.047 36.3974ZM183.27 42.6899C182.923 42.6822 182.636 42.6361 182.408 42.5516C182.18 42.4671 181.998 42.3461 181.863 42.1886C181.728 42.0312 181.634 41.8353 181.579 41.6009C181.521 41.3377 181.494 41.0691 181.497 40.7999V33.8621L182.663 33.6316V40.5348C182.661 40.6776 182.672 40.8204 182.697 40.9612C182.715 41.0664 182.756 41.1666 182.817 41.2551C182.877 41.337 182.958 41.4009 183.053 41.4395C183.175 41.4877 183.303 41.5206 183.434 41.5374L183.27 42.6899ZM191.114 42.5746C191.024 42.2596 190.931 41.9485 190.834 41.6411C190.738 41.3338 190.645 41.0188 190.555 40.6961H187.741C187.651 41.0188 187.56 41.3357 187.466 41.6469C187.373 41.9581 187.282 42.2673 187.192 42.5746H185.93C186.18 41.7218 186.418 40.9343 186.643 40.2121C186.868 39.4899 187.088 38.8061 187.303 38.1607C187.518 37.5154 187.732 36.9007 187.944 36.3168C188.156 35.7329 188.374 35.1566 188.599 34.5881H189.745C189.97 35.1566 190.189 35.7328 190.401 36.3168C190.613 36.9008 190.826 37.5154 191.041 38.1607C191.257 38.8061 191.478 39.4899 191.706 40.2121C191.934 40.9343 192.174 41.7218 192.424 42.5746H191.114ZM189.148 36.1324C189 36.5396 188.832 37.0351 188.642 37.619C188.453 38.2029 188.255 38.8368 188.049 39.5206H190.246C190.041 38.8368 189.842 38.1991 189.649 37.6075C189.456 37.0159 189.289 36.5242 189.148 36.1324ZM192.8 39.5667C192.797 39.144 192.855 38.7229 192.973 38.3162C193.089 37.9282 193.254 37.5921 193.47 37.3078C193.677 37.0304 193.945 36.8019 194.255 36.6394C194.563 36.4781 194.91 36.3974 195.296 36.3974C195.764 36.3958 196.226 36.5025 196.645 36.7086L196.394 37.8495C196.248 37.7762 196.095 37.7183 195.936 37.6766C195.759 37.6296 195.576 37.6064 195.392 37.6075C194.936 37.6075 194.589 37.7785 194.351 38.1204C194.114 38.4622 193.995 38.9444 193.995 39.5667C193.995 40.166 194.107 40.6404 194.332 40.99C194.557 41.3396 194.936 41.5144 195.469 41.5144C195.667 41.5145 195.865 41.4913 196.057 41.4452C196.23 41.406 196.398 41.348 196.558 41.2723L196.722 42.4248C196.593 42.5016 196.399 42.5708 196.139 42.6322C195.875 42.6941 195.605 42.725 195.334 42.7245C194.904 42.7245 194.53 42.6457 194.212 42.4883C193.898 42.3345 193.627 42.1091 193.421 41.8313C193.213 41.5509 193.057 41.2166 192.954 40.8287C192.848 40.4161 192.796 39.992 192.8 39.5667ZM197.348 39.5667C197.345 39.144 197.403 38.7229 197.521 38.3162C197.637 37.9282 197.803 37.5921 198.018 37.3078C198.225 37.0304 198.493 36.8019 198.803 36.6394C199.111 36.4781 199.458 36.3974 199.844 36.3974C200.312 36.3958 200.774 36.5025 201.193 36.7086L200.942 37.8495C200.796 37.7762 200.643 37.7183 200.485 37.6766C200.307 37.6296 200.124 37.6064 199.94 37.6075C199.484 37.6075 199.137 37.7785 198.899 38.1204C198.662 38.4622 198.543 38.9444 198.543 39.5667C198.543 40.166 198.655 40.6404 198.88 40.99C199.105 41.3396 199.484 41.5144 200.017 41.5144C200.215 41.5145 200.413 41.4913 200.605 41.4452C200.778 41.406 200.946 41.348 201.106 41.2723L201.27 42.4248C201.141 42.5016 200.947 42.5708 200.687 42.6322C200.424 42.6941 200.153 42.725 199.882 42.7245C199.452 42.7245 199.078 42.6457 198.76 42.4883C198.446 42.3345 198.175 42.1091 197.97 41.8314C197.761 41.5509 197.605 41.2166 197.502 40.8287C197.396 40.4161 197.345 39.992 197.348 39.5667ZM206.627 39.5552C206.627 40.0315 206.57 40.4656 206.454 40.8575C206.338 41.2493 206.175 41.5835 205.963 41.8601C205.76 42.1287 205.498 42.3493 205.197 42.5055C204.892 42.6606 204.552 42.7397 204.209 42.736C203.867 42.7401 203.529 42.6609 203.226 42.5055C202.926 42.3483 202.666 42.1278 202.465 41.8601C202.253 41.5835 202.087 41.2493 201.968 40.8575C201.85 40.4656 201.79 40.0315 201.79 39.5552C201.79 39.0788 201.85 38.6467 201.968 38.2587C202.087 37.8707 202.254 37.5384 202.47 37.2618C202.673 36.9952 202.934 36.7767 203.236 36.6222C203.536 36.4711 203.87 36.3939 204.209 36.3974C204.549 36.3943 204.884 36.4714 205.187 36.6222C205.489 36.775 205.751 36.9939 205.953 37.2618C206.165 37.5384 206.33 37.8707 206.449 38.2587C206.568 38.6467 206.627 39.0788 206.627 39.5552ZM205.433 39.5552C205.433 38.9559 205.325 38.4815 205.11 38.1319C204.895 37.7823 204.594 37.6075 204.209 37.6075C203.823 37.6075 203.523 37.7823 203.308 38.1319C203.093 38.4815 202.985 38.9559 202.985 39.5552C202.985 40.1621 203.093 40.6423 203.308 40.9958C203.523 41.3492 203.823 41.5259 204.209 41.5259C204.594 41.5259 204.895 41.3492 205.11 40.9958C205.325 40.6423 205.432 40.1621 205.433 39.5552ZM211.966 42.3902C211.741 42.4594 211.449 42.5304 211.089 42.6034C210.699 42.6793 210.301 42.7159 209.904 42.7128C209.499 42.7128 209.16 42.6437 208.887 42.5054C208.621 42.3729 208.395 42.1741 208.232 41.9291C208.068 41.6833 207.951 41.3894 207.88 41.0475C207.807 40.6773 207.771 40.3009 207.774 39.9238V36.5473H208.94V39.705C208.94 40.3504 209.019 40.8113 209.176 41.0879C209.333 41.3645 209.608 41.5028 210 41.5028C210.141 41.5028 210.291 41.4951 210.448 41.4798C210.567 41.471 210.684 41.4517 210.8 41.4222V36.5473H211.966L211.966 42.3902ZM213.45 36.7432C213.674 36.6663 213.967 36.5934 214.326 36.5242C214.72 36.452 215.121 36.4173 215.521 36.4205C215.932 36.4205 216.276 36.4877 216.552 36.6222C216.82 36.7494 217.048 36.9444 217.212 37.1869C217.376 37.4288 217.492 37.7208 217.559 38.0628C217.629 38.4333 217.663 38.8096 217.66 39.1864V42.5746H216.495V39.4054C216.498 39.1298 216.48 38.8543 216.442 38.5813C216.406 38.3546 216.348 38.1703 216.268 38.0281C216.195 37.8931 216.081 37.7842 215.941 37.7169C215.802 37.6516 215.634 37.619 215.435 37.619C215.28 37.6195 215.125 37.6311 214.972 37.6536C214.812 37.6766 214.693 37.6958 214.616 37.7112V42.5746H213.45L213.45 36.7432ZM219.029 34.9569L220.195 34.7264V36.5473H221.987V37.7112H220.195V40.1659C220.195 40.65 220.259 40.9957 220.387 41.2032C220.516 41.4106 220.734 41.5143 221.043 41.5143C221.234 41.5174 221.424 41.4902 221.606 41.4337C221.74 41.3918 221.87 41.3417 221.997 41.2838L222.189 42.3901C222.018 42.4739 221.841 42.5452 221.659 42.6033C221.441 42.6762 221.184 42.7127 220.888 42.7127C220.529 42.7127 220.228 42.6551 219.988 42.5398C219.752 42.429 219.553 42.2552 219.414 42.0385C219.273 41.8195 219.173 41.5544 219.116 41.2433C219.054 40.8913 219.025 40.5346 219.029 40.1775V34.9569ZM224.887 41.595C225.247 41.595 225.52 41.572 225.706 41.5259V39.9816C225.615 39.9517 225.522 39.9286 225.427 39.9125C225.293 39.8884 225.158 39.8768 225.022 39.8779C224.891 39.8781 224.761 39.8897 224.632 39.9125C224.506 39.9334 224.385 39.9763 224.275 40.0393C224.168 40.102 224.08 40.1915 224.02 40.2985C223.956 40.41 223.924 40.5502 223.924 40.7193C223.924 41.0497 224.011 41.2782 224.184 41.405C224.357 41.5318 224.592 41.5951 224.887 41.595ZM224.791 36.3974C225.176 36.3974 225.501 36.4551 225.764 36.5703C226.014 36.6752 226.232 36.8421 226.395 37.0543C226.553 37.2618 226.665 37.5134 226.733 37.8092C226.803 38.1292 226.836 38.4558 226.834 38.783V42.4363C226.654 42.4824 226.382 42.5381 226.019 42.6035C225.614 42.6723 225.203 42.7051 224.791 42.7014C224.511 42.7042 224.232 42.6693 223.962 42.5977C223.725 42.5357 223.506 42.4213 223.321 42.2635C223.145 42.1098 223.007 41.91 222.907 41.6642C222.807 41.4183 222.758 41.1149 222.758 40.7537C222.758 40.408 222.814 40.116 222.926 39.8779C223.03 39.6512 223.186 39.4518 223.384 39.2959C223.582 39.1437 223.81 39.0337 224.054 38.9732C224.313 38.9072 224.58 38.8742 224.849 38.8752C224.984 38.8757 225.119 38.8853 225.253 38.904C225.407 38.9258 225.558 38.9585 225.706 39.002V38.7715C225.707 38.6166 225.691 38.4621 225.658 38.3105C225.629 38.172 225.572 38.0406 225.489 37.9244C225.408 37.8124 225.299 37.723 225.172 37.6651C225.04 37.6037 224.874 37.5729 224.675 37.5729C224.426 37.571 224.178 37.5941 223.933 37.6421C223.745 37.6772 223.561 37.7313 223.384 37.8034L223.24 36.674C223.387 36.6125 223.602 36.5511 223.885 36.4896C224.183 36.4266 224.486 36.3957 224.791 36.3974ZM228.26 36.7432C228.485 36.6663 228.777 36.5934 229.137 36.5242C229.531 36.452 229.931 36.4173 230.332 36.4205C230.743 36.4205 231.086 36.4877 231.363 36.6222C231.63 36.7494 231.858 36.9444 232.023 37.1869C232.186 37.4288 232.302 37.7208 232.37 38.0628C232.44 38.4333 232.473 38.8096 232.471 39.1864V42.5746H231.305V39.4054C231.308 39.1298 231.29 38.8543 231.252 38.5813C231.217 38.3546 231.159 38.1703 231.079 38.0281C231.006 37.8931 230.891 37.7842 230.751 37.7169C230.613 37.6516 230.444 37.619 230.245 37.619C230.09 37.6195 229.936 37.6311 229.782 37.6536C229.622 37.6766 229.503 37.6958 229.426 37.7112V42.5746H228.26L228.26 36.7432ZM233.839 34.9569L235.005 34.7264V36.5473H236.797V37.7112H235.005V40.1659C235.005 40.65 235.069 40.9957 235.198 41.2032C235.326 41.4106 235.545 41.5143 235.853 41.5143C236.044 41.5174 236.234 41.4902 236.417 41.4337C236.55 41.3918 236.68 41.3417 236.807 41.2838L237 42.3901C236.829 42.4739 236.651 42.5452 236.47 42.6033C236.251 42.6762 235.994 42.7127 235.699 42.7127C235.339 42.7127 235.039 42.6551 234.798 42.5398C234.562 42.4291 234.363 42.2553 234.225 42.0387C234.083 41.8198 233.984 41.5547 233.926 41.2435C233.865 40.8914 233.836 40.5347 233.839 40.1775L233.839 34.9569Z" fill="white"/>
</g>
<defs>
<clipPath id="clip0_881_5452">
<rect width="237" height="54.6923" fill="white"/>
</clipPath>
</defs>
</svg>
