<svg width="44" height="44" viewBox="0 0 44 44" fill="none" xmlns="http://www.w3.org/2000/svg">
<path d="M43 2V1H42H2H1V2V42V43H2H42H43V42V2Z" fill="white" stroke="#1A1229" stroke-width="2"/>
<path d="M22.8834 11.1167L30.0334 18.2667C30.5168 18.75 30.5168 19.55 30.0334 20.0333C29.5501 20.5167 28.7501 20.5167 28.2668 20.0333L23.2501 15.0167V32C23.2501 32.6833 22.6834 33.25 22.0001 33.25C21.3168 33.25 20.7501 32.6833 20.7501 32V15.0167L15.7334 20.0333C15.2501 20.5167 14.4501 20.5167 13.9668 20.0333C13.7168 19.7833 13.6001 19.4667 13.6001 19.15C13.6001 18.8333 13.7334 18.5 13.9668 18.2667L21.1168 11.1167C21.3501 10.8833 21.6668 10.75 22.0001 10.75C22.3334 10.75 22.6501 10.8833 22.8834 11.1167Z" fill="#1A1229"/>
</svg>
