<svg width="41" height="49" viewBox="0 0 41 49" fill="none" xmlns="http://www.w3.org/2000/svg">
<path d="M20.1628 15C18.5345 15 16.9061 14.5289 15.6732 13.6042L0.505961 2.22884C-0.168654 1.72288 -0.168654 0.885432 0.505961 0.379471C1.18058 -0.12649 2.29718 -0.12649 2.97179 0.379471L18.139 11.7549C19.2556 12.5923 21.0701 12.5923 22.1867 11.7549L37.3539 0.379471C38.0285 -0.12649 39.1451 -0.12649 39.8197 0.379471C40.4943 0.885432 40.4943 1.72288 39.8197 2.22884L24.6525 13.6042C23.4196 14.5289 21.7912 15 20.1628 15Z" fill="#AAAAAA"/>
<path d="M20.1628 32C18.5345 32 16.9061 31.5289 15.6732 30.6042L0.505961 19.2288C-0.168654 18.7229 -0.168654 17.8854 0.505961 17.3795C1.18058 16.8735 2.29718 16.8735 2.97179 17.3795L18.139 28.7549C19.2556 29.5923 21.0701 29.5923 22.1867 28.7549L37.3539 17.3795C38.0285 16.8735 39.1451 16.8735 39.8197 17.3795C40.4943 17.8854 40.4943 18.7229 39.8197 19.2288L24.6525 30.6042C23.4196 31.5289 21.7912 32 20.1628 32Z" fill="#BEBEBE"/>
<path d="M20.1628 49C18.5345 49 16.9061 48.5289 15.6732 47.6042L0.505961 36.2288C-0.168654 35.7229 -0.168654 34.8854 0.505961 34.3795C1.18058 33.8735 2.29718 33.8735 2.97179 34.3795L18.139 45.7549C19.2556 46.5923 21.0701 46.5923 22.1867 45.7549L37.3539 34.3795C38.0285 33.8735 39.1451 33.8735 39.8197 34.3795C40.4943 34.8854 40.4943 35.7229 39.8197 36.2288L24.6525 47.6042C23.4196 48.5289 21.7912 49 20.1628 49Z" fill="#E6E6E6"/>
</svg>
<svg width="41" height="49" viewBox="0 0 41 49" fill="none" xmlns="http://www.w3.org/2000/svg">
<path d="M20.1628 15C18.5345 15 16.9061 14.5289 15.6732 13.6042L0.505961 2.22884C-0.168654 1.72288 -0.168654 0.885432 0.505961 0.379471C1.18058 -0.12649 2.29718 -0.12649 2.97179 0.379471L18.139 11.7549C19.2556 12.5923 21.0701 12.5923 22.1867 11.7549L37.3539 0.379471C38.0285 -0.12649 39.1451 -0.12649 39.8197 0.379471C40.4943 0.885432 40.4943 1.72288 39.8197 2.22884L24.6525 13.6042C23.4196 14.5289 21.7912 15 20.1628 15Z" fill="#AAAAAA"/>
<path d="M20.1628 32C18.5345 32 16.9061 31.5289 15.6732 30.6042L0.505961 19.2288C-0.168654 18.7229 -0.168654 17.8854 0.505961 17.3795C1.18058 16.8735 2.29718 16.8735 2.97179 17.3795L18.139 28.7549C19.2556 29.5923 21.0701 29.5923 22.1867 28.7549L37.3539 17.3795C38.0285 16.8735 39.1451 16.8735 39.8197 17.3795C40.4943 17.8854 40.4943 18.7229 39.8197 19.2288L24.6525 30.6042C23.4196 31.5289 21.7912 32 20.1628 32Z" fill="#BEBEBE"/>
<path d="M20.1628 49C18.5345 49 16.9061 48.5289 15.6732 47.6042L0.505961 36.2288C-0.168654 35.7229 -0.168654 34.8854 0.505961 34.3795C1.18058 33.8735 2.29718 33.8735 2.97179 34.3795L18.139 45.7549C19.2556 46.5923 21.0701 46.5923 22.1867 45.7549L37.3539 34.3795C38.0285 33.8735 39.1451 33.8735 39.8197 34.3795C40.4943 34.8854 40.4943 35.7229 39.8197 36.2288L24.6525 47.6042C23.4196 48.5289 21.7912 49 20.1628 49Z" fill="#E6E6E6"/>
</svg>
