<svg width="50" height="50" viewBox="0 0 50 50" fill="none" xmlns="http://www.w3.org/2000/svg">
<path opacity="0.4" d="M33.7291 4.16667H16.2708C8.68746 4.16667 4.16663 8.68751 4.16663 16.2708V33.7083C4.16663 41.3125 8.68746 45.8333 16.2708 45.8333H33.7083C41.2916 45.8333 45.8125 41.3125 45.8125 33.7292V16.2708C45.8333 8.68751 41.3125 4.16667 33.7291 4.16667Z" fill="#6FB1E3"/>
<path d="M32.8125 20.3125H17.1875C16.3333 20.3125 15.625 19.6042 15.625 18.75C15.625 17.8958 16.3333 17.1875 17.1875 17.1875H32.8125C33.6667 17.1875 34.375 17.8958 34.375 18.75C34.375 19.6042 33.6667 20.3125 32.8125 20.3125Z" fill="#6FB1E3"/>
<path d="M32.8125 32.8125H17.1875C16.3333 32.8125 15.625 32.1042 15.625 31.25C15.625 30.3958 16.3333 29.6875 17.1875 29.6875H32.8125C33.6667 29.6875 34.375 30.3958 34.375 31.25C34.375 32.1042 33.6667 32.8125 32.8125 32.8125Z" fill="#6FB1E3"/>
</svg>
