<svg width="50" height="50" viewBox="0 0 50 50" fill="none" xmlns="http://www.w3.org/2000/svg">
<path d="M43.9375 14.5417C42.1666 12.5833 39.2083 11.6042 34.9166 11.6042H34.4166V11.5208C34.4166 8.02083 34.4166 3.6875 26.5833 3.6875H23.4166C15.5833 3.6875 15.5833 8.04167 15.5833 11.5208V11.625H15.0833C10.7708 11.625 7.83331 12.6042 6.06248 14.5625C3.99998 16.8542 4.06248 19.9375 4.27081 22.0417L4.29164 22.1875L4.49998 24.375C4.52081 24.3958 4.56248 24.4375 4.60414 24.4583C5.29164 24.9167 5.99998 25.375 6.74998 25.7917C7.04164 25.9792 7.35414 26.1458 7.66664 26.3125C11.2291 28.2708 15.1458 29.5833 19.125 30.2292C19.3125 32.1875 20.1666 34.4792 24.7291 34.4792C29.2916 34.4792 30.1875 32.2083 30.3333 30.1875C34.5833 29.5 38.6875 28.0208 42.3958 25.8542C42.5208 25.7917 42.6041 25.7292 42.7083 25.6667C43.6666 25.125 44.5625 24.5417 45.4375 23.8958C45.4791 23.875 45.5208 23.8333 45.5416 23.7917L45.625 23.0417L45.7291 22.0625C45.75 21.9375 45.75 21.8333 45.7708 21.6875C45.9375 19.5833 45.8958 16.7083 43.9375 14.5417ZM27.2708 28.8125C27.2708 31.0208 27.2708 31.3542 24.7083 31.3542C22.1458 31.3542 22.1458 30.9583 22.1458 28.8333V26.2083H27.2708V28.8125ZM18.5625 11.6042V11.5208C18.5625 7.97917 18.5625 6.66667 23.4166 6.66667H26.5833C31.4375 6.66667 31.4375 8 31.4375 11.5208V11.625H18.5625V11.6042Z" fill="#6FB1E3"/>
<path opacity="0.4" d="M42.7083 25.625C42.6041 25.6875 42.4999 25.75 42.3958 25.8125C38.6874 27.9792 34.5833 29.4375 30.3333 30.1458C30.1666 32.1458 29.2916 34.4375 24.7291 34.4375C20.1666 34.4375 19.2916 32.1667 19.1249 30.1875C15.1458 29.5625 11.2291 28.25 7.66661 26.2708C7.35411 26.1042 7.04161 25.9375 6.74994 25.75C5.99994 25.3333 5.29161 24.875 4.60411 24.4167C4.56244 24.3958 4.52077 24.3542 4.49994 24.3333L5.77077 37.8958C6.20827 42.0417 7.91661 46.3125 17.0833 46.3125H32.9583C42.1249 46.3125 43.8333 42.0417 44.2708 37.875L45.5833 23.75C45.5624 23.7917 45.5208 23.8333 45.4791 23.8542C44.5833 24.5 43.6666 25.1042 42.7083 25.625Z" fill="#6FB1E3"/>
</svg>
