<svg width="30" height="30" viewBox="0 0 30 30" fill="none" xmlns="http://www.w3.org/2000/svg">
<path d="M12 7.5V9.75" stroke="#1A1229" stroke-width="1.5" stroke-miterlimit="10" stroke-linecap="round" stroke-linejoin="round"/>
<path d="M18 7.5V9.75" stroke="#1A1229" stroke-width="1.5" stroke-miterlimit="10" stroke-linecap="round" stroke-linejoin="round"/>
<path opacity="0.4" d="M8.625 12.8175H21.375" stroke="#1A1229" stroke-width="1.5" stroke-miterlimit="10" stroke-linecap="round" stroke-linejoin="round"/>
<path d="M21.75 12.375V18.75C21.75 21 20.625 22.5 18 22.5H12C9.375 22.5 8.25 21 8.25 18.75V12.375C8.25 10.125 9.375 8.625 12 8.625H18C20.625 8.625 21.75 10.125 21.75 12.375Z" stroke="#1A1229" stroke-width="1.5" stroke-miterlimit="10" stroke-linecap="round" stroke-linejoin="round"/>
<path opacity="0.4" d="M17.771 16.275H17.7778" stroke="#1A1229" stroke-width="2" stroke-linecap="round" stroke-linejoin="round"/>
<path opacity="0.4" d="M17.771 18.525H17.7778" stroke="#1A1229" stroke-width="2" stroke-linecap="round" stroke-linejoin="round"/>
<path opacity="0.4" d="M14.9966 16.275H15.0033" stroke="#1A1229" stroke-width="2" stroke-linecap="round" stroke-linejoin="round"/>
<path opacity="0.4" d="M14.9966 18.525H15.0033" stroke="#1A1229" stroke-width="2" stroke-linecap="round" stroke-linejoin="round"/>
<path opacity="0.4" d="M12.2207 16.275H12.2275" stroke="#1A1229" stroke-width="2" stroke-linecap="round" stroke-linejoin="round"/>
<path opacity="0.4" d="M12.2207 18.525H12.2274" stroke="#1A1229" stroke-width="2" stroke-linecap="round" stroke-linejoin="round"/>
<rect x="0.5" y="0.5" width="29" height="29" stroke="#1A1229"/>
</svg>
