<svg width="17" height="17" viewBox="0 0 17 17" fill="none" xmlns="http://www.w3.org/2000/svg">
<path d="M8.49994 11.5671C6.80703 11.5671 5.43286 10.1929 5.43286 8.49998C5.43286 6.80706 6.80703 5.43289 8.49994 5.43289C10.1929 5.43289 11.567 6.80706 11.567 8.49998C11.567 10.1929 10.1929 11.5671 8.49994 11.5671ZM8.49994 6.49539C7.39494 6.49539 6.49536 7.39498 6.49536 8.49998C6.49536 9.60498 7.39494 10.5046 8.49994 10.5046C9.60494 10.5046 10.5045 9.60498 10.5045 8.49998C10.5045 7.39498 9.60494 6.49539 8.49994 6.49539Z" fill="#1A1229"/>
<path d="M8.50014 14.8892C5.8368 14.8892 3.32222 13.3308 1.59389 10.625C0.843053 9.45624 0.843053 7.55082 1.59389 6.37499C3.3293 3.66916 5.84389 2.11082 8.50014 2.11082C11.1564 2.11082 13.671 3.66916 15.3993 6.37499C16.1501 7.54374 16.1501 9.44916 15.3993 10.625C13.671 13.3308 11.1564 14.8892 8.50014 14.8892ZM8.50014 3.17332C6.21222 3.17332 4.02347 4.54749 2.49347 6.94874C1.96222 7.77749 1.96222 9.22249 2.49347 10.0512C4.02347 12.4525 6.21222 13.8267 8.50014 13.8267C10.7881 13.8267 12.9768 12.4525 14.5068 10.0512C15.0381 9.22249 15.0381 7.77749 14.5068 6.94874C12.9768 4.54749 10.7881 3.17332 8.50014 3.17332Z" fill="#1A1229"/>
</svg>
