<svg width="24" height="24" viewBox="0 0 24 24" fill="none" xmlns="http://www.w3.org/2000/svg">
<path d="M17.9664 7.35966L7.35983 17.9663C6.99744 18.3286 6.3964 18.3286 6.03401 17.9663C5.67161 17.6039 5.67161 17.0028 6.03401 16.6404L16.6406 6.03383C17.003 5.67144 17.604 5.67144 17.9664 6.03383C18.3288 6.39622 18.3288 6.99726 17.9664 7.35966Z" fill="#1E1E1E"/>
<path d="M17.9664 17.9662C17.604 18.3286 17.003 18.3286 16.6406 17.9662L6.03401 7.35957C5.67161 6.99718 5.67161 6.39613 6.03401 6.03374C6.3964 5.67135 6.99744 5.67135 7.35983 6.03374L17.9664 16.6403C18.3288 17.0027 18.3288 17.6038 17.9664 17.9662Z" fill="#1E1E1E"/>
</svg>
