<svg width="25" height="25" viewBox="0 0 25 25" fill="none" xmlns="http://www.w3.org/2000/svg">
<path d="M9.55208 16.2292C9.35417 16.2292 9.15625 16.1562 9 16C8.69792 15.6979 8.69792 15.1979 9 14.8958L14.8958 9C15.1979 8.69792 15.6979 8.69792 16 9C16.3021 9.30208 16.3021 9.80208 16 10.1042L10.1042 16C9.95833 16.1562 9.75 16.2292 9.55208 16.2292Z" fill="#932C2F"/>
<path d="M15.4479 16.2292C15.25 16.2292 15.0521 16.1562 14.8958 16L9 10.1042C8.69792 9.80208 8.69792 9.30208 9 9C9.30208 8.69792 9.80208 8.69792 10.1042 9L16 14.8958C16.3021 15.1979 16.3021 15.6979 16 16C15.8437 16.1562 15.6458 16.2292 15.4479 16.2292Z" fill="#932C2F"/>
<path d="M15.6247 23.6979H9.37467C3.71842 23.6979 1.30176 21.2813 1.30176 15.625V9.375C1.30176 3.71875 3.71842 1.30208 9.37467 1.30208H15.6247C21.2809 1.30208 23.6976 3.71875 23.6976 9.375V15.625C23.6976 21.2813 21.2809 23.6979 15.6247 23.6979ZM9.37467 2.86458C4.57259 2.86458 2.86426 4.57292 2.86426 9.375V15.625C2.86426 20.4271 4.57259 22.1354 9.37467 22.1354H15.6247C20.4268 22.1354 22.1351 20.4271 22.1351 15.625V9.375C22.1351 4.57292 20.4268 2.86458 15.6247 2.86458H9.37467Z" fill="#932C2F"/>
</svg>
