<svg width="50" height="50" viewBox="0 0 50 50" fill="none" xmlns="http://www.w3.org/2000/svg">
<path opacity="0.4" d="M33.7292 4.16664H16.2709C8.68758 4.16664 4.16675 8.68747 4.16675 16.2708V33.7083C4.16675 41.3125 8.68758 45.8333 16.2709 45.8333H33.7084C41.2917 45.8333 45.8126 41.3125 45.8126 33.7291V16.2708C45.8334 8.68747 41.3126 4.16664 33.7292 4.16664Z" fill="#6FB1E3"/>
<path d="M21.875 18.3542H12.5C11.6458 18.3542 10.9375 17.6458 10.9375 16.7917C10.9375 15.9375 11.6458 15.2292 12.5 15.2292H21.875C22.7292 15.2292 23.4375 15.9375 23.4375 16.7917C23.4375 17.6458 22.7292 18.3542 21.875 18.3542Z" fill="#6FB1E3"/>
<path d="M37.5 30.8542H28.125C27.2708 30.8542 26.5625 30.1458 26.5625 29.2917C26.5625 28.4375 27.2708 27.7292 28.125 27.7292H37.5C38.3542 27.7292 39.0625 28.4375 39.0625 29.2917C39.0625 30.1458 38.3542 30.8542 37.5 30.8542Z" fill="#6FB1E3"/>
<path d="M37.5 38.6667H28.125C27.2708 38.6667 26.5625 37.9583 26.5625 37.1042C26.5625 36.25 27.2708 35.5417 28.125 35.5417H37.5C38.3542 35.5417 39.0625 36.25 39.0625 37.1042C39.0625 37.9583 38.3542 38.6667 37.5 38.6667Z" fill="#6FB1E3"/>
<path d="M37.5 15.2292H34.4167V12.1042C34.4167 11.25 33.7083 10.5417 32.8542 10.5417C32 10.5417 31.2917 11.25 31.2917 12.1042V15.2292H28.125C27.2708 15.2292 26.5625 15.9375 26.5625 16.7917C26.5625 17.6458 27.2708 18.3542 28.125 18.3542H31.2917V21.4792C31.2917 22.3333 32 23.0417 32.8542 23.0417C33.7083 23.0417 34.4167 22.3333 34.4167 21.4792V18.3542H37.5C38.3542 18.3542 39.0625 17.6458 39.0625 16.7917C39.0625 15.9375 38.3542 15.2292 37.5 15.2292Z" fill="#6FB1E3"/>
<path d="M19.3959 33.2083L22.9792 29.625C23.5834 29.0208 23.5834 28.0208 22.9792 27.4167C22.375 26.8125 21.375 26.8125 20.7709 27.4167L17.1875 31L13.6042 27.4167C13 26.8125 12 26.8125 11.3959 27.4167C10.7917 28.0208 10.7917 29.0208 11.3959 29.625L14.9792 33.2083L11.3959 36.7917C10.7917 37.3958 10.7917 38.3958 11.3959 39C11.7084 39.3125 12.1042 39.4583 12.5 39.4583C12.8959 39.4583 13.2917 39.3125 13.6042 39L17.1875 35.4167L20.7709 39C21.0834 39.3125 21.4792 39.4583 21.875 39.4583C22.2709 39.4583 22.6667 39.3125 22.9792 39C23.5834 38.3958 23.5834 37.3958 22.9792 36.7917L19.3959 33.2083Z" fill="#6FB1E3"/>
</svg>
