<svg width="24" height="24" viewBox="0 0 24 24" fill="none" xmlns="http://www.w3.org/2000/svg">
<path d="M17.9674 7.35905L7.36081 17.9656C6.99842 18.328 6.39738 18.328 6.03498 17.9656C5.67259 17.6033 5.67259 17.0022 6.03498 16.6398L16.6416 6.03322C17.004 5.67083 17.605 5.67083 17.9674 6.03322C18.3298 6.39561 18.3298 6.99665 17.9674 7.35905Z" fill="#EFEFEF"/>
<path d="M17.9674 17.9668C17.605 18.3292 17.004 18.3292 16.6416 17.9668L6.03498 7.36018C5.67259 6.99779 5.67259 6.39675 6.03498 6.03435C6.39738 5.67196 6.99842 5.67196 7.36081 6.03435L17.9674 16.641C18.3298 17.0033 18.3298 17.6044 17.9674 17.9668Z" fill="#EFEFEF"/>
</svg>
