<svg width="30" height="30" viewBox="0 0 30 30" fill="none" xmlns="http://www.w3.org/2000/svg">
<path opacity="0.4" d="M10.5 13.5V12C10.5 9.5175 11.25 7.5 15 7.5C18.75 7.5 19.5 9.5175 19.5 12V13.5" stroke="#AAAAAA" stroke-width="1.5" stroke-linecap="round" stroke-linejoin="round"/>
<path d="M18.75 22.5H11.25C8.25 22.5 7.5 21.75 7.5 18.75V17.25C7.5 14.25 8.25 13.5 11.25 13.5H18.75C21.75 13.5 22.5 14.25 22.5 17.25V18.75C22.5 21.75 21.75 22.5 18.75 22.5Z" stroke="#AAAAAA" stroke-width="1.5" stroke-linecap="round" stroke-linejoin="round"/>
<path opacity="0.4" d="M17.9973 18H18.0041" stroke="#AAAAAA" stroke-width="2" stroke-linecap="round" stroke-linejoin="round"/>
<path opacity="0.4" d="M14.9966 18H15.0033" stroke="#AAAAAA" stroke-width="2" stroke-linecap="round" stroke-linejoin="round"/>
<path opacity="0.4" d="M11.9959 18H12.0026" stroke="#AAAAAA" stroke-width="2" stroke-linecap="round" stroke-linejoin="round"/>
<rect x="0.5" y="0.5" width="29" height="29" stroke="#AAAAAA"/>
</svg>
