<svg width="50" height="50" viewBox="0 0 50 50" fill="none" xmlns="http://www.w3.org/2000/svg">
<path d="M22.0832 8.64587V12.5H19C15.6458 12.5 13.9583 14.1875 13.9583 17.5416V37.5H8.64584C5.66668 37.5 4.16663 35.9999 4.16663 33.0208V8.64587C4.16663 5.66671 5.66668 4.16666 8.64584 4.16666H17.6042C20.5833 4.16666 22.0832 5.66671 22.0832 8.64587Z" fill="#6FB1E3"/>
<path opacity="0.4" d="M36.1874 17.5416V40.7917C36.1874 44.1459 34.5208 45.8333 31.1666 45.8333H18.9999C15.6457 45.8333 13.9583 44.1459 13.9583 40.7917V17.5416C13.9583 14.1875 15.6457 12.5 18.9999 12.5H31.1666C34.5208 12.5 36.1874 14.1875 36.1874 17.5416Z" fill="#6FB1E3"/>
<path d="M45.8332 8.64587V33.0208C45.8332 35.9999 44.3332 37.5 41.354 37.5H36.1874V17.5416C36.1874 14.1875 34.5208 12.5 31.1666 12.5H27.9166V8.64587C27.9166 5.66671 29.4165 4.16666 32.3957 4.16666H41.354C44.3332 4.16666 45.8332 5.66671 45.8332 8.64587Z" fill="#6FB1E3"/>
<path d="M29.1667 24.4792H20.8334C19.9792 24.4792 19.2709 23.7708 19.2709 22.9167C19.2709 22.0625 19.9792 21.3542 20.8334 21.3542H29.1667C30.0209 21.3542 30.7292 22.0625 30.7292 22.9167C30.7292 23.7708 30.0209 24.4792 29.1667 24.4792Z" fill="#6FB1E3"/>
<path d="M29.1667 30.7292H20.8334C19.9792 30.7292 19.2709 30.0208 19.2709 29.1667C19.2709 28.3125 19.9792 27.6042 20.8334 27.6042H29.1667C30.0209 27.6042 30.7292 28.3125 30.7292 29.1667C30.7292 30.0208 30.0209 30.7292 29.1667 30.7292Z" fill="#6FB1E3"/>
<path d="M26.5625 39.5833V45.8333H23.4375V39.5833C23.4375 38.7292 24.1458 38.0208 25 38.0208C25.8542 38.0208 26.5625 38.7292 26.5625 39.5833Z" fill="#6FB1E3"/>
</svg>
