<svg width="50" height="50" viewBox="0 0 50 50" fill="none" xmlns="http://www.w3.org/2000/svg">
<path opacity="0.4" d="M35.4166 16.1458C35.0208 16.1458 34.625 16 34.3125 15.6875C33.7083 15.0833 33.7083 14.0833 34.3125 13.4792L38.5833 9.20833C34.9166 6.08333 30.1875 4.16667 25 4.16667C13.5 4.16667 4.16663 13.5 4.16663 25C4.16663 36.5 13.5 45.8333 25 45.8333C36.5 45.8333 45.8333 36.5 45.8333 25C45.8333 19.8125 43.9166 15.0833 40.7916 11.4167L36.5208 15.6875C36.2083 16 35.8125 16.1458 35.4166 16.1458Z" fill="#6FB1E3"/>
<path d="M28.6458 24.625L26.5625 23.8958V19.2708H26.7291C27.7916 19.2708 28.6458 20.2083 28.6458 21.3542C28.6458 22.2083 29.3541 22.9167 30.2083 22.9167C31.0625 22.9167 31.7708 22.2083 31.7708 21.3542C31.7708 18.4792 29.5208 16.1458 26.7291 16.1458H26.5625V15.625C26.5625 14.7708 25.8541 14.0625 25 14.0625C24.1458 14.0625 23.4375 14.7708 23.4375 15.625V16.1458H22.8125C20.2917 16.1458 18.2291 18.2708 18.2291 20.8958C18.2291 23.9375 20 24.9167 21.3541 25.3958L23.4375 26.125V30.75H23.2708C22.2083 30.75 21.3541 29.8125 21.3541 28.6667C21.3541 27.8125 20.6458 27.1042 19.7916 27.1042C18.9375 27.1042 18.2291 27.8125 18.2291 28.6667C18.2291 31.5417 20.4792 33.875 23.2708 33.875H23.4375V34.3958C23.4375 35.25 24.1458 35.9583 25 35.9583C25.8541 35.9583 26.5625 35.25 26.5625 34.3958V33.875H27.1874C29.7083 33.875 31.7708 31.75 31.7708 29.125C31.7708 26.0625 30 25.0833 28.6458 24.625ZM22.3749 22.4167C21.6666 22.1667 21.3541 22.0208 21.3541 20.875C21.3541 19.9792 22.0208 19.25 22.8125 19.25H23.4375V22.7708L22.3749 22.4167ZM27.1874 30.7292H26.5625V27.2083L27.625 27.5833C28.3333 27.8333 28.6458 27.9792 28.6458 29.125C28.6458 30 27.9791 30.7292 27.1874 30.7292Z" fill="#6FB1E3"/>
<path d="M47.2708 3.56251C47.1042 3.18751 46.8125 2.87502 46.4166 2.70835C46.2291 2.62502 46.0208 2.58334 45.8125 2.58334H37.4791C36.625 2.58334 35.9166 3.29168 35.9166 4.14584C35.9166 5.00001 36.625 5.70834 37.4791 5.70834H42.0416L38.5625 9.18752C39.3542 9.87502 40.0833 10.6042 40.7708 11.3959L44.25 7.91669V12.5C44.25 13.3542 44.9583 14.0625 45.8125 14.0625C46.6666 14.0625 47.375 13.3542 47.375 12.5V4.16668C47.3958 3.95835 47.3542 3.77085 47.2708 3.56251Z" fill="#6FB1E3"/>
</svg>
