<svg width="124" height="124" viewBox="0 0 124 124" fill="none" xmlns="http://www.w3.org/2000/svg">
<g opacity="0.4" filter="url(#filter0_d_306_4448)">
<path d="M82.9501 12H41.0501C22.8501 12 12.0001 12 12.0001 12V82.9C12.0001 101.15 12 112 12 112H111.95C111.95 112 111.95 101.15 111.95 82.95V12C111.95 12 101.15 12 82.9501 12Z" fill="#338B23"/>
</g>
<path d="M54.8997 79.9C53.8997 79.9 52.9497 79.5 52.2497 78.8L38.0997 64.65C36.6497 63.2 36.6497 60.8 38.0997 59.35C39.5497 57.9 41.9497 57.9 43.3997 59.35L54.8997 70.85L80.5997 45.15C82.0497 43.7 84.4497 43.7 85.8997 45.15C87.3497 46.6 87.3497 49 85.8997 50.45L57.5497 78.8C56.8497 79.5 55.8997 79.9 54.8997 79.9Z" fill="#338B23"/>
<path d="M123 2V1H122H2H1V2V122V123H2H122H123V122V2Z" stroke="#61D24C" stroke-width="2"/>
<defs>
<filter id="filter0_d_306_4448" x="10" y="12" width="101.95" height="102" filterUnits="userSpaceOnUse" color-interpolation-filters="sRGB">
<feFlood flood-opacity="0" result="BackgroundImageFix"/>
<feColorMatrix in="SourceAlpha" type="matrix" values="0 0 0 0 0 0 0 0 0 0 0 0 0 0 0 0 0 0 127 0" result="hardAlpha"/>
<feOffset dx="-2" dy="2"/>
<feComposite in2="hardAlpha" operator="out"/>
<feColorMatrix type="matrix" values="0 0 0 0 0.670588 0 0 0 0 1 0 0 0 0 0.607843 0 0 0 1 0"/>
<feBlend mode="normal" in2="BackgroundImageFix" result="effect1_dropShadow_306_4448"/>
<feBlend mode="normal" in="SourceGraphic" in2="effect1_dropShadow_306_4448" result="shape"/>
</filter>
</defs>
</svg>
