<svg width="26" height="32" viewBox="0 0 26 32" fill="none" xmlns="http://www.w3.org/2000/svg">
<path d="M25 8.5V23.5C25 29.5 23.5 31 17.5 31H8.5C2.5 31 1 29.5 1 23.5V8.5C1 2.5 2.5 1 8.5 1H17.5C23.5 1 25 2.5 25 8.5Z" stroke="#1A1229" stroke-width="1.5" stroke-linecap="round" stroke-linejoin="round"/>
<path opacity="0.4" d="M16 6.25H10" stroke="#1A1229" stroke-width="1.5" stroke-linecap="round" stroke-linejoin="round"/>
<path opacity="0.4" d="M12.9969 26.65C14.2809 26.65 15.3219 25.6091 15.3219 24.325C15.3219 23.0409 14.2809 22 12.9969 22C11.7128 22 10.6719 23.0409 10.6719 24.325C10.6719 25.6091 11.7128 26.65 12.9969 26.65Z" stroke="#1A1229" stroke-width="1.5" stroke-linecap="round" stroke-linejoin="round"/>
</svg>
