<svg width="25" height="25" viewBox="0 0 25 25" fill="none" xmlns="http://www.w3.org/2000/svg">
<path d="M12.5 15.3646C12.0729 15.3646 11.7188 15.0104 11.7188 14.5833V9.375C11.7188 8.94792 12.0729 8.59375 12.5 8.59375C12.9271 8.59375 13.2812 8.94792 13.2812 9.375V14.5833C13.2812 15.0104 12.9271 15.3646 12.5 15.3646Z" fill="#D2A812"/>
<path d="M12.5002 18.75C12.4377 18.75 12.3647 18.7396 12.2918 18.7292C12.2293 18.7187 12.1668 18.6979 12.1043 18.6667C12.0418 18.6458 11.9793 18.6146 11.9168 18.5729C11.8647 18.5312 11.8127 18.4896 11.7606 18.4479C11.5731 18.25 11.4585 17.9792 11.4585 17.7083C11.4585 17.4375 11.5731 17.1667 11.7606 16.9688C11.8127 16.9271 11.8647 16.8854 11.9168 16.8437C11.9793 16.8021 12.0418 16.7708 12.1043 16.75C12.1668 16.7187 12.2293 16.6979 12.2918 16.6875C12.4272 16.6562 12.5731 16.6562 12.6981 16.6875C12.771 16.6979 12.8335 16.7187 12.896 16.75C12.9585 16.7708 13.021 16.8021 13.0835 16.8437C13.1356 16.8854 13.1877 16.9271 13.2397 16.9688C13.4272 17.1667 13.5418 17.4375 13.5418 17.7083C13.5418 17.9792 13.4272 18.25 13.2397 18.4479C13.1877 18.4896 13.1356 18.5312 13.0835 18.5729C13.021 18.6146 12.9585 18.6458 12.896 18.6667C12.8335 18.6979 12.771 18.7187 12.6981 18.7292C12.6356 18.7396 12.5627 18.75 12.5002 18.75Z" fill="#D2A812"/>
<path d="M18.8124 23.0833H6.18741C4.15616 23.0833 2.60408 22.3437 1.81241 21.0104C1.03116 19.677 1.13533 17.9583 2.12491 16.177L8.43741 4.82288C9.47908 2.94788 10.9166 1.91663 12.4999 1.91663C14.0832 1.91663 15.5207 2.94788 16.5624 4.82288L22.8749 16.1875C23.8645 17.9687 23.9791 19.677 23.1874 21.0208C22.3957 22.3437 20.8437 23.0833 18.8124 23.0833ZM12.4999 3.47913C11.5207 3.47913 10.5624 4.22913 9.802 5.58329L3.49991 16.9479C2.79158 18.2187 2.677 19.3854 3.16658 20.2291C3.65616 21.0729 4.7395 21.5312 6.19783 21.5312H18.8228C20.2812 21.5312 21.3541 21.0729 21.8541 20.2291C22.3541 19.3854 22.2291 18.2291 21.5207 16.9479L15.1978 5.58329C14.4374 4.22913 13.4791 3.47913 12.4999 3.47913Z" fill="#D2A812"/>
</svg>
