<svg width="208" height="48" viewBox="0 0 208 48" fill="none" xmlns="http://www.w3.org/2000/svg">
<path d="M44.6709 0H62.5393L17.8684 48H0L44.6709 0Z" fill="#EFEFEF"/>
<path d="M49.1605 21.818L62.5618 7.03918V47.9998H49.1605V21.818Z" fill="#EFEFEF"/>
<path d="M34.4921 37.4142L43.6254 27.6372V48.0001H25.1616L34.4921 37.4142Z" fill="#EFEFEF"/>
<path d="M80.8437 23.3715C80.7074 22.9356 80.5555 22.4876 80.3882 22.0275C80.2209 21.5674 80.0567 21.1073 79.8956 20.6472H74.8754C74.7143 21.1073 74.5501 21.5674 74.3827 22.0275C74.2154 22.4876 74.0635 22.9356 73.9272 23.3715H70.9152C71.3986 22.0154 71.8572 20.7622 72.291 19.6119C72.7249 18.4617 73.1494 17.378 73.5646 16.3609C73.9799 15.3438 74.3889 14.3782 74.7918 13.464C75.1946 12.5499 75.613 11.6569 76.0468 10.7851H78.8171C79.2385 11.6568 79.6537 12.5498 80.0628 13.464C80.4719 14.3782 80.8841 15.3438 81.2993 16.3609C81.7145 17.378 82.139 18.4617 82.5729 19.612C83.0067 20.7622 83.4653 22.0154 83.9487 23.3715L80.8437 23.3715ZM77.3669 13.6366C77.3049 13.8182 77.2119 14.0664 77.088 14.3812C76.964 14.696 76.8215 15.0593 76.6603 15.471C76.4992 15.8826 76.3226 16.3366 76.1304 16.8331C75.9383 17.3296 75.7431 17.8503 75.5448 18.3951H79.2077C79.0093 17.8502 78.8172 17.3295 78.6313 16.8331C78.4454 16.3367 78.2687 15.8826 78.1013 15.471C77.9339 15.0593 77.7883 14.6961 77.6644 14.3812C77.5404 14.0664 77.4412 13.8182 77.3669 13.6366ZM93.4683 13.8182C92.9105 15.6586 92.3279 17.384 91.7205 18.9944C91.1132 20.6048 90.45 22.1668 89.7311 23.6803C89.4708 24.2251 89.2105 24.6883 88.9502 25.0697C88.6899 25.4511 88.4048 25.7659 88.0949 26.0142C87.7853 26.2622 87.4282 26.4475 87.0444 26.559C86.654 26.674 86.1985 26.7316 85.6779 26.7316C85.2749 26.7347 84.8728 26.6951 84.4786 26.6135C84.113 26.5348 83.8124 26.447 83.5769 26.3502L84.0603 24.1888C84.3082 24.2761 84.5632 24.3429 84.8226 24.3886C85.0562 24.4258 85.2925 24.444 85.5291 24.4432C86.025 24.4432 86.4061 24.313 86.6726 24.0526C86.9391 23.7923 87.1652 23.432 87.3512 22.972C86.719 21.7611 86.0869 20.402 85.4547 18.8945C84.8225 17.3871 84.2276 15.6949 83.6698 13.8182H86.6075C86.7315 14.2904 86.8771 14.802 87.0444 15.3529C87.2118 15.9038 87.3884 16.4608 87.5743 17.0238C87.7603 17.5869 87.9493 18.1348 88.1414 18.6675C88.3335 19.2003 88.5163 19.6846 88.6899 20.1205C88.851 19.6846 89.0184 19.2003 89.1919 18.6675C89.3654 18.1348 89.5359 17.5869 89.7032 17.0238C89.8705 16.4608 90.0317 15.9038 90.1866 15.3529C90.3415 14.802 90.481 14.2904 90.6049 13.8182L93.4683 13.8182ZM103.843 18.5767C103.843 19.3274 103.732 20.0146 103.508 20.6381C103.285 21.2617 102.963 21.7944 102.542 22.2364C102.117 22.6803 101.601 23.0302 101.026 23.2626C100.437 23.5047 99.7774 23.6258 99.0461 23.6258C98.3271 23.6258 97.6733 23.5047 97.0845 23.2626C96.5102 23.0302 95.9935 22.6803 95.5692 22.2364C95.1478 21.7944 94.8193 21.2617 94.5838 20.6381C94.3482 20.0145 94.2305 19.3274 94.2305 18.5767C94.2305 17.826 94.3513 17.1419 94.5931 16.5244C94.8348 15.9069 95.1695 15.3802 95.5971 14.9443C96.028 14.5061 96.5471 14.1599 97.1217 13.9272C97.7105 13.685 98.3519 13.5639 99.0461 13.5639C99.7526 13.5639 100.4 13.685 100.989 13.9272C101.562 14.1585 102.078 14.505 102.504 14.9443C102.926 15.3802 103.254 15.9069 103.49 16.5244C103.725 17.1419 103.843 17.826 103.843 18.5767L103.843 18.5767ZM101.017 18.5767C101.017 17.7413 100.847 17.0844 100.506 16.6061C100.165 16.1279 99.6783 15.8887 99.046 15.8887C98.4139 15.8887 97.9243 16.1278 97.5772 16.6061C97.2301 17.0844 97.0566 17.7412 97.0566 18.5767C97.0566 19.4121 97.2301 20.0751 97.5772 20.5655C97.9243 21.0558 98.4139 21.301 99.046 21.301C99.6782 21.301 100.165 21.0558 100.506 20.5655C100.846 20.0751 101.017 19.4122 101.017 18.5767L101.017 18.5767ZM109.793 20.0297C109.793 19.5696 109.861 19.1488 109.997 18.7674C110.127 18.398 110.312 18.0492 110.546 17.7322C110.773 17.4255 111.042 17.1506 111.345 16.9149C111.646 16.6806 111.967 16.471 112.303 16.2883C112.003 15.9335 111.735 15.5537 111.503 15.1531C111.267 14.7463 111.146 14.2858 111.15 13.8182C111.15 12.7527 111.479 11.9324 112.135 11.3572C112.792 10.7821 113.697 10.4945 114.85 10.4945C115.433 10.4945 115.941 10.5702 116.375 10.7216C116.808 10.8729 117.171 11.0787 117.462 11.339C117.748 11.591 117.973 11.901 118.122 12.2471C118.273 12.601 118.349 12.9809 118.346 13.3641C118.346 14.1027 118.132 14.7596 117.704 15.3347C117.276 15.9098 116.734 16.3911 116.077 16.7786L118.16 18.8128C118.271 18.5706 118.38 18.2649 118.485 17.8956C118.59 17.5263 118.655 17.2024 118.68 16.9239L120.986 17.2145C120.957 17.468 120.913 17.7196 120.856 17.9683C120.794 18.2407 120.716 18.5162 120.623 18.7946C120.53 19.0731 120.425 19.3516 120.307 19.6302C120.197 19.8924 120.07 20.1472 119.926 20.393C120.338 20.8482 120.726 21.3241 121.088 21.8187C121.452 22.3118 121.779 22.8309 122.064 23.3716H119.219C119.12 23.2141 118.984 23.0174 118.81 22.7813C118.654 22.5651 118.48 22.3616 118.29 22.1728C117.794 22.5603 117.218 22.8842 116.561 23.1445C115.904 23.4048 115.166 23.535 114.348 23.5351C113.48 23.5351 112.755 23.4291 112.173 23.2172C111.59 23.0053 111.122 22.7329 110.769 22.3999C110.416 22.0669 110.165 21.6916 110.016 21.2738C109.87 20.8743 109.795 20.4537 109.793 20.0297L109.793 20.0297ZM112.377 19.7573C112.379 19.95 112.417 20.1407 112.489 20.3203C112.569 20.5223 112.692 20.7051 112.851 20.8561C113.019 21.0195 113.232 21.1527 113.493 21.2557C113.753 21.3586 114.069 21.41 114.441 21.41C114.962 21.41 115.417 21.3434 115.808 21.2102C116.198 21.0771 116.523 20.9015 116.784 20.6835L113.809 17.7594C113.629 17.8476 113.458 17.9509 113.297 18.0682C113.128 18.1913 112.975 18.3347 112.842 18.495C112.703 18.6625 112.59 18.8492 112.507 19.0489C112.421 19.2547 112.377 19.4909 112.377 19.7572L112.377 19.7573ZM115.984 13.4913C115.986 13.2183 115.887 12.9539 115.705 12.7466C115.519 12.5287 115.209 12.4197 114.776 12.4197C114.379 12.4197 114.072 12.5378 113.855 12.7739C113.638 13.01 113.53 13.3157 113.53 13.6911C113.53 14.0059 113.623 14.3116 113.809 14.6083C114.009 14.9215 114.253 15.2058 114.534 15.4528C114.915 15.2469 115.26 14.9833 115.557 14.6718C115.842 14.3691 115.984 13.9756 115.984 13.4913L115.984 13.4913ZM134.075 23.6258C131.98 23.6258 130.384 23.0568 129.287 21.9186C128.19 20.7804 127.642 19.164 127.642 17.0693C127.642 16.028 127.809 15.0987 128.144 14.2814C128.479 13.4641 128.937 12.7739 129.52 12.2108C130.102 11.6478 130.796 11.221 131.602 10.9304C132.408 10.6398 133.282 10.4945 134.224 10.4945C134.769 10.4945 135.265 10.5339 135.711 10.6126C136.107 10.6795 136.498 10.7705 136.882 10.885C137.217 10.9879 137.496 11.0939 137.719 11.2029C137.942 11.3118 138.103 11.3966 138.203 11.4571L137.366 13.7456C136.969 13.5397 136.508 13.3642 135.981 13.2189C135.454 13.0735 134.856 13.0009 134.187 13.0009C133.74 13.0009 133.297 13.0746 132.876 13.2189C132.448 13.3642 132.06 13.6034 131.742 13.9181C131.413 14.239 131.15 14.6537 130.951 15.1622C130.753 15.6708 130.654 16.2883 130.654 17.0148C130.654 17.596 130.719 18.1378 130.849 18.6402C130.979 19.1427 131.19 19.5755 131.481 19.9388C131.773 20.3021 132.154 20.5896 132.625 20.8015C133.096 21.0134 133.666 21.1194 134.335 21.1194C134.715 21.1222 135.094 21.0979 135.469 21.0467C135.77 21.005 136.068 20.9474 136.362 20.8742C136.597 20.816 136.827 20.7401 137.05 20.6472C137.248 20.5624 137.428 20.4837 137.589 20.411L138.389 22.6813C137.979 22.9235 137.403 23.1414 136.659 23.3352C135.916 23.5289 135.054 23.6258 134.075 23.6258L134.075 23.6258ZM148.986 18.5767C148.986 19.3275 148.875 20.0146 148.652 20.6382C148.429 21.2617 148.106 21.7945 147.685 22.2364C147.261 22.6803 146.744 23.0302 146.17 23.2626C145.581 23.5048 144.921 23.6258 144.19 23.6258C143.471 23.6258 142.817 23.5048 142.228 23.2626C141.654 23.0302 141.137 22.6803 140.713 22.2364C140.291 21.7945 139.963 21.2617 139.727 20.6382C139.492 20.0146 139.374 19.3275 139.374 18.5767C139.374 17.826 139.495 17.1419 139.737 16.5244C139.978 15.9069 140.313 15.3802 140.741 14.9443C141.172 14.5062 141.691 14.1599 142.265 13.9272C142.854 13.6851 143.495 13.564 144.19 13.564C144.896 13.564 145.544 13.6851 146.132 13.9272C146.705 14.1585 147.221 14.5051 147.648 14.9443C148.069 15.3802 148.398 15.9069 148.633 16.5244C148.869 17.1419 148.987 17.826 148.986 18.5767L148.986 18.5767ZM146.16 18.5767C146.16 17.7413 145.99 17.0844 145.649 16.6062C145.308 16.1279 144.822 15.8887 144.19 15.8887C143.557 15.8887 143.068 16.1279 142.721 16.6062C142.374 17.0844 142.2 17.7413 142.2 18.5767C142.2 19.4122 142.374 20.0751 142.721 20.5655C143.068 21.0559 143.557 21.3011 144.19 21.3011C144.822 21.3011 145.308 21.0559 145.649 20.5655C145.99 20.0751 146.16 19.4122 146.16 18.5767L146.16 18.5767ZM156.498 18.3043C156.498 17.4325 156.383 16.815 156.154 16.4518C155.925 16.0885 155.531 15.9069 154.973 15.9069C154.8 15.9069 154.62 15.916 154.434 15.9342C154.248 15.9523 154.068 15.9735 153.895 15.9977V23.3715H151.125V14.1451C151.36 14.0845 151.636 14.021 151.952 13.9543C152.268 13.8877 152.603 13.8272 152.956 13.7727C153.309 13.7182 153.672 13.6759 154.044 13.6456C154.416 13.6153 154.781 13.6002 155.141 13.6002C155.847 13.6002 156.421 13.688 156.861 13.8635C157.301 14.0391 157.663 14.248 157.948 14.4901C158.345 14.2117 158.8 13.9937 159.315 13.8363C159.829 13.6789 160.303 13.6002 160.737 13.6002C161.518 13.6002 162.16 13.7061 162.662 13.918C163.164 14.1299 163.563 14.4296 163.861 14.8171C164.158 15.2045 164.363 15.6646 164.474 16.1974C164.586 16.7301 164.642 17.3234 164.642 17.9773V23.3715H161.871V18.3043C161.871 17.4325 161.757 16.815 161.527 16.4517C161.298 16.0885 160.904 15.9069 160.347 15.9069C160.198 15.9069 159.99 15.9432 159.724 16.0158C159.457 16.0885 159.237 16.1793 159.064 16.2883C159.152 16.575 159.208 16.8704 159.231 17.1691C159.256 17.4778 159.268 17.8078 159.268 18.1589V23.3715H156.498L156.498 18.3043ZM173.417 18.6676C173.417 17.8321 173.225 17.1631 172.841 16.6606C172.457 16.1581 171.887 15.9069 171.131 15.9069C170.883 15.9069 170.653 15.916 170.443 15.9342C170.232 15.9523 170.058 15.9735 169.922 15.9977V20.8834C170.096 20.9923 170.322 21.0832 170.601 21.1558C170.877 21.2281 171.161 21.2647 171.447 21.2648C172.76 21.2647 173.417 20.399 173.417 18.6675L173.417 18.6676ZM176.244 18.5949C176.244 19.3335 176.151 20.0055 175.965 20.6109C175.779 21.2163 175.506 21.7369 175.147 22.1728C174.787 22.6087 174.329 22.9569 173.808 23.1899C173.275 23.432 172.661 23.5531 171.967 23.5531C171.605 23.5553 171.243 23.5188 170.889 23.4441C170.557 23.3723 170.233 23.2689 169.922 23.1353V26.7315H167.152V14.1451C167.4 14.0724 167.685 14.0028 168.007 13.9362C168.329 13.8696 168.667 13.8121 169.02 13.7637C169.373 13.7152 169.733 13.6759 170.099 13.6456C170.464 13.6153 170.814 13.6002 171.149 13.6002C171.955 13.6002 172.674 13.7183 173.306 13.9544C173.938 14.1905 174.471 14.5235 174.905 14.9533C175.339 15.3831 175.67 15.9068 175.9 16.5243C176.129 17.1419 176.244 17.832 176.244 18.5949L176.244 18.5949ZM182.119 21.4827C182.392 21.4827 182.652 21.4766 182.9 21.4645C183.099 21.457 183.298 21.4388 183.495 21.41V19.3577C183.383 19.3334 183.216 19.3092 182.993 19.285C182.789 19.2619 182.584 19.2498 182.379 19.2487C182.134 19.2478 181.888 19.263 181.645 19.2942C181.435 19.3188 181.231 19.3771 181.041 19.4667C180.875 19.5444 180.734 19.6634 180.632 19.8118C180.532 19.9571 180.483 20.1387 180.483 20.3566C180.483 20.7804 180.628 21.074 180.92 21.2375C181.211 21.401 181.611 21.4827 182.119 21.4826L182.119 21.4827ZM181.896 13.564C182.714 13.564 183.396 13.6548 183.941 13.8364C184.486 14.018 184.923 14.2784 185.252 14.6174C185.58 14.9564 185.813 15.3681 185.949 15.8524C186.085 16.3368 186.154 16.8756 186.154 17.4689V23.0991C185.757 23.1838 185.205 23.2837 184.499 23.3988C183.792 23.5138 182.937 23.5713 181.933 23.5713C181.301 23.5713 180.728 23.5168 180.213 23.4078C179.699 23.2989 179.256 23.1203 178.884 22.8721C178.515 22.6279 178.22 22.2926 178.028 21.9004C177.83 21.5008 177.731 21.0104 177.731 20.4292C177.731 19.8723 177.846 19.4001 178.075 19.0126C178.297 18.6328 178.613 18.3141 178.995 18.0863C179.38 17.8563 179.82 17.6898 180.315 17.5869C180.823 17.4828 181.34 17.431 181.859 17.4325C182.178 17.4305 182.498 17.4457 182.816 17.4779C183.095 17.5081 183.321 17.5475 183.495 17.5959V17.3417C183.495 16.8815 183.352 16.5122 183.067 16.2338C182.782 15.9553 182.286 15.816 181.58 15.816C181.113 15.8157 180.647 15.8491 180.185 15.9159C179.726 15.9825 179.33 16.0763 178.995 16.1974L178.642 14.0179C178.803 13.9695 179.004 13.918 179.246 13.8635C179.488 13.809 179.751 13.7606 180.036 13.7182C180.321 13.6759 180.622 13.6395 180.938 13.6092C181.254 13.579 181.573 13.5639 181.896 13.5639L181.896 13.564ZM188.664 14.1451C189.135 14.0119 189.742 13.8878 190.486 13.7727C191.261 13.6554 192.044 13.5977 192.828 13.6002C193.659 13.6002 194.35 13.7061 194.901 13.918C195.453 14.1299 195.89 14.4296 196.212 14.8171C196.535 15.2045 196.764 15.6647 196.9 16.1974C197.036 16.7302 197.105 17.3235 197.105 17.9773V23.3715H194.334V18.3043C194.334 17.4325 194.217 16.815 193.981 16.4517C193.746 16.0885 193.306 15.9069 192.661 15.9069C192.463 15.9069 192.252 15.9159 192.029 15.9341C191.806 15.9523 191.608 15.9735 191.434 15.9977V23.3715H188.664V14.1451ZM208 13.8181C207.442 15.6586 206.86 17.384 206.252 18.9944C205.645 20.6048 204.982 22.1667 204.263 23.6803C204.003 24.2252 203.742 24.6883 203.482 25.0697C203.222 25.4511 202.937 25.7659 202.627 26.0142C202.317 26.2622 201.96 26.4475 201.576 26.559C201.186 26.674 200.73 26.7316 200.21 26.7316C199.807 26.7347 199.405 26.6951 199.01 26.6135C198.645 26.5348 198.344 26.447 198.109 26.3502L198.592 24.1888C198.84 24.2761 199.095 24.3429 199.354 24.3886C199.588 24.4258 199.824 24.444 200.061 24.4432C200.557 24.4432 200.938 24.313 201.204 24.0526C201.471 23.7923 201.697 23.4321 201.883 22.972C201.251 21.7612 200.619 20.402 199.987 18.8946C199.354 17.3871 198.759 15.695 198.202 13.8182H201.139C201.263 14.2904 201.409 14.802 201.576 15.3529C201.743 15.9038 201.92 16.4608 202.106 17.0238C202.292 17.5869 202.481 18.1348 202.673 18.6675C202.865 19.2003 203.048 19.6846 203.222 20.1205C203.383 19.6846 203.55 19.2003 203.724 18.6675C203.897 18.1348 204.068 17.5869 204.235 17.0238C204.402 16.4608 204.563 15.9038 204.718 15.3529C204.873 14.802 205.013 14.2904 205.137 13.8182L208 13.8181Z" fill="#EFEFEF"/>
<path d="M73.7395 37.517C73.2997 37.517 72.9051 37.4361 72.5555 37.2743C72.2043 37.1111 71.8994 36.8663 71.6676 36.5612C71.4251 36.2477 71.2391 35.865 71.1094 35.4132C70.9797 34.9614 70.9149 34.4422 70.9149 33.8556C70.9149 33.269 70.9896 32.7498 71.139 32.298C71.2884 31.8462 71.4927 31.4636 71.7521 31.15C71.9971 30.8476 72.3095 30.6038 72.6654 30.437C73.017 30.2747 73.4014 30.1917 73.7902 30.1942C74.0119 30.1921 74.2331 30.2141 74.4498 30.2599C74.625 30.2974 74.7973 30.3464 74.9658 30.4066C75.0928 30.4512 75.2147 30.5089 75.3294 30.5786C75.4252 30.6392 75.4929 30.6831 75.5324 30.71L75.2195 31.7518C75.0842 31.6507 74.8911 31.5546 74.6402 31.4635C74.3787 31.3707 74.1023 31.3245 73.8241 31.327C73.5782 31.3253 73.3351 31.379 73.1138 31.4838C72.8876 31.5935 72.6918 31.7548 72.543 31.9541C72.3823 32.1631 72.2568 32.4261 72.1665 32.743C72.0763 33.0599 72.0312 33.4274 72.0312 33.8455C72.0283 34.1888 72.0638 34.5313 72.1369 34.8671C72.2074 35.1772 72.3159 35.4453 72.4625 35.6711C72.6008 35.8892 72.7926 36.07 73.0207 36.1971C73.2462 36.3218 73.5168 36.3842 73.8325 36.3842C74.2103 36.3842 74.5175 36.3387 74.7543 36.2477C74.9911 36.1566 75.1743 36.0707 75.304 35.9898L75.5915 37.0315C75.5067 37.0957 75.4144 37.15 75.3167 37.1934C75.1835 37.2541 75.0465 37.3064 74.9065 37.3501C74.7325 37.4044 74.5544 37.445 74.3737 37.4715C74.1639 37.5028 73.9518 37.518 73.7395 37.517ZM76.4795 37.3653V29.7188L77.5028 29.5165V32.1362C77.6299 32.0845 77.7615 32.0439 77.896 32.0148C78.0416 31.9815 78.1905 31.9645 78.34 31.9642C78.6952 31.9642 78.9897 32.0232 79.2237 32.1412C79.4528 32.2549 79.6468 32.4259 79.7861 32.6368C79.9271 32.8492 80.0271 33.1037 80.0863 33.4005C80.1483 33.7273 80.178 34.0593 80.1751 34.3917V37.3653H79.1518V34.5839C79.1546 34.342 79.1391 34.1002 79.1053 33.8606C79.0743 33.6617 79.0235 33.4999 78.9531 33.3751C78.89 33.2575 78.791 33.1621 78.6697 33.1021C78.5513 33.0448 78.4048 33.0161 78.23 33.0161C78.0903 33.0167 77.9511 33.0336 77.8156 33.0667C77.7093 33.0901 77.6048 33.1205 77.5027 33.1577V37.3653L76.4795 37.3653ZM82.9574 36.5057C83.2731 36.5057 83.5127 36.4854 83.6762 36.445V35.0896C83.5962 35.0634 83.5142 35.0431 83.431 35.0289C83.3139 35.0078 83.1949 34.9976 83.0759 34.9986C82.961 34.9987 82.8464 35.0089 82.7334 35.0289C82.623 35.0473 82.517 35.085 82.4205 35.1402C82.3264 35.1952 82.249 35.2738 82.1963 35.3677C82.1399 35.4655 82.1116 35.5886 82.1116 35.737C82.1116 36.0269 82.1877 36.2275 82.34 36.3388C82.4922 36.4501 82.698 36.5057 82.9574 36.5057ZM82.8728 31.9441C83.2111 31.9441 83.4958 31.9946 83.727 32.0958C83.9463 32.1879 84.1373 32.3343 84.2809 32.5206C84.419 32.7027 84.5177 32.9235 84.5769 33.1831C84.6383 33.4639 84.6681 33.7505 84.6657 34.0377V37.244C84.5079 37.2844 84.2697 37.3333 83.9511 37.3906C83.5951 37.451 83.2342 37.4798 82.8728 37.4766C82.6273 37.4791 82.3825 37.4484 82.1456 37.3856C81.9376 37.3311 81.7452 37.2308 81.5832 37.0922C81.4281 36.9574 81.3069 36.782 81.2195 36.5663C81.1321 36.3505 81.0884 36.0842 81.0885 35.7673C81.0885 35.4638 81.1378 35.2076 81.2365 34.9986C81.3271 34.7997 81.4648 34.6246 81.6381 34.4878C81.8116 34.3542 82.0118 34.2577 82.2259 34.2046C82.4537 34.1466 82.6882 34.1177 82.9236 34.1186C83.0424 34.119 83.1611 34.1275 83.2787 34.1439C83.4132 34.163 83.5461 34.1917 83.6763 34.2299V34.0276C83.6769 33.8916 83.6627 33.756 83.634 33.623C83.6087 33.5014 83.5583 33.3861 83.486 33.2841C83.4149 33.1858 83.3187 33.1074 83.2069 33.0566C83.0913 33.0026 82.9462 32.9757 82.7714 32.9757C82.5528 32.9739 82.3345 32.9943 82.1202 33.0363C81.955 33.0672 81.7934 33.1146 81.6382 33.1779L81.5113 32.1867C81.641 32.1328 81.8299 32.0788 82.0779 32.0249C82.3391 31.9696 82.6056 31.9426 82.8728 31.9441ZM88.4374 33.178C88.3229 33.1351 88.2057 33.0996 88.0865 33.0718C87.9161 33.0324 87.7414 33.0137 87.5664 33.0162C87.4454 33.0171 87.3249 33.0306 87.207 33.0566C87.1165 33.0736 87.0274 33.0973 86.9406 33.1274V37.3653H85.9173V32.3283C86.1567 32.2264 86.4042 32.1435 86.6573 32.0805C86.9791 31.9999 87.3103 31.9608 87.6425 31.9642C87.7216 31.965 87.8007 31.9701 87.8793 31.9795C87.9695 31.9897 88.0597 32.0031 88.1499 32.0199C88.2401 32.0367 88.3275 32.0569 88.412 32.0806C88.4808 32.099 88.5486 32.121 88.615 32.1463L88.4374 33.178ZM89.2746 30.6798L90.2979 30.4775V32.0756H91.8709V33.097H90.2979V35.2514C90.2979 35.6762 90.3543 35.9796 90.4671 36.1617C90.5798 36.3437 90.7715 36.4348 91.0421 36.4348C91.2099 36.4375 91.377 36.4135 91.5369 36.364C91.6537 36.3272 91.7681 36.2833 91.8794 36.2325L92.0485 37.2034C91.8984 37.2769 91.743 37.3395 91.5834 37.3905C91.3917 37.4545 91.1662 37.4865 90.9068 37.4865C90.5912 37.4865 90.3276 37.4359 90.1162 37.3348C89.9092 37.2375 89.7348 37.085 89.613 36.8948C89.489 36.7026 89.4016 36.47 89.3508 36.1969C89.2971 35.8879 89.2715 35.5749 89.2746 35.2615L89.2746 30.6798ZM92.539 34.7457C92.539 34.2804 92.5968 33.8725 92.7123 33.5218C92.8279 33.1712 92.9815 32.8796 93.1732 32.6469C93.3503 32.4259 93.5757 32.2462 93.8329 32.121C94.0693 32.0057 94.3297 31.9451 94.594 31.944C95.2029 31.944 95.6779 32.1699 96.019 32.6216C96.3601 33.0734 96.5306 33.7477 96.5306 34.6445C96.5306 34.7119 96.5292 34.7878 96.5264 34.8721C96.5236 34.9563 96.5193 35.0322 96.5137 35.0996H93.5961C93.6243 35.5244 93.7497 35.8532 93.9724 36.0858C94.1951 36.3185 94.5179 36.4348 94.9407 36.4348C95.1703 36.437 95.3992 36.4098 95.6215 36.3538C95.8273 36.2999 95.9894 36.2426 96.1078 36.1819L96.2431 37.1832C96.1689 37.2252 96.091 37.2607 96.0105 37.2894C95.9 37.3301 95.7871 37.3638 95.6722 37.3906C95.5454 37.4209 95.4087 37.4462 95.2621 37.4664C95.1136 37.4868 94.9638 37.4969 94.8139 37.4968C94.4249 37.4968 94.0866 37.4277 93.7991 37.2895C93.518 37.1564 93.2742 36.9586 93.0888 36.713C92.9027 36.4668 92.7645 36.1769 92.6743 35.8431C92.5809 35.4845 92.5355 35.1157 92.539 34.7457ZM95.5074 34.1995C95.5082 34.0376 95.4883 33.8762 95.4482 33.7191C95.4138 33.5789 95.3552 33.4455 95.2748 33.3246C95.2032 33.2176 95.1078 33.1277 94.9957 33.0616C94.8761 32.9951 94.7401 32.9619 94.6025 32.9656C94.4569 32.9624 94.3133 32.9992 94.1881 33.0718C94.0692 33.1431 93.967 33.2378 93.8879 33.35C93.8032 33.4706 93.739 33.6038 93.6976 33.7444C93.6524 33.8931 93.6213 34.0454 93.6046 34.1996L95.5074 34.1995ZM100.133 33.178C100.019 33.1351 99.9015 33.0996 99.7823 33.0717C99.6119 33.0323 99.4372 33.0136 99.2622 33.0161C99.1412 33.017 99.0207 33.0306 98.9027 33.0566C98.8122 33.0736 98.7232 33.0972 98.6363 33.1274V37.3653H97.6131V32.3283C97.8525 32.2264 98.1 32.1435 98.353 32.0805C98.6748 31.9999 99.0061 31.9608 99.3383 31.9642C99.4174 31.965 99.4965 31.9701 99.575 31.9795C99.6652 31.9897 99.7554 32.0031 99.8456 32.0199C99.9358 32.0367 100.023 32.0569 100.108 32.0806C100.177 32.099 100.244 32.121 100.311 32.1463L100.133 33.178ZM100.776 34.7457C100.776 34.2804 100.834 33.8725 100.949 33.5218C101.065 33.1712 101.219 32.8796 101.41 32.6469C101.587 32.4259 101.813 32.2462 102.07 32.121C102.306 32.0057 102.567 31.9451 102.831 31.944C103.44 31.944 103.915 32.1699 104.256 32.6216C104.597 33.0734 104.768 33.7477 104.768 34.6445C104.768 34.7119 104.766 34.7878 104.763 34.8721C104.761 34.9563 104.756 35.0322 104.751 35.0996H101.833C101.861 35.5244 101.987 35.8532 102.209 36.0858C102.432 36.3185 102.755 36.4348 103.178 36.4348C103.407 36.437 103.636 36.4098 103.858 36.3538C104.064 36.2999 104.226 36.2426 104.345 36.1819L104.48 37.1832C104.406 37.2252 104.328 37.2607 104.247 37.2894C104.137 37.3301 104.024 37.3638 103.909 37.3906C103.782 37.4209 103.646 37.4462 103.499 37.4664C103.351 37.4868 103.201 37.4969 103.051 37.4968C102.662 37.4968 102.324 37.4277 102.036 37.2895C101.755 37.1564 101.511 36.9586 101.326 36.713C101.14 36.4668 101.001 36.1769 100.911 35.8431C100.818 35.4845 100.772 35.1157 100.776 34.7457ZM103.744 34.1995C103.745 34.0376 103.725 33.8762 103.685 33.7191C103.651 33.5789 103.592 33.4455 103.512 33.3246C103.44 33.2176 103.345 33.1277 103.233 33.0616C103.113 32.9951 102.977 32.9619 102.839 32.9656C102.694 32.9624 102.55 32.9992 102.425 33.0718C102.306 33.1431 102.204 33.2378 102.125 33.35C102.04 33.4706 101.976 33.6038 101.935 33.7444C101.889 33.8931 101.858 34.0454 101.842 34.1996L103.744 34.1995ZM106.653 34.7052C106.653 35.2447 106.761 35.6678 106.975 35.9746C107.189 36.2814 107.485 36.4348 107.863 36.4348C108.003 36.4363 108.143 36.4278 108.281 36.4095C108.377 36.3967 108.472 36.3781 108.565 36.3539V33.3195C108.455 33.2343 108.334 33.1645 108.205 33.1123C108.055 33.048 107.892 33.0153 107.727 33.0163C107.355 33.0163 107.083 33.168 106.911 33.4714C106.739 33.7748 106.654 34.1861 106.653 34.7052ZM109.588 37.2034C109.339 37.29 109.083 37.3577 108.823 37.4057C108.504 37.4675 108.179 37.498 107.854 37.4967C107.505 37.4967 107.192 37.4327 106.916 37.3046C106.64 37.1768 106.398 36.9881 106.209 36.7534C106.015 36.514 105.865 36.2241 105.761 35.8835C105.657 35.543 105.605 35.1604 105.605 34.7356C105.605 34.3175 105.649 33.9382 105.736 33.5977C105.823 33.2572 105.952 32.9655 106.121 32.7228C106.278 32.4906 106.49 32.2982 106.738 32.1614C106.98 32.0299 107.26 31.9642 107.575 31.9642C107.768 31.9607 107.96 31.9915 108.142 32.0552C108.29 32.1083 108.431 32.1761 108.565 32.2575V29.7188L109.588 29.5165L109.588 37.2034ZM114.569 30.2851C115.42 30.2851 116.073 30.4706 116.527 30.8415C116.981 31.2124 117.208 31.7923 117.208 32.5812C117.208 32.9925 117.147 33.3448 117.026 33.6381C116.905 33.9315 116.728 34.1709 116.497 34.3563C116.266 34.5417 115.984 34.6783 115.651 34.7659C115.319 34.8536 114.938 34.8974 114.51 34.8974H113.977V37.3653H112.911V30.4572C113.181 30.3861 113.457 30.3404 113.736 30.3206C114.038 30.297 114.315 30.2851 114.569 30.2851ZM114.645 31.3876C114.422 31.3853 114.199 31.3955 113.977 31.418V33.8049H114.493C115.006 33.8049 115.401 33.7189 115.677 33.547C115.953 33.375 116.091 33.0497 116.091 32.5709C116.091 32.3417 116.055 32.1495 115.981 31.9944C115.916 31.8483 115.81 31.7224 115.677 31.6303C115.538 31.5386 115.381 31.475 115.216 31.4432C115.028 31.4051 114.837 31.3864 114.645 31.3876ZM120.649 33.1779C120.535 33.135 120.418 33.0995 120.299 33.0717C120.128 33.0322 119.953 33.0136 119.778 33.016C119.657 33.0169 119.537 33.0305 119.419 33.0565C119.329 33.0735 119.239 33.0972 119.153 33.1273V37.3653H118.129V32.3283C118.369 32.2264 118.616 32.1435 118.869 32.0805C119.191 31.9999 119.522 31.9608 119.855 31.9642C119.934 31.965 120.013 31.9701 120.091 31.9795C120.181 31.9897 120.272 32.0031 120.362 32.0199C120.452 32.0367 120.54 32.0569 120.624 32.0806C120.693 32.099 120.761 32.121 120.827 32.1463L120.649 33.1779ZM125.538 34.7153C125.538 35.1333 125.487 35.5143 125.385 35.8582C125.284 36.2021 125.14 36.4954 124.954 36.7381C124.776 36.9739 124.547 37.1675 124.282 37.3045C124.014 37.4407 123.716 37.5102 123.415 37.5068C123.115 37.5105 122.818 37.441 122.552 37.3045C122.289 37.1666 122.061 36.9731 121.884 36.7381C121.698 36.4954 121.553 36.2021 121.449 35.8582C121.344 35.5143 121.292 35.1333 121.292 34.7153C121.292 34.2972 121.344 33.9179 121.449 33.5774C121.553 33.2369 121.699 32.9453 121.888 32.7025C122.067 32.4686 122.296 32.2767 122.561 32.1411C122.825 32.0085 123.118 31.9408 123.415 31.9439C123.713 31.9412 124.008 32.0088 124.273 32.1411C124.539 32.2753 124.769 32.4674 124.945 32.7025C125.132 32.9452 125.277 33.2369 125.381 33.5774C125.485 33.9179 125.538 34.2972 125.538 34.7153ZM124.489 34.7153C124.489 34.1893 124.394 33.7729 124.206 33.4661C124.017 33.1593 123.753 33.0059 123.415 33.0059C123.077 33.0059 122.813 33.1593 122.624 33.4661C122.435 33.7729 122.341 34.1893 122.341 34.7153C122.341 35.248 122.435 35.6694 122.624 35.9796C122.813 36.2897 123.077 36.4448 123.415 36.4448C123.753 36.4448 124.017 36.2897 124.206 35.9796C124.394 35.6694 124.489 35.2479 124.489 34.7153ZM128.396 29.5166C128.607 29.5134 128.818 29.539 129.022 29.5925C129.16 29.6287 129.296 29.6743 129.428 29.729L129.233 30.7405C129.128 30.6828 129.016 30.6387 128.899 30.609C128.765 30.5744 128.627 30.5574 128.489 30.5584C128.325 30.5584 128.187 30.5871 128.074 30.6444C127.965 30.6992 127.871 30.7811 127.804 30.8821C127.732 30.9947 127.683 31.1202 127.66 31.2513C127.631 31.4064 127.617 31.5639 127.618 31.7216V32.0756H129.225V33.097H127.618V37.3653H126.595V31.7013C126.595 31.0203 126.744 30.4859 127.043 30.0982C127.342 29.7105 127.793 29.5166 128.396 29.5166ZM129.647 34.7458C129.647 34.2805 129.705 33.8726 129.821 33.5219C129.936 33.1713 130.09 32.8797 130.282 32.647C130.459 32.426 130.684 32.2463 130.941 32.1211C131.178 32.0058 131.438 31.9452 131.702 31.9441C132.311 31.9441 132.786 32.1699 133.127 32.6217C133.469 33.0735 133.639 33.7478 133.639 34.6446C133.639 34.712 133.638 34.7879 133.635 34.8722C133.632 34.9564 133.628 35.0323 133.622 35.0997H130.705C130.733 35.5245 130.858 35.8533 131.081 36.0859C131.304 36.3186 131.626 36.4349 132.049 36.4348C132.279 36.437 132.508 36.4098 132.73 36.3539C132.936 36.2999 133.098 36.2426 133.216 36.1819L133.351 37.1833C133.277 37.2252 133.199 37.2608 133.119 37.2895C133.008 37.3301 132.895 37.3639 132.781 37.3906C132.654 37.421 132.517 37.4462 132.37 37.4665C132.222 37.4868 132.072 37.497 131.922 37.4968C131.533 37.4968 131.195 37.4277 130.907 37.2896C130.626 37.1565 130.383 36.9586 130.197 36.713C130.011 36.4669 129.873 36.177 129.783 35.8432C129.689 35.4846 129.644 35.1158 129.647 34.7458ZM132.616 34.1996C132.617 34.0377 132.597 33.8763 132.557 33.7192C132.522 33.579 132.464 33.4456 132.383 33.3247C132.312 33.2177 132.216 33.1278 132.104 33.0617C131.985 32.9952 131.849 32.962 131.711 32.9657C131.565 32.9625 131.422 32.9992 131.297 33.0717C131.178 33.143 131.075 33.2377 130.996 33.3499C130.912 33.4706 130.847 33.6037 130.806 33.7444C130.761 33.893 130.73 34.0453 130.713 34.1995L132.616 34.1996ZM135.829 36.4854C136.1 36.4854 136.297 36.4466 136.421 36.369C136.545 36.2915 136.607 36.1583 136.607 35.9695C136.609 35.8872 136.592 35.8054 136.558 35.7302C136.524 35.655 136.473 35.5882 136.409 35.5346C136.276 35.42 136.058 35.2952 135.753 35.1604C135.577 35.0847 135.406 34.9985 135.241 34.9025C135.092 34.8161 134.957 34.7088 134.84 34.5839C134.723 34.4555 134.632 34.306 134.573 34.1439C134.509 33.972 134.476 33.7613 134.476 33.5118C134.476 33.0263 134.626 32.6436 134.924 32.3638C135.223 32.084 135.629 31.9441 136.142 31.9441C136.393 31.943 136.643 31.9719 136.886 32.03C137.123 32.0873 137.301 32.143 137.419 32.1969L137.233 33.1881C137.096 33.1178 136.951 33.0619 136.802 33.0212C136.604 32.9676 136.398 32.9421 136.193 32.9454C135.984 32.9454 135.815 32.9875 135.685 33.0718C135.556 33.1561 135.491 33.2859 135.491 33.4612C135.489 33.5403 135.502 33.6191 135.529 33.6938C135.557 33.7653 135.602 33.8294 135.66 33.881C135.735 33.9473 135.817 34.005 135.905 34.0529C136.025 34.1192 136.15 34.1783 136.277 34.2299C136.49 34.3224 136.696 34.4289 136.895 34.5485C137.053 34.6437 137.194 34.7632 137.313 34.9025C137.424 35.0351 137.506 35.1882 137.554 35.3526C137.605 35.5211 137.63 35.7234 137.63 35.9594C137.63 36.4651 137.474 36.8478 137.161 37.1074C136.848 37.367 136.401 37.4968 135.821 37.4968C135.432 37.4968 135.119 37.4581 134.882 37.3805C134.645 37.303 134.479 37.2406 134.383 37.1934L134.561 36.1718C134.737 36.2554 134.92 36.3264 135.106 36.3842C135.318 36.4516 135.559 36.4854 135.829 36.4854ZM139.694 36.4854C139.965 36.4854 140.162 36.4466 140.286 36.369C140.41 36.2915 140.472 36.1583 140.472 35.9695C140.474 35.8872 140.457 35.8054 140.423 35.7302C140.388 35.655 140.337 35.5882 140.273 35.5346C140.141 35.42 139.922 35.2952 139.618 35.1604C139.442 35.0847 139.271 34.9985 139.106 34.9025C138.957 34.8161 138.822 34.7088 138.705 34.5839C138.587 34.4555 138.497 34.306 138.438 34.1439C138.373 33.972 138.341 33.7613 138.341 33.5118C138.341 33.0263 138.49 32.6436 138.789 32.3638C139.088 32.084 139.494 31.9441 140.007 31.9441C140.258 31.943 140.507 31.9719 140.751 32.03C140.988 32.0873 141.165 32.143 141.284 32.1969L141.098 33.1881C140.96 33.1178 140.816 33.0619 140.666 33.0212C140.468 32.9676 140.263 32.9421 140.058 32.9454C139.849 32.9454 139.68 32.9875 139.55 33.0718C139.421 33.1561 139.356 33.2859 139.356 33.4612C139.354 33.5403 139.367 33.6191 139.394 33.6938C139.422 33.7653 139.467 33.8294 139.525 33.881C139.599 33.9473 139.682 34.005 139.77 34.0529C139.89 34.1192 140.015 34.1783 140.142 34.2299C140.355 34.3224 140.561 34.4289 140.759 34.5485C140.918 34.6437 141.059 34.7632 141.178 34.9025C141.289 35.0351 141.371 35.1882 141.419 35.3526C141.47 35.5211 141.495 35.7234 141.495 35.9594C141.495 36.4651 141.339 36.8478 141.026 37.1074C140.713 37.367 140.266 37.4968 139.685 37.4968C139.296 37.4968 138.984 37.4581 138.747 37.3805C138.51 37.303 138.344 37.2406 138.248 37.1934L138.425 36.1718C138.602 36.2555 138.784 36.3265 138.971 36.3842C139.182 36.4517 139.424 36.4854 139.694 36.4854ZM143.483 37.3653H142.46V32.0755H143.483V37.3653ZM143.593 30.528C143.593 30.7573 143.531 30.9393 143.407 31.0742C143.283 31.209 143.136 31.2764 142.967 31.2765C142.792 31.2765 142.643 31.209 142.519 31.0742C142.395 30.9393 142.333 30.7572 142.333 30.528C142.333 30.292 142.395 30.1065 142.519 29.9716C142.643 29.8367 142.792 29.7693 142.967 29.7693C143.136 29.7693 143.283 29.8368 143.407 29.9716C143.531 30.1065 143.593 30.2919 143.593 30.528ZM148.785 34.7154C148.785 35.1334 148.735 35.5144 148.633 35.8583C148.532 36.2022 148.388 36.4955 148.202 36.7382C148.024 36.974 147.794 37.1675 147.529 37.3046C147.262 37.4408 146.964 37.5102 146.663 37.5069C146.362 37.5106 146.066 37.441 145.8 37.3046C145.537 37.1667 145.309 36.9732 145.132 36.7382C144.946 36.4955 144.801 36.2022 144.696 35.8583C144.592 35.5144 144.54 35.1334 144.54 34.7154C144.54 34.2973 144.592 33.918 144.696 33.5775C144.801 33.237 144.947 32.9453 145.136 32.7026C145.314 32.4687 145.544 32.2768 145.808 32.1412C146.072 32.0086 146.366 31.9409 146.663 31.944C146.961 31.9412 147.255 32.0089 147.521 32.1412C147.786 32.2753 148.016 32.4674 148.193 32.7026C148.379 32.9453 148.524 33.237 148.629 33.5775C148.733 33.918 148.785 34.2973 148.785 34.7154ZM147.737 34.7154C147.737 34.1894 147.642 33.773 147.453 33.4662C147.264 33.1594 147.001 33.006 146.663 33.006C146.324 33.006 146.061 33.1594 145.872 33.4662C145.683 33.773 145.589 34.1894 145.589 34.7154C145.589 35.2481 145.683 35.6695 145.872 35.9797C146.061 36.2898 146.324 36.4449 146.663 36.4449C147.001 36.4449 147.264 36.2898 147.453 35.9797C147.642 35.6695 147.737 35.248 147.737 34.7154ZM149.842 32.2474C150.04 32.18 150.296 32.1159 150.612 32.0553C150.958 31.9919 151.309 31.9614 151.661 31.9642C152.021 31.9642 152.323 32.0232 152.565 32.1412C152.8 32.2529 153 32.424 153.145 32.6368C153.288 32.8492 153.39 33.1054 153.449 33.4055C153.511 33.7308 153.54 34.061 153.538 34.3917V37.3653H152.515V34.5839C152.517 34.342 152.502 34.1002 152.468 33.8606C152.437 33.6617 152.386 33.4999 152.316 33.3751C152.252 33.2567 152.151 33.161 152.028 33.102C151.907 33.0447 151.759 33.0161 151.584 33.0161C151.449 33.0165 151.313 33.0267 151.178 33.0464C151.038 33.0666 150.933 33.0835 150.866 33.097V37.3653H149.842L149.842 32.2474ZM156.346 36.5056C156.661 36.5056 156.901 36.4854 157.064 36.4449V35.0896C156.984 35.0634 156.902 35.0431 156.819 35.0289C156.702 35.0078 156.583 34.9976 156.464 34.9986C156.349 34.9987 156.235 35.0089 156.122 35.0289C156.011 35.0473 155.905 35.085 155.809 35.1402C155.715 35.1952 155.637 35.2738 155.585 35.3677C155.528 35.4655 155.5 35.5886 155.5 35.737C155.5 36.0269 155.576 36.2275 155.728 36.3388C155.88 36.4501 156.086 36.5057 156.346 36.5056ZM156.261 31.944C156.599 31.944 156.884 31.9946 157.115 32.0957C157.334 32.1878 157.525 32.3342 157.669 32.5205C157.807 32.7026 157.906 32.9234 157.965 33.183C158.026 33.4639 158.056 33.7505 158.054 34.0377V37.244C157.896 37.2844 157.658 37.3333 157.339 37.3906C156.983 37.451 156.622 37.4798 156.261 37.4766C156.015 37.4791 155.771 37.4484 155.534 37.3856C155.326 37.3311 155.133 37.2308 154.971 37.0922C154.816 36.9574 154.695 36.782 154.608 36.5663C154.52 36.3505 154.477 36.0842 154.477 35.7672C154.477 35.4638 154.526 35.2076 154.625 34.9985C154.715 34.7996 154.853 34.6246 155.026 34.4877C155.2 34.3542 155.4 34.2577 155.614 34.2045C155.842 34.1466 156.076 34.1177 156.312 34.1186C156.431 34.119 156.549 34.1275 156.667 34.1439C156.801 34.163 156.934 34.1917 157.064 34.2298V34.0275C157.065 33.8916 157.051 33.756 157.022 33.623C156.997 33.5014 156.946 33.3861 156.874 33.2841C156.803 33.1858 156.707 33.1074 156.595 33.0566C156.479 33.0026 156.334 32.9756 156.159 32.9756C155.941 32.9739 155.723 32.9942 155.508 33.0363C155.343 33.0672 155.182 33.1146 155.026 33.1779L154.899 32.1867C155.029 32.1327 155.218 32.0788 155.466 32.0249C155.727 31.9696 155.994 31.9425 156.261 31.944ZM160.845 37.4665C160.54 37.4597 160.288 37.4193 160.088 37.3451C159.888 37.2709 159.728 37.1648 159.61 37.0266C159.491 36.8884 159.408 36.7164 159.36 36.5107C159.31 36.2797 159.286 36.044 159.289 35.8078V29.7188L160.312 29.5165V35.5751C160.31 35.7004 160.32 35.8257 160.341 35.9493C160.357 36.0416 160.394 36.1296 160.447 36.2072C160.499 36.2791 160.571 36.3352 160.654 36.369C160.762 36.4113 160.874 36.4402 160.988 36.455L160.845 37.4665ZM167.728 37.3653C167.649 37.0889 167.568 36.8158 167.483 36.5461C167.399 36.2763 167.317 35.9999 167.238 35.7167H164.769C164.69 35.9999 164.609 36.278 164.527 36.5511C164.446 36.8242 164.365 37.0956 164.287 37.3653H163.179C163.399 36.6169 163.607 35.9257 163.804 35.2919C164.002 34.658 164.195 34.0579 164.384 33.4915C164.573 32.9251 164.76 32.3857 164.946 31.8732C165.132 31.3607 165.324 30.855 165.521 30.356H166.528C166.725 30.8549 166.917 31.3607 167.103 31.8732C167.289 32.3857 167.476 32.9252 167.665 33.4915C167.854 34.0579 168.048 34.658 168.249 35.2919C168.449 35.9257 168.659 36.6169 168.879 37.3653H167.728ZM166.003 31.7114C165.874 32.0687 165.726 32.5037 165.559 33.0161C165.393 33.5285 165.22 34.0848 165.039 34.685H166.967C166.787 34.0848 166.612 33.5252 166.443 33.006C166.274 32.4867 166.127 32.0552 166.003 31.7114ZM169.208 34.7255C169.206 34.3544 169.257 33.9849 169.361 33.628C169.462 33.2875 169.607 32.9925 169.796 32.743C169.978 32.4995 170.214 32.299 170.485 32.1564C170.756 32.0148 171.06 31.944 171.399 31.944C171.81 31.9426 172.216 32.0362 172.583 32.2171L172.363 33.2184C172.235 33.154 172.1 33.1032 171.961 33.0667C171.805 33.0254 171.645 33.005 171.483 33.006C171.083 33.006 170.779 33.156 170.57 33.4561C170.361 33.7561 170.257 34.1793 170.257 34.7254C170.257 35.2514 170.356 35.6678 170.553 35.9746C170.75 36.2814 171.083 36.4348 171.551 36.4348C171.725 36.4349 171.898 36.4145 172.067 36.3741C172.219 36.3397 172.366 36.2888 172.507 36.2224L172.65 37.2338C172.538 37.3013 172.367 37.3619 172.139 37.4159C171.908 37.4702 171.67 37.4973 171.433 37.4968C171.055 37.4968 170.726 37.4277 170.447 37.2895C170.172 37.1545 169.934 36.9568 169.754 36.7129C169.571 36.4668 169.434 36.1735 169.344 35.833C169.251 35.4709 169.205 35.0987 169.208 34.7255ZM173.2 34.7255C173.197 34.3544 173.248 33.9849 173.352 33.628C173.454 33.2875 173.599 32.9925 173.788 32.743C173.97 32.4995 174.205 32.299 174.477 32.1564C174.748 32.0148 175.052 31.944 175.39 31.944C175.801 31.9426 176.207 32.0362 176.574 32.2171L176.354 33.2184C176.226 33.154 176.092 33.1032 175.953 33.0667C175.797 33.0254 175.636 33.005 175.475 33.006C175.075 33.006 174.77 33.156 174.561 33.4561C174.353 33.7561 174.249 34.1793 174.249 34.7254C174.249 35.2514 174.347 35.6678 174.545 35.9746C174.742 36.2814 175.075 36.4348 175.542 36.4348C175.716 36.4349 175.89 36.4145 176.058 36.3741C176.21 36.3396 176.358 36.2888 176.498 36.2224L176.642 37.2338C176.529 37.3013 176.359 37.3619 176.13 37.4159C175.899 37.4702 175.662 37.4973 175.424 37.4968C175.046 37.4968 174.718 37.4277 174.439 37.2895C174.164 37.1545 173.926 36.9568 173.746 36.713C173.562 36.4668 173.425 36.1735 173.335 35.833C173.242 35.4709 173.197 35.0987 173.2 34.7255ZM181.344 34.7153C181.344 35.1334 181.293 35.5144 181.192 35.8583C181.09 36.2021 180.946 36.4955 180.76 36.7382C180.583 36.9739 180.353 37.1675 180.088 37.3046C179.821 37.4407 179.523 37.5102 179.221 37.5069C178.921 37.5105 178.624 37.441 178.359 37.3046C178.096 37.1666 177.867 36.9732 177.691 36.7382C177.504 36.4955 177.359 36.2021 177.255 35.8583C177.151 35.5144 177.099 35.1334 177.099 34.7153C177.099 34.2973 177.151 33.918 177.255 33.5775C177.359 33.237 177.506 32.9453 177.695 32.7026C177.873 32.4686 178.103 32.2768 178.367 32.1412C178.631 32.0086 178.924 31.9409 179.221 31.944C179.519 31.9412 179.814 32.0089 180.08 32.1412C180.345 32.2753 180.575 32.4674 180.752 32.7026C180.938 32.9453 181.083 33.2369 181.187 33.5775C181.292 33.918 181.344 34.2973 181.344 34.7153ZM180.295 34.7153C180.295 34.1894 180.201 33.773 180.012 33.4662C179.823 33.1594 179.559 33.006 179.221 33.006C178.883 33.006 178.619 33.1594 178.431 33.4662C178.242 33.773 178.147 34.1894 178.147 34.7153C178.147 35.248 178.242 35.6695 178.431 35.9796C178.619 36.2898 178.883 36.4449 179.221 36.4449C179.559 36.4449 179.823 36.2898 180.012 35.9796C180.201 35.6694 180.295 35.248 180.295 34.7153ZM186.029 37.2035C185.832 37.2642 185.575 37.3265 185.259 37.3906C184.917 37.4571 184.568 37.4893 184.219 37.4866C183.864 37.4866 183.567 37.4259 183.327 37.3045C183.093 37.1882 182.895 37.0138 182.752 36.7988C182.608 36.583 182.505 36.3251 182.443 36.0251C182.379 35.7002 182.348 35.3698 182.35 35.0389V32.0755H183.373V34.8468C183.373 35.4132 183.443 35.8178 183.581 36.0605C183.719 36.3033 183.96 36.4247 184.304 36.4247C184.428 36.4247 184.559 36.4179 184.697 36.4044C184.801 36.3967 184.904 36.3798 185.006 36.3539V32.0755H186.029L186.029 37.2035ZM187.331 32.2474C187.529 32.18 187.785 32.1159 188.101 32.0552C188.447 31.9919 188.798 31.9614 189.149 31.9642C189.51 31.9642 189.812 32.0232 190.054 32.1412C190.289 32.2528 190.489 32.424 190.634 32.6368C190.777 32.8492 190.879 33.1054 190.938 33.4055C191 33.7308 191.029 34.061 191.027 34.3917V37.3653H190.004V34.5839C190.006 34.342 189.991 34.1003 189.957 33.8606C189.926 33.6617 189.875 33.4999 189.805 33.3751C189.741 33.2567 189.64 33.161 189.517 33.102C189.396 33.0447 189.248 33.0161 189.073 33.0161C188.938 33.0165 188.802 33.0267 188.667 33.0464C188.527 33.0666 188.422 33.0835 188.355 33.097V37.3653H187.331L187.331 32.2474ZM192.228 30.6797L193.251 30.4774V32.0755H194.824V33.097H193.251V35.2514C193.251 35.6762 193.307 35.9796 193.42 36.1617C193.533 36.3437 193.725 36.4348 193.995 36.4348C194.163 36.4374 194.33 36.4135 194.49 36.364C194.607 36.3272 194.721 36.2833 194.832 36.2325L195.002 37.2034C194.851 37.2769 194.696 37.3395 194.536 37.3905C194.345 37.4545 194.119 37.4865 193.86 37.4865C193.544 37.4865 193.281 37.4359 193.069 37.3348C192.862 37.2375 192.688 37.085 192.566 36.8948C192.442 36.7026 192.355 36.47 192.304 36.1969C192.25 35.8879 192.225 35.5749 192.228 35.2615V30.6797ZM197.369 36.5056C197.685 36.5056 197.925 36.4854 198.088 36.4449V35.0896C198.008 35.0634 197.926 35.0431 197.843 35.0289C197.726 35.0078 197.607 34.9976 197.488 34.9986C197.373 34.9987 197.258 35.0089 197.145 35.0289C197.035 35.0473 196.929 35.085 196.832 35.1402C196.738 35.1952 196.661 35.2738 196.608 35.3677C196.552 35.4655 196.524 35.5886 196.524 35.737C196.524 36.0269 196.6 36.2275 196.752 36.3388C196.904 36.4501 197.11 36.5056 197.369 36.5056ZM197.285 31.944C197.623 31.944 197.908 31.9946 198.139 32.0957C198.358 32.1878 198.549 32.3342 198.693 32.5205C198.831 32.7026 198.93 32.9234 198.989 33.183C199.05 33.4639 199.08 33.7505 199.078 34.0377V37.244C198.92 37.2844 198.682 37.3333 198.363 37.3906C198.007 37.451 197.646 37.4798 197.285 37.4766C197.039 37.4791 196.794 37.4484 196.558 37.3856C196.35 37.3311 196.157 37.2308 195.995 37.0922C195.84 36.9574 195.719 36.782 195.631 36.5663C195.544 36.3505 195.5 36.0842 195.5 35.7672C195.5 35.4638 195.55 35.2076 195.648 34.9985C195.739 34.7996 195.877 34.6246 196.05 34.4877C196.224 34.3542 196.424 34.2577 196.638 34.2045C196.866 34.1466 197.1 34.1177 197.335 34.1186C197.454 34.119 197.573 34.1275 197.691 34.1439C197.825 34.163 197.958 34.1917 198.088 34.2298V34.0275C198.089 33.8916 198.075 33.756 198.046 33.623C198.021 33.5014 197.97 33.3861 197.898 33.2841C197.827 33.1858 197.731 33.1074 197.619 33.0566C197.503 33.0026 197.358 32.9756 197.183 32.9756C196.965 32.9739 196.746 32.9942 196.532 33.0363C196.367 33.0672 196.205 33.1146 196.05 33.1779L195.923 32.1867C196.053 32.1327 196.242 32.0788 196.49 32.0249C196.751 31.9696 197.018 31.9424 197.285 31.944ZM200.329 32.2474C200.527 32.18 200.783 32.1159 201.099 32.0552C201.445 31.9919 201.796 31.9614 202.147 31.9642C202.508 31.9642 202.81 32.0232 203.052 32.1412C203.287 32.2528 203.487 32.424 203.632 32.6368C203.775 32.8492 203.877 33.1054 203.936 33.4055C203.998 33.7308 204.027 34.061 204.025 34.3917V37.3653H203.002V34.5839C203.004 34.342 202.989 34.1003 202.955 33.8606C202.924 33.6617 202.874 33.4999 202.803 33.3751C202.739 33.2567 202.639 33.161 202.516 33.102C202.394 33.0447 202.246 33.0161 202.072 33.0161C201.936 33.0165 201.8 33.0267 201.666 33.0464C201.525 33.0666 201.42 33.0835 201.353 33.097V37.3653H200.329L200.329 32.2474ZM205.226 30.6797L206.249 30.4774V32.0755H207.822V33.097H206.249V35.2514C206.249 35.6762 206.305 35.9796 206.418 36.1617C206.531 36.3437 206.723 36.4348 206.993 36.4348C207.161 36.4374 207.328 36.4135 207.488 36.364C207.605 36.3272 207.719 36.2833 207.83 36.2325L208 37.2034C207.849 37.2769 207.694 37.3395 207.534 37.3905C207.343 37.4545 207.117 37.4865 206.858 37.4865C206.542 37.4865 206.279 37.4359 206.067 37.3348C205.86 37.2376 205.686 37.0851 205.564 36.895C205.44 36.7028 205.353 36.4702 205.302 36.1971C205.248 35.8881 205.223 35.575 205.226 35.2615L205.226 30.6797Z" fill="#EFEFEF"/>
</svg>
